<svg width="24" height="24" viewBox="0 0 24 24" fill="none" xmlns="http://www.w3.org/2000/svg">
<path d="M18.543 7.546L19.8363 6.22933L18.5637 4.93328L17.1802 6.3418C15.9163 5.42993 14.4414 4.86793 12.9 4.71086V2.83252H14.7V1H9.3V2.83252H11.1V4.71086C9.55861 4.86793 8.08373 5.42993 6.81983 6.3418L5.4363 4.93328L4.1637 6.22933L5.457 7.546C4.24979 8.84727 3.44338 10.48 3.13737 12.2426C2.83137 14.0052 3.03916 15.8205 3.73509 17.4642C4.43102 19.108 5.58461 20.5082 7.0534 21.492C8.52219 22.4757 10.2418 23 12 23C13.7582 23 15.4778 22.4757 16.9466 21.492C18.4154 20.5082 19.569 19.108 20.2649 17.4642C20.9608 15.8205 21.1686 14.0052 20.8626 12.2426C20.5566 10.48 19.7502 8.84727 18.543 7.546ZM12 21.1577C10.576 21.1577 9.18393 20.7278 7.9999 19.9224C6.81586 19.117 5.89302 17.9722 5.34807 16.6328C4.80312 15.2934 4.66054 13.8195 4.93835 12.3976C5.21616 10.9757 5.9019 9.66963 6.90883 8.6445C7.91577 7.61937 9.19869 6.92125 10.5954 6.63841C11.992 6.35558 13.4397 6.50074 14.7553 7.05554C16.0709 7.61033 17.1954 8.54985 17.9866 9.75528C18.7777 10.9607 19.2 12.3779 19.2 13.8277C19.1979 15.771 18.4386 17.6342 17.0888 19.0084C15.739 20.3826 13.9089 21.1556 12 21.1577Z" fill="#DA8D19"/>
<path d="M12.0016 8.33009V13.8277H6.60156C6.60156 14.915 6.91827 15.9779 7.51163 16.8819C8.10499 17.786 8.94835 18.4907 9.93507 18.9067C10.9218 19.3228 12.0075 19.4317 13.055 19.2196C14.1025 19.0075 15.0647 18.4839 15.8199 17.715C16.5751 16.9462 17.0894 15.9666 17.2978 14.9002C17.5062 13.8338 17.3992 12.7284 16.9905 11.7238C16.5818 10.7193 15.8897 9.86068 15.0016 9.2566C14.1136 8.65252 13.0696 8.33009 12.0016 8.33009Z" fill="#DA8D19"/>
</svg>
