<svg width="48" height="48" viewBox="0 0 48 48" fill="none" xmlns="http://www.w3.org/2000/svg">
<rect width="48" height="48" rx="16" fill="#439368"/>
<path d="M22.7084 12C21.2385 12 19.8288 12.5776 18.7894 13.6058C17.75 14.634 17.1661 16.0284 17.1661 17.4825C17.1661 18.9365 17.75 20.331 18.7894 21.3592C19.8288 22.3874 21.2385 22.965 22.7084 22.965C24.1783 22.965 25.588 22.3874 26.6274 21.3592C27.6668 20.331 28.2507 18.9365 28.2507 17.4825C28.2507 16.0284 27.6668 14.634 26.6274 13.6058C25.588 12.5776 24.1783 12 22.7084 12ZM23.2596 25.6425C23.5716 25.1948 23.2719 24.5117 22.7232 24.5117H21.2471C19.0599 24.5117 16.9622 25.3712 15.4155 26.9012C13.8689 28.4311 13 30.5062 13 32.6699C13 33.5531 13.3547 34.4001 13.986 35.0246C14.6173 35.6492 15.4736 36 16.3664 36H22.8033C23.3607 36 23.6591 35.2998 23.3361 34.8521C22.3548 33.4925 21.8287 31.863 21.8316 30.1924C21.8316 28.5042 22.3594 26.9355 23.2596 25.6425Z" fill="white"/>
<path fill-rule="evenodd" clip-rule="evenodd" d="M35 30.2973C35 31.7531 34.4205 33.1493 33.3891 34.1788C32.3576 35.2082 30.9587 35.7865 29.5 35.7865C28.0413 35.7865 26.6424 35.2082 25.6109 34.1788C24.5795 33.1493 24 31.7531 24 30.2973C24 28.8415 24.5795 27.4453 25.6109 26.4159C26.6424 25.3864 28.0413 24.8081 29.5 24.8081C30.9587 24.8081 32.3576 25.3864 33.3891 26.4159C34.4205 27.4453 35 28.8415 35 30.2973ZM32.6486 28.2107C32.7288 28.2807 32.7944 28.3659 32.8417 28.4613C32.8889 28.5567 32.9168 28.6604 32.9239 28.7666C32.9309 28.8728 32.9169 28.9793 32.8826 29.08C32.8484 29.1808 32.7946 29.2738 32.7243 29.3538L29.9445 32.52C29.8221 32.6593 29.6722 32.7719 29.5042 32.8509C29.3362 32.9298 29.1537 32.9734 28.9681 32.9789C28.7825 32.9843 28.5978 32.9516 28.4254 32.8827C28.253 32.8137 28.0968 32.7101 27.9663 32.5783L26.4055 31.0022C26.3306 30.9265 26.2713 30.8368 26.2311 30.7383C26.1909 30.6397 26.1706 30.5342 26.1712 30.4278C26.1719 30.3214 26.1935 30.2162 26.2349 30.1181C26.2763 30.0201 26.3367 29.9311 26.4125 29.8563C26.4884 29.7816 26.5783 29.7224 26.677 29.6823C26.7757 29.6422 26.8814 29.6219 26.9881 29.6225C27.0947 29.6232 27.2001 29.6448 27.2984 29.6861C27.3966 29.7274 27.4857 29.7877 27.5607 29.8634L28.5082 30.8219C28.5604 30.8747 28.623 30.9162 28.692 30.9438C28.761 30.9713 28.8349 30.9844 28.9092 30.9822C28.9835 30.98 29.0565 30.9625 29.1238 30.9308C29.191 30.8992 29.2509 30.854 29.2999 30.7982L31.5031 28.2873C31.5733 28.2072 31.6587 28.1417 31.7543 28.0946C31.8498 28.0474 31.9538 28.0196 32.0602 28.0126C32.1665 28.0055 32.2733 28.0195 32.3742 28.0537C32.4752 28.0879 32.5684 28.1405 32.6486 28.2107Z" fill="white"/>
</svg>
