<svg width="48" height="48" viewBox="0 0 48 48" fill="none" xmlns="http://www.w3.org/2000/svg">
<rect width="48" height="48" rx="16" fill="#29B0B9"/>
<path d="M34.9244 26.029C35.1072 26.2113 35.2521 26.4277 35.351 26.6658C35.4499 26.9039 35.5008 27.1592 35.5008 27.4169C35.5008 27.6747 35.4499 27.9299 35.351 28.1681C35.2521 28.4062 35.1072 28.6226 34.9244 28.8048L28.2802 35.432C28.1771 35.535 28.0443 35.6032 27.9004 35.6272L25.7462 35.9902C25.6358 36.0088 25.5226 36.0009 25.4159 35.967C25.3092 35.9331 25.2123 35.8741 25.1331 35.7952C25.0539 35.7162 24.9949 35.6195 24.9609 35.5131C24.9269 35.4067 24.9189 35.2938 24.9376 35.1837L25.3015 33.035C25.3256 32.8915 25.394 32.759 25.4972 32.6562L32.1415 26.029C32.3242 25.8468 32.5411 25.7022 32.7799 25.6035C33.0186 25.5049 33.2745 25.4541 33.533 25.4541C33.7914 25.4541 34.0473 25.5049 34.286 25.6035C34.5248 25.7022 34.7417 25.8468 34.9244 26.029Z" fill="white"/>
<path d="M31.5451 14.9208H30.9622V14.3394C30.9613 13.7185 30.7137 13.1232 30.2735 12.6842C29.8333 12.2451 29.2365 11.9981 28.614 11.9972H14.8483C14.2257 11.9979 13.6288 12.2448 13.1885 12.6839C12.7483 13.1231 12.5007 13.7184 12.5 14.3394V30.0623C12.5009 30.6832 12.7486 31.2784 13.1888 31.7175C13.629 32.1566 14.2257 32.4036 14.8483 32.4045H15.4312V32.9859C15.4321 33.6068 15.6797 34.2021 16.1199 34.6411C16.5601 35.0802 17.1569 35.3273 17.7794 35.3281H23.6843C23.6805 35.2107 23.6872 35.0931 23.7042 34.9768L24.0681 32.8281C24.1373 32.4261 24.3255 32.0631 24.6127 31.7758L31.257 25.1486C31.5548 24.8495 31.9092 24.6124 32.2996 24.451C32.69 24.2896 33.1086 24.2072 33.5312 24.2084C33.6536 24.2084 33.7718 24.2299 33.8926 24.2432V17.2631C33.8921 16.6421 33.6447 16.0468 33.2046 15.6076C32.7645 15.1685 32.1677 14.9215 31.5451 14.9208ZM15.9833 18.1808C15.6296 18.5416 15.4314 19.026 15.4312 19.5305V30.9095H14.8483C14.7364 30.9106 14.6255 30.8894 14.5219 30.8472C14.4184 30.805 14.3243 30.7427 14.2452 30.6638C14.1661 30.5849 14.1036 30.4911 14.0613 30.3878C14.019 30.2845 13.9978 30.1738 13.9989 30.0623V14.3394C13.9989 13.8718 14.3794 13.4922 14.8483 13.4922H28.6131C29.0894 13.4922 29.4625 13.8643 29.4625 14.3394V14.9208H20.0528C19.7946 14.9205 19.5389 14.9714 19.3006 15.0705C19.0623 15.1696 18.8461 15.3149 18.6646 15.4981L15.9833 18.1808ZM16.9309 19.9458V19.5305C16.9309 19.4192 16.9784 19.3055 17.0533 19.2274L19.7263 16.5529C19.7689 16.5096 19.8197 16.4751 19.8757 16.4514C19.9318 16.4277 19.9919 16.4154 20.0528 16.415H20.4608V19.0978C20.4608 19.5654 20.0836 19.945 19.6198 19.945L16.9309 19.9458ZM24.5378 29.294H20.5241C20.3253 29.294 20.1347 29.2152 19.9941 29.075C19.8536 28.9349 19.7746 28.7447 19.7746 28.5465C19.7746 28.3482 19.8536 28.1581 19.9941 28.0179C20.1347 27.8777 20.3253 27.7989 20.5241 27.7989H24.5378C24.7366 27.7989 24.9272 27.8777 25.0677 28.0179C25.2083 28.1581 25.2872 28.3482 25.2872 28.5465C25.2872 28.7447 25.2083 28.9349 25.0677 29.075C24.9272 29.2152 24.7366 29.294 24.5378 29.294ZM28.808 25.8255H20.5241C20.3253 25.8255 20.1347 25.7467 19.9941 25.6065C19.8536 25.4664 19.7746 25.2762 19.7746 25.078C19.7746 24.8797 19.8536 24.6896 19.9941 24.5494C20.1347 24.4092 20.3253 24.3304 20.5241 24.3304H28.808C29.0068 24.3304 29.1974 24.4092 29.3379 24.5494C29.4785 24.6896 29.5574 24.8797 29.5574 25.078C29.5574 25.2762 29.4785 25.4664 29.3379 25.6065C29.1974 25.7467 29.0068 25.8255 28.808 25.8255Z" fill="white"/>
</svg>
