<svg width="48" height="48" viewBox="0 0 48 48" fill="none" xmlns="http://www.w3.org/2000/svg">
<rect width="48" height="48" rx="16" fill="#3E61BC"/>
<path d="M25.0515 31.1798L33.9455 34L34.9139 31.1798H25.0515ZM22.9482 16.8202L14.0542 14L13.0858 16.8202H22.9482ZM35.9997 19.8654V18.1768H34.2424C34.4854 18.9901 35.1533 19.6319 35.9997 19.8654ZM34.2424 29.8232H35.9997V28.1346C35.1533 28.3681 34.4854 29.0099 34.2424 29.8232ZM12 28.1346V29.8232H13.7573C13.5143 29.0099 12.8464 28.3681 12 28.1346ZM32.795 18.1768H15.2047C14.9118 19.7398 13.6266 20.9747 12 21.2562V26.7438C13.6266 27.0252 14.9117 28.2602 15.2047 29.8232H32.795C33.0879 28.2602 34.3731 27.0253 35.9997 26.7438V21.2562C34.3731 20.9747 33.088 19.7398 32.795 18.1768ZM17.4302 24.6783H14.7883V23.3217H17.4302V24.6783ZM23.9999 27.8362C21.7986 27.8362 20.0077 26.1153 20.0077 24C20.0077 21.8847 21.7986 20.1638 23.9999 20.1638C26.2011 20.1638 27.992 21.8847 27.992 24C27.992 26.1153 26.2011 27.8362 23.9999 27.8362ZM30.6398 24.6783V23.3217H33.2817V24.6783H30.6398ZM13.7573 18.1768H12V19.8654C12.8464 19.6319 13.5143 18.9901 13.7573 18.1768Z" fill="white"/>
<path d="M23.9984 26.4797C25.4235 26.4797 26.5788 25.3695 26.5788 24.0001C26.5788 22.6307 25.4235 21.5205 23.9984 21.5205C22.5732 21.5205 21.418 22.6307 21.418 24.0001C21.418 25.3695 22.5732 26.4797 23.9984 26.4797Z" fill="white"/>
</svg>
