<svg width="48" height="48" viewBox="0 0 48 48" fill="none" xmlns="http://www.w3.org/2000/svg">
<rect width="48" height="48" rx="16" fill="#704393"/>
<path d="M24.6271 31.0728C24.7266 29.4994 25.4192 28.0156 26.5742 26.9012C27.7293 25.7869 29.267 25.119 30.8972 25.0236C31.6537 24.987 32.4111 25.077 33.1358 25.2896C33.1891 25.3058 33.2455 25.3098 33.3006 25.3013C33.3557 25.2927 33.4081 25.2719 33.4534 25.2405C33.4988 25.2091 33.5359 25.1679 33.5619 25.1202C33.5879 25.0725 33.602 25.0197 33.6032 24.9658V21.0217C33.6032 20.9297 33.5653 20.8414 33.4979 20.7763C33.4305 20.7113 33.339 20.6747 33.2437 20.6747H12.3914C12.296 20.6747 12.2046 20.7113 12.1372 20.7763C12.0697 20.8414 12.0319 20.9297 12.0319 21.0217V30.2169C11.9622 30.6882 12.0071 31.1687 12.1632 31.6204C12.3192 32.072 12.582 32.4824 12.9309 32.8191C13.2797 33.1557 13.7049 33.4094 14.1729 33.56C14.6409 33.7106 15.1387 33.754 15.6271 33.6867H24.5672C24.623 33.6856 24.6778 33.672 24.7272 33.6469C24.7766 33.6218 24.8193 33.586 24.8519 33.5422C24.8844 33.4984 24.906 33.4479 24.9148 33.3947C24.9236 33.3415 24.9195 33.2871 24.9028 33.2357C24.6825 32.5354 24.5892 31.8037 24.6271 31.0728ZM18.0479 30.2169C17.73 30.2184 17.4246 30.098 17.1987 29.8822C16.9728 29.6664 16.8451 29.3728 16.8435 29.066C16.8419 28.7593 16.9666 28.4645 17.1902 28.2465C17.4139 28.0285 17.718 27.9051 18.0359 27.9036H18.0479C18.3657 27.9036 18.6705 28.0255 18.8953 28.2424C19.12 28.4593 19.2463 28.7535 19.2463 29.0602C19.2463 29.367 19.12 29.6612 18.8953 29.8781C18.6705 30.095 18.3657 30.2169 18.0479 30.2169ZM18.0479 25.5904C17.73 25.5919 17.4246 25.4715 17.1987 25.2557C16.9728 25.0399 16.8451 24.7463 16.8435 24.4395C16.8419 24.1328 16.9666 23.838 17.1902 23.62C17.4139 23.402 17.718 23.2786 18.0359 23.2771H18.0479C18.3657 23.2771 18.6705 23.399 18.8953 23.6159C19.12 23.8328 19.2463 24.127 19.2463 24.4337C19.2463 24.7405 19.12 25.0347 18.8953 25.2516C18.6705 25.4685 18.3657 25.5904 18.0479 25.5904ZM22.8415 25.5904C22.5237 25.5919 22.2182 25.4715 21.9923 25.2557C21.7665 25.0399 21.6387 24.7463 21.6371 24.4395C21.6355 24.1328 21.7602 23.838 21.9839 23.62C22.2075 23.402 22.5117 23.2786 22.8295 23.2771H22.8415C23.1593 23.2771 23.4642 23.399 23.6889 23.6159C23.9136 23.8328 24.0399 24.127 24.0399 24.4337C24.0399 24.7405 23.9136 25.0347 23.6889 25.2516C23.4642 25.4685 23.1593 25.5904 22.8415 25.5904ZM12.0319 18.5928V18.0723C11.9622 17.601 12.0071 17.1204 12.1632 16.6688C12.3192 16.2171 12.582 15.8067 12.9309 15.4701C13.2797 15.1334 13.7049 14.8797 14.1729 14.7291C14.6409 14.5786 15.1387 14.5352 15.6271 14.6024H17.1251V12.8675C17.1251 12.6374 17.2198 12.4168 17.3883 12.2541C17.5569 12.0914 17.7855 12 18.0239 12C18.2623 12 18.4909 12.0914 18.6594 12.2541C18.828 12.4168 18.9227 12.6374 18.9227 12.8675V14.6024H26.7123V12.8675C26.7123 12.6374 26.807 12.4168 26.9756 12.2541C27.1442 12.0914 27.3728 12 27.6112 12C27.8495 12 28.0781 12.0914 28.2467 12.2541C28.4153 12.4168 28.51 12.6374 28.51 12.8675V14.6024H30.008C30.4963 14.5352 30.9942 14.5786 31.4622 14.7291C31.9301 14.8797 32.3554 15.1334 32.7042 15.4701C33.053 15.8067 33.3158 16.2171 33.4719 16.6688C33.6279 17.1204 33.6729 17.601 33.6032 18.0723V18.5928C33.6032 18.6848 33.5653 18.7731 33.4979 18.8381C33.4305 18.9032 33.339 18.9398 33.2437 18.9398H12.3914C12.296 18.9398 12.2046 18.9032 12.1372 18.8381C12.0697 18.7731 12.0319 18.6848 12.0319 18.5928ZM31.2064 26.747C30.2583 26.747 29.3315 27.0183 28.5432 27.5267C27.7549 28.0351 27.1405 28.7576 26.7776 29.603C26.4148 30.4484 26.3199 31.3786 26.5049 32.2761C26.6898 33.1735 27.1464 33.9979 27.8168 34.6449C28.4872 35.292 29.3413 35.7326 30.2712 35.9111C31.2011 36.0896 32.1649 35.998 33.0408 35.6478C33.9167 35.2977 34.6654 34.7047 35.1921 33.9438C35.7189 33.183 36 32.2885 36 31.3735C36 30.1465 35.495 28.9697 34.596 28.1021C33.697 27.2344 32.4777 26.747 31.2064 26.747ZM32.9141 33.0205C32.8017 33.1289 32.6494 33.1898 32.4905 33.1898C32.3316 33.1898 32.1792 33.1289 32.0668 33.0205L30.7821 31.7829C30.7265 31.7291 30.6825 31.6653 30.6524 31.595C30.6224 31.5248 30.607 31.4495 30.6072 31.3735V29.6386C30.6072 29.4852 30.6703 29.3381 30.7827 29.2296C30.895 29.1212 31.0475 29.0602 31.2064 29.0602C31.3653 29.0602 31.5177 29.1212 31.6301 29.2296C31.7424 29.3381 31.8056 29.4852 31.8056 29.6386V31.1341L32.9141 32.2028C33.0264 32.3112 33.0895 32.4583 33.0895 32.6117C33.0895 32.765 33.0264 32.9121 32.9141 33.0205Z" fill="white"/>
</svg>
