<svg width="48" height="48" viewBox="0 0 48 48" fill="none" xmlns="http://www.w3.org/2000/svg">
<rect width="48" height="48" rx="16" fill="#DA8D19"/>
<path d="M20.7337 36V32.722C18.4205 32.722 16.202 31.8031 14.5663 30.1674C12.9307 28.5317 12.0117 26.3132 12.0117 24C12.0117 21.6868 12.9307 19.4684 14.5663 17.8327C16.202 16.197 18.4205 15.2781 20.7337 15.2781V19.6332C20.1602 19.6332 19.5924 19.7461 19.0626 19.9656C18.5328 20.185 18.0514 20.5067 17.6459 20.9122C17.2404 21.3177 16.9187 21.7991 16.6993 22.3289C16.4798 22.8587 16.3668 23.4266 16.3668 24C16.3668 24.5735 16.4798 25.1413 16.6993 25.6711C16.9187 26.2009 17.2404 26.6823 17.6459 27.0878C18.0514 27.4933 18.5328 27.815 19.0626 28.0345C19.5924 28.2539 20.1602 28.3669 20.7337 28.3669V25.0888L26.1776 30.5444L20.7337 36Z" fill="white"/>
<path d="M35.9979 24C35.9979 26.3132 35.079 28.5317 33.4433 30.1673C31.8076 31.803 29.5891 32.722 27.2759 32.722V28.3668C28.4341 28.3668 29.5448 27.9068 30.3637 27.0878C31.1827 26.2689 31.6428 25.1582 31.6428 24C31.6428 22.8418 31.1827 21.7311 30.3637 20.9122C29.5448 20.0932 28.4341 19.6332 27.2759 19.6332V22.9112L21.8203 17.4556L27.2759 12V15.2781C29.5891 15.2781 31.8076 16.197 33.4433 17.8327C35.079 19.4683 35.9979 21.6868 35.9979 24Z" fill="white"/>
</svg>
