<svg width="48" height="48" viewBox="0 0 48 48" fill="none" xmlns="http://www.w3.org/2000/svg">
<rect width="48" height="48" rx="16" fill="#FB4646"/>
<path d="M33.6991 17.2919L28.5139 12.2894C28.4164 12.1974 28.3013 12.1245 28.175 12.0747C28.0476 12.0241 27.9109 11.9987 27.7731 12.0001H17.1365C16.3108 12.0001 15.519 12.3162 14.9352 12.8789C14.3514 13.4416 14.0234 14.2048 14.0234 15.0006V32.9995C14.0234 33.7953 14.3514 34.5585 14.9352 35.1212C15.519 35.6839 16.3108 36.0001 17.1365 36.0001H30.8862C31.2952 36.0007 31.7003 35.9235 32.0782 35.7729C32.4562 35.6223 32.7997 35.4013 33.0889 35.1226C33.3781 34.8438 33.6073 34.5128 33.7636 34.1485C33.9198 33.7841 33.9999 33.3937 33.9992 32.9995V18.0012C34.0009 17.8697 33.9752 17.7391 33.9236 17.6173C33.8721 17.4954 33.7957 17.3848 33.6991 17.2919ZM18.4534 17.2919C18.5484 17.198 18.6622 17.1236 18.7878 17.0731C18.9134 17.0226 19.0483 16.997 19.1844 16.9979H22.0215C22.1576 16.997 22.2925 17.0226 22.4181 17.0731C22.5437 17.1236 22.6575 17.198 22.7526 17.2919C22.8491 17.3842 22.9257 17.4939 22.9781 17.6149C23.0304 17.7358 23.0574 17.8655 23.0576 17.9966C23.0559 18.2623 22.9465 18.5169 22.7526 18.7059C22.6564 18.7981 22.5424 18.8711 22.4169 18.9207C22.2915 18.9704 22.1571 18.9957 22.0215 18.9952H19.1844C19.0482 18.9958 18.9132 18.9704 18.7872 18.9204C18.6612 18.8705 18.5467 18.7969 18.4504 18.7041C18.354 18.6112 18.2777 18.5009 18.2259 18.3794C18.1741 18.258 18.1477 18.1279 18.1483 17.9966C18.1474 17.8654 18.1739 17.7353 18.2263 17.6143C18.2787 17.4932 18.356 17.3835 18.4534 17.2919ZM18.4534 21.2911C18.5491 21.1981 18.663 21.1242 18.7884 21.0738C18.9139 21.0233 19.0485 20.9973 19.1844 20.9971H25.7446C25.8805 20.9973 26.0151 21.0233 26.1405 21.0738C26.266 21.1242 26.3799 21.1981 26.4756 21.2911C26.573 21.3828 26.6502 21.4924 26.7026 21.6135C26.755 21.7346 26.7816 21.8646 26.7806 21.9958C26.7806 22.2611 26.6716 22.5156 26.4775 22.7036C26.2833 22.8916 26.0198 22.9978 25.7446 22.9991H19.1844C18.9092 22.9978 18.6457 22.8916 18.4515 22.7036C18.2573 22.5156 18.1483 22.2611 18.1483 21.9958C18.1474 21.8646 18.1739 21.7346 18.2263 21.6135C18.2787 21.4924 18.356 21.3828 18.4534 21.2911ZM29.6226 26.9983L26.5482 30.6335C26.4475 30.747 26.3229 30.8385 26.1826 30.9021C26.0424 30.9656 25.8898 30.9998 25.7349 31.0022C25.5789 31.0012 25.4252 30.9662 25.2852 30.9C25.1452 30.8337 25.0226 30.7379 24.9264 30.6195L22.6315 27.8196L19.9542 30.6755C19.8637 30.7738 19.7533 30.8532 19.6298 30.9089C19.5066 30.9648 19.3736 30.998 19.2377 31.0069C19.1013 31.0116 18.9652 30.9926 18.8358 30.9509C18.7088 30.9061 18.5921 30.838 18.4921 30.7502C18.3912 30.662 18.309 30.5558 18.25 30.4375C18.1903 30.3193 18.1557 30.1908 18.1483 30.0596C18.1431 29.9281 18.1628 29.7969 18.2064 29.6722C18.2527 29.5483 18.3234 29.4343 18.4146 29.3362L21.915 25.603C22.0154 25.4942 22.1395 25.408 22.2784 25.3508C22.4173 25.2935 22.5677 25.2665 22.7187 25.2717C22.8702 25.2769 23.0188 25.3135 23.1544 25.379C23.2882 25.4439 23.4055 25.5363 23.4981 25.6497L25.7543 28.4076L28.0152 25.7383C28.1447 25.5848 28.3187 25.4718 28.5149 25.4137C28.7112 25.3557 28.9209 25.3551 29.1175 25.4121C29.3141 25.4691 29.4887 25.5811 29.6191 25.7339C29.7495 25.8867 29.83 26.0734 29.8501 26.2703C29.8774 26.5325 29.7955 26.7943 29.6226 26.9983ZM28.6301 18.2672C28.3347 18.2672 28.0515 18.1541 27.8427 17.9528C27.6338 17.7516 27.5165 17.4786 27.5165 17.1939V13.358L32.6291 18.2672H28.6301Z" fill="white"/>
</svg>
