<svg width="80" height="80" viewBox="0 0 80 80" fill="none" xmlns="http://www.w3.org/2000/svg">
<rect width="80" height="80" rx="16" fill="#FFF7F7"/>
<path d="M59.3605 32.8528C57.6855 24.2812 47.8648 14.769 40.9248 23.4047L21.3391 38.1574C21.3034 38.1859 18.4363 40.8275 21.2027 44.964C21.4056 45.5196 23.1599 47.013 26.1206 47.1638C33.0134 48.0994 44.167 49.7364 51.1684 50.6535C58.2848 50.4002 61.4627 41.852 59.3605 32.8528ZM52.1912 47.6341C46.317 48.7496 42.2327 42.4191 40.997 37.3457C39.7398 32.1634 40.4441 24.8112 46.1363 23.0625C57.117 21.0348 62.8527 44.3784 52.1912 47.6341Z" fill="#FB4646"/>
<path d="M42.4087 30.8024C41.9323 34.4216 42.6631 38.0965 44.4887 41.2615C44.7259 41.6767 44.986 42.0783 45.268 42.4646C46.1767 41.9606 46.9693 41.2725 47.5947 40.4447C48.2202 39.617 48.6646 38.668 48.8994 37.6587C49.7666 33.3117 46.178 30.3321 42.4087 30.8024ZM34.7101 53.8067C33.819 53.8948 32.9197 53.7652 32.0902 53.4291C31.2606 53.093 30.5258 52.5606 29.9494 51.8779C29.3179 51.0428 28.9517 50.0385 28.898 48.9944C28.6666 48.9588 26.0673 48.6031 25.9102 48.5746L28.2694 56.4775C28.4333 57.0133 28.8007 57.4642 29.2935 57.7341C29.7862 58.004 30.3653 58.0716 30.9073 57.9225L33.4659 57.2181C33.748 57.1422 34.0115 57.0095 34.2401 56.8281C34.4687 56.6467 34.6575 56.4206 34.7948 56.1637C34.9322 55.9068 35.0152 55.6245 35.0387 55.3344C35.0623 55.0443 35.0258 54.7524 34.9316 54.4769L34.7101 53.8067Z" fill="#FB4646"/>
<path d="M34.3694 49.7556C33.1822 49.5778 31.5479 49.3693 30.3594 49.1936C30.5165 51.091 32.2451 52.4186 34.3051 52.4186C34.4685 52.4232 34.6299 52.3827 34.7717 52.3016C34.9134 52.2205 35.0299 52.102 35.1083 51.9592C35.1867 51.8163 35.224 51.6547 35.216 51.492C35.2079 51.3294 35.155 51.1722 35.0629 51.0377C34.7744 50.6438 34.5405 50.2125 34.3694 49.7556Z" fill="#FB4646"/>
</svg>
