<svg width="80" height="80" viewBox="0 0 80 80" fill="none" xmlns="http://www.w3.org/2000/svg">
<rect width="80" height="80" rx="16" fill="#EDF4FF"/>
<path d="M37.8865 20C35.4812 20 33.1744 20.9627 31.4736 22.6763C29.7728 24.3899 28.8173 26.7141 28.8173 29.1375C28.8173 31.5609 29.7728 33.8851 31.4736 35.5987C33.1744 37.3123 35.4812 38.275 37.8865 38.275C40.2918 38.275 42.5986 37.3123 44.2994 35.5987C46.0002 33.8851 46.9557 31.5609 46.9557 29.1375C46.9557 26.7141 46.0002 24.3899 44.2994 22.6763C42.5986 20.9627 40.2918 20 37.8865 20ZM38.7884 42.7375C39.299 41.9914 38.8086 40.8529 37.9107 40.8529H35.4953C31.9161 40.8529 28.4836 42.2854 25.9527 44.8353C23.4218 47.3853 22 50.8437 22 54.4498C22 55.9218 22.5804 57.3335 23.6135 58.3744C24.6465 59.4153 26.0477 60 27.5087 60H38.0418C38.9539 60 39.4422 58.8331 38.9136 58.0869C37.3079 55.8209 36.447 53.105 36.4518 50.3207C36.4518 47.507 37.3154 44.8925 38.7884 42.7375Z" fill="#4579FF"/>
<path fill-rule="evenodd" clip-rule="evenodd" d="M58 50.4956C58 52.9219 57.0518 55.2489 55.364 56.9646C53.6761 58.6804 51.3869 59.6442 49 59.6442C46.6131 59.6442 44.3239 58.6804 42.636 56.9646C40.9482 55.2489 40 52.9219 40 50.4956C40 48.0692 40.9482 45.7422 42.636 44.0265C44.3239 42.3108 46.6131 41.3469 49 41.3469C51.3869 41.3469 53.6761 42.3108 55.364 44.0265C57.0518 45.7422 58 48.0692 58 50.4956ZM54.1522 47.0178C54.2835 47.1346 54.3909 47.2765 54.4682 47.4355C54.5455 47.5945 54.5912 47.7674 54.6027 47.9444C54.6142 48.1213 54.5913 48.2988 54.5352 48.4668C54.4792 48.6347 54.3911 48.7898 54.2761 48.9231L49.7274 54.2C49.527 54.4322 49.2818 54.6199 49.0069 54.7515C48.732 54.8831 48.4334 54.9557 48.1297 54.9648C47.8259 54.9739 47.5236 54.9193 47.2416 54.8045C46.9595 54.6896 46.7038 54.5169 46.4903 54.2972L43.9363 51.6704C43.8137 51.5442 43.7167 51.3948 43.6509 51.2305C43.5852 51.0662 43.5519 50.8904 43.5529 50.7131C43.554 50.5357 43.5894 50.3604 43.6572 50.1969C43.7249 50.0335 43.8237 49.8852 43.9478 49.7606C44.0719 49.636 44.219 49.5374 44.3805 49.4706C44.5421 49.4037 44.7151 49.3698 44.8896 49.3709C45.064 49.372 45.2365 49.408 45.3973 49.4769C45.5581 49.5458 45.7039 49.6461 45.8265 49.7723L47.377 51.3699C47.4625 51.4579 47.5648 51.527 47.6778 51.573C47.7907 51.619 47.9117 51.6408 48.0333 51.637C48.1548 51.6333 48.2743 51.6042 48.3843 51.5514C48.4943 51.4986 48.5925 51.4234 48.6726 51.3304L52.2779 47.1456C52.3927 47.0121 52.5324 46.9029 52.6888 46.8244C52.8452 46.7458 53.0153 46.6993 53.1894 46.6876C53.3634 46.6759 53.5381 46.6992 53.7033 46.7562C53.8685 46.8132 54.0211 46.9009 54.1522 47.0178Z" fill="#4579FF"/>
</svg>
