<svg width="80" height="80" viewBox="0 0 80 80" fill="none" xmlns="http://www.w3.org/2000/svg">
<rect width="80" height="80" rx="16" fill="#FBF7F3"/>
<path d="M58.168 41.6675H43.5005C43.0145 41.6675 42.5484 41.8606 42.2047 42.2042C41.861 42.5479 41.668 43.014 41.668 43.5V58.1675C41.668 59.18 42.488 60 43.5005 60H58.168C58.654 60 59.1201 59.8069 59.4637 59.4633C59.8074 59.1196 60.0005 58.6535 60.0005 58.1675V43.5C60.0005 43.014 59.8074 42.5479 59.4637 42.2042C59.1201 41.8606 58.654 41.6675 58.168 41.6675Z" fill="#F9B247"/>
<path d="M58.168 20H43.5005C43.0145 20 42.5484 20.1931 42.2047 20.5367C41.861 20.8804 41.668 21.3465 41.668 21.8325V36.5C41.668 37.5125 42.488 38.3325 43.5005 38.3325H58.168C58.654 38.3325 59.1201 38.1394 59.4637 37.7958C59.8074 37.4521 60.0005 36.986 60.0005 36.5V21.8325C60.0005 21.3465 59.8074 20.8804 59.4637 20.5367C59.1201 20.1931 58.654 20 58.168 20Z" fill="#F9B247"/>
<path d="M21.8325 60H36.5C36.986 60 37.4521 59.8069 37.7958 59.4633C38.1394 59.1196 38.3325 58.6535 38.3325 58.1675V21.8325C38.3325 21.3465 38.1394 20.8804 37.7958 20.5367C37.4521 20.1931 36.986 20 36.5 20H21.8325C21.3465 20 20.8804 20.1931 20.5367 20.5367C20.1931 20.8804 20 21.3465 20 21.8325V58.165C20 59.18 20.82 60 21.8325 60Z" fill="#F9B247"/>
</svg>
