<svg width="80" height="80" viewBox="0 0 80 80" fill="none" xmlns="http://www.w3.org/2000/svg">
<rect width="80" height="80" rx="16" fill="#EBF8F1"/>
<path d="M58.0474 43.3824C58.3493 43.6862 58.5888 44.0468 58.7522 44.4437C58.9156 44.8405 58.9998 45.2659 58.9998 45.6955C58.9998 46.1251 58.9156 46.5505 58.7522 46.9473C58.5888 47.3442 58.3493 47.7048 58.0474 48.0086L47.07 59.0534C46.8997 59.225 46.6804 59.3387 46.4426 59.3787L42.8835 59.9836C42.7011 60.0147 42.514 60.0015 42.3378 59.9449C42.1615 59.8884 42.0013 59.7902 41.8705 59.6586C41.7398 59.527 41.6422 59.3658 41.586 59.1885C41.5298 59.0112 41.5166 58.823 41.5476 58.6395L42.1488 55.0585C42.1885 54.8193 42.3016 54.5986 42.4721 54.4273L53.4495 43.3824C53.7514 43.0787 54.1098 42.8377 54.5043 42.6733C54.8987 42.5089 55.3215 42.4243 55.7485 42.4243C56.1754 42.4243 56.5982 42.5089 56.9927 42.6733C57.3871 42.8377 57.7455 43.0787 58.0474 43.3824Z" fill="#439368"/>
<path d="M52.4657 24.8697H51.5026V23.9007C51.5012 22.8659 51.0919 21.8738 50.3647 21.1421C49.6374 20.4104 48.6514 19.9986 47.6229 19.9972H24.8797C23.8511 19.9983 22.8649 20.4099 22.1376 21.1417C21.4102 21.8735 21.0011 22.8658 21 23.9007V50.1043C21.0015 51.1391 21.4107 52.1311 22.138 52.8629C22.8652 53.5946 23.8512 54.0064 24.8797 54.0078H25.8428V54.9768C25.8442 56.0116 26.2535 57.0037 26.9807 57.7354C27.708 58.4671 28.694 58.8789 29.7225 58.8803H39.4782C39.4721 58.6846 39.4831 58.4886 39.5112 58.2948L40.1125 54.7138C40.2266 54.0438 40.5376 53.4389 41.0122 52.96L51.9896 41.9151C52.4817 41.4168 53.0672 41.0216 53.7121 40.7526C54.3571 40.4837 55.0487 40.3462 55.7469 40.3482C55.9492 40.3482 56.1445 40.3842 56.344 40.4063V28.7732C56.3433 27.7384 55.9345 26.7461 55.2074 26.0143C54.4802 25.2824 53.4942 24.8708 52.4657 24.8697ZM26.7549 30.3028C26.1706 30.904 25.8432 31.7113 25.8428 32.5522V51.5162H24.8797C24.6949 51.518 24.5116 51.4828 24.3405 51.4125C24.1694 51.3422 24.014 51.2383 23.8833 51.1068C23.7527 50.9753 23.6494 50.8189 23.5795 50.6468C23.5096 50.4746 23.4746 50.2902 23.4764 50.1043V23.9007C23.4764 23.1214 24.1052 22.4888 24.8797 22.4888H47.6215C48.4085 22.4888 49.0248 23.1089 49.0248 23.9007V24.8697H33.4784C33.0518 24.8692 32.6294 24.9539 32.2357 25.1191C31.842 25.2842 31.4848 25.5265 31.185 25.8317L26.7549 30.3028ZM28.3206 33.2443V32.5522C28.3206 32.3667 28.399 32.177 28.5228 32.0469L32.9391 27.5897C33.0094 27.5174 33.0933 27.4599 33.1859 27.4205C33.2785 27.3811 33.3779 27.3605 33.4784 27.3599H34.1525V31.831C34.1525 32.6103 33.5293 33.2429 32.763 33.2429L28.3206 33.2443ZM40.8884 48.8239H34.2571C33.9287 48.8239 33.6138 48.6926 33.3816 48.459C33.1493 48.2253 33.0189 47.9085 33.0189 47.5781C33.0189 47.2476 33.1493 46.9308 33.3816 46.6971C33.6138 46.4635 33.9287 46.3322 34.2571 46.3322H40.8884C41.2168 46.3322 41.5317 46.4635 41.7639 46.6971C41.9962 46.9308 42.1266 47.2476 42.1266 47.5781C42.1266 47.9085 41.9962 48.2253 41.7639 48.459C41.5317 48.6926 41.2168 48.8239 40.8884 48.8239ZM47.9434 43.0433H34.2571C33.9287 43.0433 33.6138 42.912 33.3816 42.6784C33.1493 42.4448 33.0189 42.1279 33.0189 41.7975C33.0189 41.4671 33.1493 41.1502 33.3816 40.9166C33.6138 40.6829 33.9287 40.5517 34.2571 40.5517H47.9434C48.2718 40.5517 48.5868 40.6829 48.819 40.9166C49.0512 41.1502 49.1817 41.4671 49.1817 41.7975C49.1817 42.1279 49.0512 42.4448 48.819 42.6784C48.5868 42.912 48.2718 43.0433 47.9434 43.0433Z" fill="#439368"/>
</svg>
