<svg width="80" height="80" viewBox="0 0 80 80" fill="none" xmlns="http://www.w3.org/2000/svg">
<rect width="80" height="80" rx="16" fill="#E4F9F9"/>
<path d="M41.7528 51.2057L56.5763 56L58.1904 51.2057H41.7528ZM38.2472 26.7943L23.4237 22L21.8096 26.7943H38.2472ZM60 31.9712V29.1005H57.0711C57.4761 30.4832 58.5893 31.5743 60 31.9712ZM57.0711 48.8995H60V46.0288C58.5893 46.4257 57.4761 47.5168 57.0711 48.8995ZM20 46.0288V48.8995H22.9289C22.5239 47.5168 21.4107 46.4257 20 46.0288ZM54.6588 29.1005H25.3412C24.853 31.7577 22.7111 33.8571 20 34.3356V43.6644C22.711 44.1428 24.8529 46.2423 25.3412 48.8995H54.6588C55.147 46.2423 57.2889 44.1429 60 43.6644V34.3356C57.289 33.8571 55.1471 31.7577 54.6588 29.1005ZM29.0505 40.1531H24.6473V37.8469H29.0505V40.1531ZM40 45.5215C36.3311 45.5215 33.3464 42.596 33.3464 39C33.3464 35.404 36.3311 32.4785 40 32.4785C43.6689 32.4785 46.6536 35.404 46.6536 39C46.6536 42.596 43.6689 45.5215 40 45.5215ZM51.0667 40.1531V37.8469H55.4699V40.1531H51.0667ZM22.9289 29.1005H20V31.9712C21.4107 31.5743 22.5239 30.4832 22.9289 29.1005Z" fill="#00C3CF"/>
<path d="M39.9999 43.2153C42.3751 43.2153 44.3006 41.328 44.3006 39C44.3006 36.672 42.3751 34.7847 39.9999 34.7847C37.6247 34.7847 35.6992 36.672 35.6992 39C35.6992 41.328 37.6247 43.2153 39.9999 43.2153Z" fill="#00C3CF"/>
</svg>
