<svg width="80" height="80" viewBox="0 0 80 80" fill="none" xmlns="http://www.w3.org/2000/svg">
<rect width="80" height="80" rx="16" fill="#F8F2FF"/>
<path d="M56.6311 38.9659V26.7383C56.6311 26.555 56.5804 26.3873 56.5049 26.2329C56.5504 26.108 56.6311 25.9977 56.6311 25.8594C56.6311 25.6046 56.5472 25.3568 56.3922 25.1534C56.2372 24.9501 56.0196 24.8022 55.7722 24.7321L39.199 20.0446C38.9866 19.9851 38.7617 19.9851 38.5493 20.0446L21.9762 24.7321C21.7287 24.8022 21.5111 24.9501 21.3561 25.1534C21.2011 25.3568 21.1173 25.6046 21.1172 25.8594C21.1173 26.1141 21.2011 26.3619 21.3561 26.5653C21.5111 26.7687 21.7287 26.9166 21.9762 26.9866L28.22 28.7526V30.1395C28.22 31.4727 28.968 32.6984 30.1252 33.2614C35.4314 35.8432 42.3146 35.842 47.6232 33.2626C48.7804 32.6995 49.5284 31.4738 49.5284 30.1395V28.7526L54.2636 27.4134V38.9659C52.8887 39.4513 51.896 40.7398 51.896 42.2656V44.6094C51.896 45.2571 52.4255 45.7812 53.0798 45.7812H57.815C58.4693 45.7812 58.9988 45.2571 58.9988 44.6094V42.2656C58.9987 40.7398 58.0061 39.4513 56.6311 38.9659Z" fill="#9747FF"/>
<path d="M48.5487 35.5223C45.573 36.9699 42.187 37.7344 38.757 37.7344C35.327 37.7344 31.9397 36.9688 28.9629 35.5211C28.6721 35.3796 28.4313 35.1699 28.1729 34.983C28.4258 39.201 30.7183 42.7802 33.9581 44.6138C33.9581 44.6138 35.6199 45.3911 36.1391 45.5371L36.1412 45.5333C36.9821 45.7706 37.8478 45.9376 38.7569 45.9376C39.5893 45.9376 40.7749 45.7731 41.9596 45.3401C42.5053 45.1477 43.5519 44.6163 43.5519 44.6163C46.7937 42.7832 49.0877 39.203 49.3409 34.9835C49.0818 35.1707 48.8403 35.3805 48.5487 35.5223ZM38.757 48.2812C37.8027 48.2812 36.8843 48.1355 35.9894 47.9216L38.757 52.0312L41.509 47.9255C40.6188 48.1369 39.7058 48.2812 38.757 48.2812ZM45.5713 46.1794C45.5503 46.1934 45.5268 46.203 45.5059 46.2169L44.5102 47.6953C44.5102 47.7498 39.9713 54.4702 39.9408 54.5155V60H55.3301C55.9845 60 56.5139 59.4759 56.5139 58.8281C56.5139 52.4286 51.7559 47.1755 45.5713 46.1794ZM48.2274 55.3125H45.8598C45.2054 55.3125 44.676 54.7884 44.676 54.1406C44.676 53.4929 45.2054 52.9688 45.8598 52.9688H48.2274C48.8817 52.9688 49.4112 53.4929 49.4112 54.1406C49.4112 54.7884 48.8817 55.3125 48.2274 55.3125ZM31.9865 46.2033C31.9673 46.1905 31.9458 46.1817 31.9265 46.1688C25.7485 47.1717 21 52.4326 21 58.8281C21 59.4759 21.5295 60 22.1838 60H37.5732V54.5155C32.2083 46.5355 33.3031 48.1647 31.9865 46.2033Z" fill="#9747FF"/>
</svg>
