<svg width="80" height="80" viewBox="0 0 80 80" fill="none" xmlns="http://www.w3.org/2000/svg">
<rect width="80" height="80" rx="16" fill="#FFF6F1"/>
<path d="M41.0452 51.7879C41.2109 49.1657 42.3653 46.6927 44.2904 44.8354C46.2155 42.9781 48.7783 41.865 51.4953 41.706C52.7562 41.645 54.0185 41.795 55.2263 42.1494C55.3151 42.1764 55.4092 42.183 55.501 42.1688C55.5929 42.1546 55.6801 42.1199 55.7557 42.0675C55.8313 42.0152 55.8932 41.9465 55.9365 41.867C55.9798 41.7876 56.0034 41.6994 56.0053 41.6096V35.0361C56.0053 34.8828 55.9422 34.7357 55.8298 34.6272C55.7174 34.5188 55.565 34.4578 55.4061 34.4578H20.6523C20.4934 34.4578 20.341 34.5188 20.2286 34.6272C20.1162 34.7357 20.0531 34.8828 20.0531 35.0361V50.3614C19.937 51.147 20.0119 51.9479 20.272 52.7006C20.532 53.4534 20.9701 54.1374 21.5514 54.6985C22.1328 55.2596 22.8415 55.6823 23.6215 55.9333C24.4014 56.1843 25.2312 56.2567 26.0451 56.1446H40.9453C41.0384 56.1427 41.1297 56.12 41.212 56.0782C41.2944 56.0364 41.3655 55.9766 41.4198 55.9037C41.474 55.8307 41.51 55.7466 41.5247 55.6579C41.5394 55.5692 41.5325 55.4784 41.5046 55.3928C41.1375 54.2257 40.9821 53.0061 41.0452 51.7879ZM30.0798 50.3614C29.55 50.364 29.041 50.1634 28.6645 49.8036C28.2881 49.4439 28.0751 48.9546 28.0724 48.4434C28.0698 47.9321 28.2777 47.4408 28.6504 47.0774C29.0231 46.7141 29.5301 46.5086 30.0598 46.506H30.0798C30.6095 46.506 31.1175 46.7091 31.4921 47.0706C31.8667 47.4322 32.0771 47.9225 32.0771 48.4337C32.0771 48.945 31.8667 49.4353 31.4921 49.7968C31.1175 50.1583 30.6095 50.3614 30.0798 50.3614ZM30.0798 42.6506C29.55 42.6532 29.041 42.4525 28.6645 42.0928C28.2881 41.7331 28.0751 41.2438 28.0724 40.7325C28.0698 40.2213 28.2777 39.7299 28.6504 39.3666C29.0231 39.0033 29.5301 38.7977 30.0598 38.7952H30.0798C30.6095 38.7952 31.1175 38.9983 31.4921 39.3598C31.8667 39.7213 32.0771 40.2116 32.0771 40.7229C32.0771 41.2341 31.8667 41.7245 31.4921 42.086C31.1175 42.4475 30.6095 42.6506 30.0798 42.6506ZM38.0692 42.6506C37.5394 42.6532 37.0303 42.4525 36.6539 42.0928C36.2774 41.7331 36.0645 41.2438 36.0618 40.7325C36.0592 40.2213 36.2671 39.7299 36.6398 39.3666C37.0125 39.0033 37.5195 38.7977 38.0492 38.7952H38.0692C38.5989 38.7952 39.1069 38.9983 39.4815 39.3598C39.8561 39.7213 40.0665 40.2116 40.0665 40.7229C40.0665 41.2341 39.8561 41.7245 39.4815 42.086C39.1069 42.4475 38.5989 42.6506 38.0692 42.6506ZM20.0531 30.988V30.1205C19.937 29.3349 20.0119 28.5341 20.272 27.7813C20.532 27.0285 20.9701 26.3445 21.5514 25.7834C22.1328 25.2224 22.8415 24.7996 23.6215 24.5486C24.4014 24.2976 25.2312 24.2253 26.0451 24.3373H28.5418V21.4458C28.5418 21.0623 28.6996 20.6946 28.9806 20.4235C29.2615 20.1523 29.6425 20 30.0398 20C30.4371 20 30.8182 20.1523 31.0991 20.4235C31.38 20.6946 31.5378 21.0623 31.5378 21.4458V24.3373H44.5206V21.4458C44.5206 21.0623 44.6784 20.6946 44.9593 20.4235C45.2403 20.1523 45.6213 20 46.0186 20C46.4159 20 46.7969 20.1523 47.0778 20.4235C47.3588 20.6946 47.5166 21.0623 47.5166 21.4458V24.3373H50.0133C50.8272 24.2253 51.657 24.2976 52.4369 24.5486C53.2169 24.7996 53.9256 25.2224 54.507 25.7834C55.0883 26.3445 55.5264 27.0285 55.7864 27.7813C56.0465 28.5341 56.1214 29.3349 56.0053 30.1205V30.988C56.0053 31.1413 55.9422 31.2884 55.8298 31.3969C55.7174 31.5053 55.565 31.5663 55.4061 31.5663H20.6523C20.4934 31.5663 20.341 31.5053 20.2286 31.3969C20.1162 31.2884 20.0531 31.1413 20.0531 30.988ZM52.0106 44.5783C50.4305 44.5783 48.8858 45.0305 47.572 45.8778C46.2581 46.7251 45.2341 47.9294 44.6294 49.3383C44.0247 50.7473 43.8665 52.2977 44.1748 53.7935C44.483 55.2892 45.2439 56.6632 46.3613 57.7415C47.4786 58.8199 48.9022 59.5543 50.452 59.8518C52.0018 60.1494 53.6082 59.9967 55.068 59.413C56.5279 58.8294 57.7757 57.8411 58.6535 56.5731C59.5314 55.305 60 53.8142 60 52.2892C60 50.2441 59.1583 48.2828 57.66 46.8368C56.1617 45.3907 54.1295 44.5783 52.0106 44.5783ZM54.8568 55.0342C54.6696 55.2149 54.4156 55.3164 54.1508 55.3164C53.886 55.3164 53.632 55.2149 53.4447 55.0342L51.3036 52.9716C51.2109 52.8819 51.1374 52.7755 51.0874 52.6584C51.0374 52.5413 51.0117 52.4158 51.0119 52.2892V49.3976C51.0119 49.142 51.1172 48.8968 51.3045 48.716C51.4917 48.5353 51.7458 48.4337 52.0106 48.4337C52.2755 48.4337 52.5295 48.5353 52.7168 48.716C52.9041 48.8968 53.0093 49.142 53.0093 49.3976V51.8901L54.8568 53.6713C55.0441 53.8521 55.1492 54.0972 55.1492 54.3528C55.1492 54.6083 55.0441 54.8535 54.8568 55.0342Z" fill="#FF8B49"/>
</svg>
