<svg width="24" height="24" viewBox="0 0 24 24" fill="none" xmlns="http://www.w3.org/2000/svg">
<g clip-path="url(#clip0_705_8012)">
<path d="M22.6928 12.8403V8.54585L20.0968 7.92779C19.9794 7.58452 19.8403 7.24909 19.6802 6.92355L21.0791 4.65025L18.0425 1.61361L15.7692 3.01259C15.4437 2.85249 15.1082 2.71334 14.765 2.59599L14.1469 0H9.85254L9.23444 2.59599C8.89118 2.71334 8.55576 2.85249 8.23024 3.01259L5.95694 1.61361L2.92025 4.65025L4.31919 6.92355C4.1591 7.24909 4.01995 7.58452 3.90259 7.92779L1.30664 8.54581V12.8402L3.90263 13.4583C4.01999 13.8016 4.15914 14.137 4.31924 14.4626L2.91369 16.7466L5.01923 18.7633C4.79493 19.4357 4.68069 20.14 4.6809 20.8488V24H19.4136V20.8488C19.4136 20.1594 19.3055 19.4801 19.0972 18.8321L21.0688 16.7191L19.6802 14.4626C19.8403 14.1371 19.9795 13.8017 20.0968 13.4584L22.6928 12.8403ZM17.9878 22.5743H6.10664V20.8488C6.10664 19.86 6.38837 18.8971 6.92141 18.0643C7.87561 16.5733 9.50209 15.6832 11.2722 15.6832H12.8222C14.5924 15.6832 16.2189 16.5733 17.1731 18.0642C17.7056 18.8953 17.9884 19.8617 17.9878 20.8488V22.5743ZM12.0472 14.198C10.2293 14.198 8.75021 12.719 8.75021 10.901C8.75021 9.08303 10.2293 7.60396 12.0472 7.60396C13.8652 7.60396 15.3443 9.08303 15.3443 10.901C15.3443 12.719 13.8652 14.198 12.0472 14.198ZM19.2851 16.5408L18.4561 17.4292C18.429 17.3846 18.4022 17.3397 18.3739 17.2957C17.5563 16.0181 16.3514 15.087 14.9643 14.6127C16.0632 13.7472 16.77 12.4051 16.77 10.901C16.77 8.29687 14.6513 6.17822 12.0472 6.17822C9.44307 6.17822 7.32442 8.29687 7.32442 10.901C7.32442 12.4051 8.0312 13.7472 9.13007 14.6127C7.74297 15.087 6.53812 16.0181 5.72046 17.2957C5.6985 17.33 5.67783 17.365 5.65653 17.3996L4.73123 16.5133L5.96397 14.5101L5.03154 12.2616L2.73238 11.7141V9.67195L5.03158 9.12451L5.96402 6.87602L4.72467 4.86211L6.16871 3.41808L8.18266 4.65743L10.4312 3.72499L10.9786 1.42574H13.0208L13.5683 3.72494L15.8168 4.65743L17.8307 3.41808L19.2747 4.86211L18.0354 6.87602L18.9678 9.12451L21.267 9.67195V11.7141L18.9678 12.2616L18.0354 14.5101L19.2851 16.5408Z" fill="#343947"/>
</g>
<defs>
<clipPath id="clip0_705_8012">
<rect width="24" height="24" fill="white"/>
</clipPath>
</defs>
</svg>
