<svg width="24" height="24" viewBox="0 0 24 24" fill="none" xmlns="http://www.w3.org/2000/svg">
<g clip-path="url(#clip0_1465_223)">
<path d="M6.69258 9.41675C6.51912 9.41675 6.3565 9.48473 6.2264 9.62069C6.10714 9.74532 6.03125 9.9266 6.03125 10.1079C6.03125 10.2892 6.0963 10.4591 6.2264 10.5951C6.34565 10.7197 6.51912 10.799 6.69258 10.799H13.7179C13.8913 10.799 14.054 10.731 14.1841 10.5951C14.3033 10.4704 14.3792 10.2892 14.3792 10.1079C14.3792 9.9266 14.3142 9.75665 14.1841 9.62069C14.0648 9.49606 13.8913 9.41675 13.7179 9.41675H6.69258ZM9.84746 13.303H6.69258C6.51912 13.303 6.3565 13.3709 6.2264 13.5069C6.10714 13.6315 6.03125 13.8128 6.03125 13.9941C6.03125 14.1754 6.0963 14.3453 6.2264 14.4813C6.34565 14.6059 6.51912 14.6852 6.69258 14.6852H9.84746C10.0209 14.6852 10.1835 14.6172 10.3136 14.4813C10.4329 14.3566 10.5088 14.1754 10.5088 13.9941C10.5088 13.8128 10.4437 13.6429 10.3136 13.5069C10.1835 13.3709 10.0209 13.303 9.84746 13.303Z" fill="#343947" stroke="#343947" stroke-width="0.3" stroke-miterlimit="10"/>
<path d="M9.90253 21.9591H4.91544C4.39505 21.9591 3.90718 21.7438 3.53857 21.3586C3.16996 20.9734 2.97481 20.4635 2.97481 19.9197V6.06305C2.97481 5.51921 3.1808 5.00935 3.53857 4.62413C3.90718 4.23891 4.39505 4.02364 4.91544 4.02364H6.27063V4.19359C6.27063 4.66945 6.45493 5.13398 6.78018 5.47389C7.10542 5.81379 7.54992 6.0064 8.00527 6.0064H14.2608C14.7162 6.0064 15.1607 5.81379 15.4859 5.47389C15.8112 5.13398 15.9955 4.66945 15.9955 4.19359V4.02364H17.3398C18.424 4.02364 19.2804 4.91871 19.2804 6.06305V9.96059C19.2804 10.1419 19.3455 10.3118 19.4756 10.4478C19.5948 10.5724 19.7683 10.6517 19.9418 10.6517C20.1152 10.6517 20.2779 10.5837 20.408 10.4478C20.5272 10.3231 20.6031 10.1419 20.6031 9.96059V6.06305C20.6031 5.15664 20.2562 4.29556 19.649 3.66108C19.0419 3.02659 18.2071 2.66403 17.3506 2.66403H16.0063V2.49408C16.0063 2.01822 15.822 1.55369 15.4967 1.21379C15.1715 0.873885 14.727 0.681274 14.2717 0.681274H8.01611C7.56077 0.681274 7.11626 0.873885 6.79102 1.21379C6.46577 1.55369 6.28147 2.01822 6.28147 2.49408V2.66403H4.92628C4.05896 2.66403 3.23501 3.02659 2.62788 3.66108C2.02076 4.29556 1.67383 5.16797 1.67383 6.06305V19.9197C1.67383 21.8005 3.13743 23.33 4.92628 23.33H9.91337C10.0868 23.33 10.2495 23.2621 10.3796 23.1261C10.4988 23.0015 10.5747 22.8202 10.5747 22.6389C10.5747 22.4576 10.5097 22.2877 10.3796 22.1517C10.2603 22.0271 10.0868 21.9478 9.91337 21.9478L9.90253 21.9591ZM7.58245 2.48275C7.58245 2.24482 7.76676 2.04088 8.00527 2.04088H14.2608C14.4885 2.04088 14.6836 2.23349 14.6836 2.48275V4.19359C14.6836 4.43152 14.4993 4.63546 14.2608 4.63546H8.00527C7.89685 4.63546 7.78844 4.59014 7.70171 4.51083C7.61497 4.43152 7.58245 4.31822 7.58245 4.19359V2.48275Z" fill="#343947" stroke="#343947" stroke-width="0.3" stroke-miterlimit="10"/>
<path d="M21.8052 13.0764C20.9054 12.136 19.3442 12.136 18.4443 13.0764L12.6333 19.1493C12.449 19.3419 12.3189 19.5911 12.2755 19.8631L11.9611 21.8345C11.9286 22.0384 11.9394 22.2537 12.0045 22.4576C12.0695 22.6616 12.1779 22.8429 12.3189 22.9902C12.4598 23.1374 12.6333 23.2507 12.8284 23.3187C13.0236 23.3867 13.2296 23.398 13.4247 23.364L15.3111 23.0355C15.5713 22.9902 15.8099 22.8655 15.9942 22.6616L21.7944 16.5887C22.2389 16.1241 22.4882 15.4897 22.4882 14.8325C22.4882 14.1754 22.2389 13.5409 21.7944 13.0764H21.8052ZM15.0943 21.6759L13.2621 22.0611L13.5657 20.1123L17.7288 15.7616L19.2358 17.3365L15.0943 21.6759ZM20.8728 15.6256L20.1573 16.3734L18.6503 14.7985L19.3659 14.0507C19.4634 13.9488 19.5827 13.8695 19.7128 13.8128C19.8429 13.7562 19.9838 13.7335 20.1248 13.7335C20.3308 13.7335 20.5368 13.8015 20.7211 13.9261C20.8945 14.0507 21.0355 14.2207 21.1114 14.4246C21.1872 14.6286 21.2089 14.8552 21.1764 15.0704C21.133 15.2857 21.0355 15.4897 20.8837 15.6369L20.8728 15.6256Z" fill="#343947"/>
</g>
<defs>
<clipPath id="clip0_1465_223">
<rect width="21" height="23" fill="white" transform="translate(1.5 0.5)"/>
</clipPath>
</defs>
</svg>
