<svg width="24" height="24" viewBox="0 0 24 24" fill="none" xmlns="http://www.w3.org/2000/svg">
<path d="M8.15559 1.95C5.87247 1.95 4.015 3.80507 4.015 6.0855C4.015 8.36594 5.87247 10.221 8.15559 10.221C10.4387 10.221 12.2962 8.36594 12.2962 6.0855C12.2962 3.80507 10.4387 1.95 8.15559 1.95ZM8.15559 8.83346C6.63837 8.83346 5.40407 7.6006 5.40407 6.08542C5.40407 4.57024 6.63837 3.33738 8.15559 3.33738C9.6728 3.33738 10.9071 4.57024 10.9071 6.08542C10.9071 7.6006 9.6728 8.83346 8.15559 8.83346ZM19.7773 13.12H14.9319C14.7966 13.12 14.6636 13.129 14.5329 13.1451C13.6242 11.7596 12.056 10.8422 10.277 10.8422H6.03405C3.23075 10.8422 0.95 13.1199 0.95 15.92V21.3563C0.95 21.7395 1.26102 22.05 1.64453 22.05H22.3555C22.739 22.05 23.05 21.7395 23.05 21.3563V16.3886C23.05 14.5861 21.5819 13.12 19.7773 13.12ZM11.6593 16.3886V20.6625H2.33906V15.92C2.33906 13.8852 3.99665 12.2297 6.03409 12.2297H10.277C11.45 12.2297 12.497 12.7785 13.1745 13.6327C12.2644 14.2137 11.6593 15.2317 11.6593 16.3886ZM21.6609 20.6625H13.0483V16.3886C13.0483 15.3514 13.8933 14.5074 14.9319 14.5074H19.7773C20.816 14.5074 21.6609 15.3514 21.6609 16.3886V20.6625Z" fill="#343947" stroke="#343947" stroke-width="0.1"/>
<path d="M17.4992 5.35C15.6519 5.35 14.1492 6.85274 14.1492 8.70002C14.1492 10.5473 15.6519 12.05 17.4992 12.05C19.3464 12.05 20.8492 10.5473 20.8492 8.70002C20.8492 6.85278 19.3465 5.35 17.4992 5.35ZM17.4992 10.6576C16.4198 10.6576 15.5416 9.77941 15.5416 8.70007C15.5416 7.62072 16.4198 6.74251 17.4992 6.74251C18.5785 6.74251 19.4567 7.62068 19.4567 8.70007C19.4567 9.77937 18.5785 10.6576 17.4992 10.6576Z" fill="#343947" stroke="#343947" stroke-width="0.1"/>
</svg>
