<svg width="24" height="24" viewBox="0 0 24 24" fill="none" xmlns="http://www.w3.org/2000/svg">
<path fill-rule="evenodd" clip-rule="evenodd" d="M3 5.25C3.19891 5.25 3.38968 5.32902 3.53033 5.46967C3.67098 5.61032 3.75 5.80109 3.75 6V13.5C3.75 13.6989 3.67098 13.8897 3.53033 14.0303C3.38968 14.171 3.19891 14.25 3 14.25C2.80109 14.25 2.61032 14.171 2.46967 14.0303C2.32902 13.8897 2.25 13.6989 2.25 13.5V6C2.25 5.80109 2.32902 5.61032 2.46967 5.46967C2.61032 5.32902 2.80109 5.25 3 5.25ZM12 17.2515C10.7508 17.2515 9.5213 17.5632 8.42293 18.1582C7.32456 18.7533 6.392 19.613 5.70975 20.6595C5.60114 20.8262 5.43077 20.9429 5.23611 20.984C5.04144 21.025 4.83844 20.9871 4.67175 20.8785C4.50506 20.7699 4.38834 20.5995 4.34727 20.4049C4.3062 20.2102 4.34414 20.0072 4.45275 19.8405C5.27125 18.5848 6.39012 17.5532 7.70799 16.8391C9.02587 16.125 10.5011 15.751 12 15.751C13.4989 15.751 14.9741 16.125 16.292 16.8391C17.6099 17.5532 18.7288 18.5848 19.5472 19.8405C19.6559 20.0072 19.6938 20.2102 19.6527 20.4049C19.6117 20.5995 19.4949 20.7699 19.3283 20.8785C19.1616 20.9871 18.9586 21.025 18.7639 20.984C18.5692 20.9429 18.3989 20.8262 18.2902 20.6595C17.608 19.613 16.6754 18.7533 15.5771 18.1582C14.4787 17.5632 13.2492 17.2515 12 17.2515Z" fill="#343947"/>
<path fill-rule="evenodd" clip-rule="evenodd" d="M11.7635 2.28825C11.9174 2.23701 12.0837 2.23701 12.2375 2.28825L21.2375 5.28825C21.387 5.33792 21.5171 5.4334 21.6093 5.56116C21.7015 5.68892 21.7511 5.84246 21.7511 6C21.7511 6.15754 21.7015 6.31108 21.6093 6.43884C21.5171 6.56659 21.387 6.66208 21.2375 6.71175L12.2375 9.71175C12.0837 9.76299 11.9174 9.76299 11.7635 9.71175L2.76354 6.71175C2.61404 6.66208 2.48397 6.56659 2.39179 6.43884C2.29961 6.31108 2.25 6.15754 2.25 6C2.25 5.84246 2.29961 5.68892 2.39179 5.56116C2.48397 5.4334 2.61404 5.33792 2.76354 5.28825L11.7635 2.28825ZM5.37204 6L12.0005 8.2095L18.629 6L12.0005 3.7905L5.37204 6Z" fill="#343947"/>
<path fill-rule="evenodd" clip-rule="evenodd" d="M8.63475 7.15275C8.7074 7.21927 8.76623 7.29946 8.80788 7.38872C8.84954 7.47798 8.8732 7.57458 8.87752 7.67299C8.88183 7.7714 8.86673 7.8697 8.83305 7.96226C8.79937 8.05483 8.74779 8.13986 8.68125 8.2125C8.09156 8.85646 7.70195 9.65808 7.55993 10.5196C7.4179 11.3812 7.5296 12.2654 7.8814 13.0646C8.2332 13.8638 8.80991 14.5433 9.54121 15.0204C10.2725 15.4975 11.1268 15.7516 12 15.7516C12.8732 15.7516 13.7275 15.4975 14.4588 15.0204C15.1901 14.5433 15.7668 13.8638 16.1186 13.0646C16.4704 12.2654 16.5821 11.3812 16.4401 10.5196C16.2981 9.65808 15.9084 8.85646 15.3188 8.2125C15.2498 8.14031 15.1959 8.05507 15.1602 7.96178C15.1246 7.86849 15.108 7.76903 15.1113 7.66923C15.1147 7.56942 15.1379 7.47129 15.1797 7.38059C15.2214 7.28988 15.2809 7.20843 15.3545 7.14101C15.4282 7.07359 15.5146 7.02156 15.6086 6.98797C15.7027 6.95438 15.8025 6.93991 15.9022 6.9454C16.0019 6.9509 16.0995 6.97625 16.1893 7.01997C16.279 7.06368 16.3592 7.12489 16.425 7.2C17.2113 8.05862 17.7307 9.12744 17.9201 10.2762C18.1095 11.4249 17.9605 12.6039 17.4915 13.6695C17.0224 14.735 16.2535 15.6411 15.2784 16.2772C14.3033 16.9134 13.1642 17.2521 12 17.2521C10.8358 17.2521 9.69669 16.9134 8.72161 16.2772C7.74654 15.6411 6.9776 14.735 6.50853 13.6695C6.03947 12.6039 5.89054 11.4249 6.0799 10.2762C6.26927 9.12744 6.78874 8.05862 7.575 7.2C7.64148 7.1273 7.72162 7.06841 7.81086 7.02669C7.9001 6.98497 7.99668 6.96124 8.09509 6.95685C8.1935 6.95246 8.29181 6.9675 8.38441 7.00111C8.47701 7.03473 8.56207 7.08625 8.63475 7.15275Z" fill="#343947"/>
</svg>
