<svg width="24" height="24" viewBox="0 0 24 24" fill="none" xmlns="http://www.w3.org/2000/svg">
<path d="M21.3613 8.18242C21.2188 8.29043 18.7031 9.67537 18.7031 12.7549C18.7031 16.3168 21.9042 17.577 22 17.6082C21.9853 17.685 21.4915 19.3339 20.3122 21.0141C19.2608 22.4926 18.1626 23.9688 16.4921 23.9688C14.8215 23.9688 14.3916 23.0207 12.4631 23.0207C10.5837 23.0207 9.91549 24 8.38742 24C6.85935 24 5.79315 22.6319 4.56725 20.9517C3.14728 18.9787 2 15.9136 2 13.0045C2 8.33843 5.10527 5.86379 8.16141 5.86379C9.78528 5.86379 11.1389 6.90549 12.1585 6.90549C13.1289 6.90549 14.6422 5.80138 16.4896 5.80138C17.1898 5.80138 19.7054 5.86379 21.3613 8.18242ZM15.6126 3.82598C16.3766 2.94029 16.9171 1.71137 16.9171 0.482448C16.9171 0.312031 16.9023 0.139214 16.8704 0C15.6273 0.0456046 14.1484 0.808881 13.2566 1.81938C12.5564 2.59706 11.903 3.82598 11.903 5.07171C11.903 5.25893 11.9349 5.44614 11.9496 5.50615C12.0283 5.52055 12.156 5.53735 12.2837 5.53735C13.3991 5.53735 14.8019 4.80768 15.6126 3.82598Z" fill="black"/>
</svg>
