<svg width="162" height="48" viewBox="0 0 162 48" fill="none" xmlns="http://www.w3.org/2000/svg">
<g clip-path="url(#clip0_349_268)">
<path d="M156.236 48H5.6748C2.5464 48 0 45.4464 0 42.3204V5.6712C0 2.544 2.5464 0 5.6748 0H156.236C159.364 0 162 2.544 162 5.6712V42.3204C162 45.4464 159.364 48 156.236 48Z" fill="#A6A6A6"/>
<path d="M160.838 42.3217C160.838 44.8609 158.782 46.9177 156.238 46.9177H5.67479C3.13199 46.9177 1.06799 44.8609 1.06799 42.3217V5.67012C1.06799 3.13212 3.13199 1.06812 5.67479 1.06812H156.236C158.782 1.06812 160.837 3.13212 160.837 5.67012L160.838 42.3217Z" fill="black"/>
<path d="M36.1537 23.7409C36.1189 19.8733 39.3205 17.9917 39.4669 17.9041C37.6537 15.2605 34.8433 14.8993 33.8557 14.8705C31.4953 14.6221 29.2057 16.2829 28.0033 16.2829C26.7769 16.2829 24.9253 14.8945 22.9297 14.9353C20.3617 14.9749 17.9593 16.4617 16.6417 18.7705C13.9225 23.4781 15.9505 30.3961 18.5557 34.2013C19.8589 36.0649 21.3817 38.1457 23.3749 38.0725C25.3249 37.9921 26.0533 36.8293 28.4065 36.8293C30.7381 36.8293 31.4221 38.0725 33.4549 38.0257C35.5477 37.9921 36.8653 36.1537 38.1229 34.2733C39.6289 32.1373 40.2337 30.0337 40.2577 29.9257C40.2085 29.9089 36.1933 28.3765 36.1537 23.7409Z" fill="white"/>
<path d="M32.3137 12.3672C33.3625 11.0556 34.0801 9.27125 33.8809 7.46045C32.3629 7.52765 30.4645 8.51045 29.3713 9.79325C28.4041 10.9236 27.5401 12.7764 27.7633 14.5188C29.4685 14.646 31.2193 13.6584 32.3137 12.3672Z" fill="white"/>
<path d="M64.374 37.8046H61.6488L60.156 33.1138H54.9672L53.5452 37.8046H50.892L56.0328 21.835H59.208L64.374 37.8046ZM59.706 31.1458L58.356 26.9758C58.2132 26.5498 57.9456 25.5466 57.5508 23.9674H57.5028C57.3456 24.6466 57.0924 25.6498 56.7444 26.9758L55.4184 31.1458H59.706Z" fill="white"/>
<path d="M77.5943 31.9056C77.5943 33.864 77.0651 35.412 76.0067 36.5484C75.0587 37.56 73.8815 38.0652 72.4763 38.0652C70.9595 38.0652 69.8699 37.5204 69.2063 36.4308H69.1583V42.4968H66.5999V30.0804C66.5999 28.8492 66.5675 27.5856 66.5051 26.2896H68.7551L68.8979 28.1148H68.9459C69.7991 26.7396 71.0939 26.0532 72.8315 26.0532C74.1899 26.0532 75.3239 26.5896 76.2311 27.6636C77.1407 28.7388 77.5943 30.1524 77.5943 31.9056ZM74.9879 31.9992C74.9879 30.8784 74.7359 29.9544 74.2295 29.2272C73.6763 28.4688 72.9335 28.0896 72.0023 28.0896C71.3711 28.0896 70.7975 28.3008 70.2851 28.7172C69.7715 29.1372 69.4355 29.6856 69.2783 30.3648C69.1991 30.6816 69.1595 30.9408 69.1595 31.1448V33.0648C69.1595 33.9024 69.4163 34.6092 69.9299 35.1864C70.4435 35.7636 71.1107 36.0516 71.9315 36.0516C72.8951 36.0516 73.6451 35.6796 74.1815 34.938C74.7191 34.1952 74.9879 33.216 74.9879 31.9992Z" fill="white"/>
<path d="M90.8387 31.9056C90.8387 33.864 90.3095 35.412 89.2499 36.5484C88.3031 37.56 87.1259 38.0652 85.7207 38.0652C84.2039 38.0652 83.1143 37.5204 82.4519 36.4308H82.4039V42.4968H79.8455V30.0804C79.8455 28.8492 79.8131 27.5856 79.7507 26.2896H82.0007L82.1435 28.1148H82.1915C83.0435 26.7396 84.3383 26.0532 86.0771 26.0532C87.4343 26.0532 88.5683 26.5896 89.4779 27.6636C90.3839 28.7388 90.8387 30.1524 90.8387 31.9056ZM88.2323 31.9992C88.2323 30.8784 87.9791 29.9544 87.4727 29.2272C86.9195 28.4688 86.1791 28.0896 85.2467 28.0896C84.6143 28.0896 84.0419 28.3008 83.5283 28.7172C83.0147 29.1372 82.6799 29.6856 82.5227 30.3648C82.4447 30.6816 82.4039 30.9408 82.4039 31.1448V33.0648C82.4039 33.9024 82.6607 34.6092 83.1719 35.1864C83.6855 35.7624 84.3527 36.0516 85.1759 36.0516C86.1395 36.0516 86.8895 35.6796 87.4259 34.938C87.9635 34.1952 88.2323 33.216 88.2323 31.9992Z" fill="white"/>
<path d="M105.647 33.3263C105.647 34.6847 105.175 35.7899 104.228 36.6431C103.188 37.5755 101.74 38.0411 99.8783 38.0411C98.1599 38.0411 96.7823 37.7099 95.7395 37.0463L96.3323 34.9139C97.4555 35.5931 98.6879 35.9339 100.031 35.9339C100.994 35.9339 101.744 35.7155 102.283 35.2811C102.82 34.8467 103.087 34.2635 103.087 33.5363C103.087 32.8883 102.866 32.3423 102.424 31.8995C101.983 31.4567 101.248 31.0451 100.22 30.6647C97.4243 29.6219 96.0275 28.0943 96.0275 26.0855C96.0275 24.7727 96.5171 23.6963 97.4975 22.8587C98.4743 22.0199 99.7775 21.6011 101.407 21.6011C102.86 21.6011 104.068 21.8543 105.031 22.3595L104.392 24.4451C103.492 23.9555 102.474 23.7107 101.335 23.7107C100.435 23.7107 99.7319 23.9327 99.2279 24.3743C98.8019 24.7691 98.5883 25.2503 98.5883 25.8203C98.5883 26.4515 98.8319 26.9735 99.3215 27.3839C99.7475 27.7631 100.522 28.1735 101.645 28.6163C103.019 29.1695 104.028 29.8163 104.677 30.5579C105.324 31.2971 105.647 32.2223 105.647 33.3263Z" fill="white"/>
<path d="M114.106 28.2096H111.286V33.8004C111.286 35.2224 111.782 35.9328 112.778 35.9328C113.236 35.9328 113.615 35.8932 113.915 35.814L113.986 37.7568C113.482 37.9452 112.818 38.04 111.996 38.04C110.986 38.04 110.196 37.7316 109.626 37.116C109.058 36.4992 108.773 35.4648 108.773 34.0116V28.2072H107.093V26.2872H108.773V24.1788L111.286 23.4204V26.2872H114.106V28.2096Z" fill="white"/>
<path d="M126.829 31.9522C126.829 33.7222 126.323 35.1754 125.312 36.3118C124.253 37.4818 122.846 38.065 121.093 38.065C119.404 38.065 118.058 37.5046 117.055 36.3838C116.052 35.263 115.55 33.8482 115.55 32.143C115.55 30.3586 116.066 28.897 117.102 27.7606C118.135 26.623 119.53 26.0542 121.283 26.0542C122.972 26.0542 124.332 26.6146 125.358 27.7366C126.34 28.825 126.829 30.2302 126.829 31.9522ZM124.175 32.035C124.175 30.973 123.948 30.0622 123.488 29.3026C122.952 28.3834 122.185 27.925 121.192 27.925C120.163 27.925 119.382 28.3846 118.846 29.3026C118.386 30.0634 118.159 30.9886 118.159 32.083C118.159 33.145 118.386 34.0558 118.846 34.8142C119.399 35.7334 120.172 36.1918 121.169 36.1918C122.146 36.1918 122.912 35.7238 123.466 34.7902C123.937 34.0162 124.175 33.0958 124.175 32.035Z" fill="white"/>
<path d="M135.145 28.5396C134.892 28.4928 134.622 28.4688 134.339 28.4688C133.439 28.4688 132.743 28.8084 132.253 29.4888C131.827 30.0888 131.614 30.8472 131.614 31.7628V37.8048H129.056L129.08 29.916C129.08 28.5888 129.048 27.3804 128.984 26.2908H131.213L131.306 28.494H131.377C131.647 27.7368 132.073 27.1272 132.656 26.67C133.226 26.2584 133.842 26.0532 134.506 26.0532C134.742 26.0532 134.956 26.07 135.145 26.1V28.5396Z" fill="white"/>
<path d="M146.587 31.5021C146.587 31.9605 146.557 32.3468 146.494 32.6624H138.818C138.848 33.8 139.219 34.67 139.932 35.2701C140.579 35.8064 141.415 36.0752 142.442 36.0752C143.579 36.0752 144.616 35.894 145.548 35.5304L145.949 37.3064C144.859 37.7817 143.573 38.018 142.088 38.018C140.303 38.018 138.901 37.4924 137.881 36.4424C136.864 35.3924 136.354 33.9824 136.354 32.2136C136.354 30.4772 136.828 29.0312 137.777 27.878C138.77 26.6468 140.113 26.0312 141.803 26.0312C143.462 26.0312 144.719 26.6468 145.572 27.878C146.248 28.856 146.587 30.0656 146.587 31.5021ZM144.148 30.8384C144.164 30.08 143.998 29.4248 143.651 28.8716C143.208 28.16 142.528 27.8048 141.612 27.8048C140.776 27.8048 140.095 28.1517 139.576 28.8477C139.15 29.4009 138.896 30.0644 138.818 30.8372L144.148 30.8384Z" fill="white"/>
<path d="M58.8601 12.0107C58.8601 13.4231 58.4365 14.4863 57.5905 15.2003C56.8069 15.8591 55.6933 16.1891 54.2509 16.1891C53.5357 16.1891 52.9237 16.1579 52.4113 16.0955V8.37829C53.0797 8.27029 53.7997 8.21509 54.5773 8.21509C55.9513 8.21509 56.9869 8.51389 57.6853 9.11149C58.4677 9.78709 58.8601 10.7531 58.8601 12.0107ZM57.5341 12.0455C57.5341 11.1299 57.2917 10.4279 56.8069 9.93829C56.3221 9.44989 55.6141 9.20509 54.6817 9.20509C54.2857 9.20509 53.9485 9.23149 53.6689 9.28669V15.1535C53.8237 15.1775 54.1069 15.1883 54.5185 15.1883C55.4809 15.1883 56.2237 14.9207 56.7469 14.3855C57.2701 13.8503 57.5341 13.0703 57.5341 12.0455Z" fill="white"/>
<path d="M65.8909 13.2445C65.8909 14.1145 65.6425 14.8273 65.1457 15.3865C64.6249 15.9613 63.9349 16.2481 63.0733 16.2481C62.2429 16.2481 61.5817 15.9733 61.0885 15.4213C60.5965 14.8705 60.3505 14.1757 60.3505 13.3381C60.3505 12.4621 60.6037 11.7433 61.1125 11.1853C61.6213 10.6273 62.3053 10.3477 63.1669 10.3477C63.9973 10.3477 64.6645 10.6225 65.1697 11.1733C65.6497 11.7085 65.8909 12.3997 65.8909 13.2445ZM64.5865 13.2853C64.5865 12.7633 64.4737 12.3157 64.2493 11.9425C63.9853 11.4913 63.6097 11.2657 63.1213 11.2657C62.6161 11.2657 62.2321 11.4913 61.9681 11.9425C61.7425 12.3157 61.6309 12.7705 61.6309 13.3081C61.6309 13.8301 61.7437 14.2777 61.9681 14.6509C62.2405 15.1021 62.6197 15.3277 63.1093 15.3277C63.5893 15.3277 63.9661 15.0985 64.2373 14.6389C64.4701 14.2585 64.5865 13.8073 64.5865 13.2853Z" fill="white"/>
<path d="M75.3181 10.4629L73.5481 16.1197H72.3961L71.6629 13.6633C71.4769 13.0501 71.3257 12.4405 71.2081 11.8357H71.1853C71.0761 12.4573 70.9249 13.0657 70.7305 13.6633L69.9517 16.1197H68.7865L67.1221 10.4629H68.4145L69.0541 13.1521C69.2089 13.7881 69.3361 14.3941 69.4381 14.9677H69.4609C69.5545 14.4949 69.7093 13.8925 69.9277 13.1641L70.7305 10.4641H71.7553L72.5245 13.1065C72.7105 13.7509 72.8617 14.3713 72.9781 14.9689H73.0129C73.0981 14.3869 73.2265 13.7665 73.3969 13.1065L74.0833 10.4641H75.3181V10.4629Z" fill="white"/>
<path d="M81.8377 16.1196H80.5801V12.8796C80.5801 11.8812 80.2009 11.382 79.4401 11.382C79.0669 11.382 78.7657 11.5188 78.5317 11.7936C78.3001 12.0684 78.1825 12.3924 78.1825 12.7632V16.1184H76.9249V12.0792C76.9249 11.5824 76.9093 11.0436 76.8793 10.4604H77.9845L78.0433 11.3448H78.0781C78.2245 11.07 78.4429 10.8432 78.7297 10.662C79.0705 10.4508 79.4521 10.344 79.8697 10.344C80.3977 10.344 80.8369 10.5144 81.1861 10.8564C81.6205 11.2752 81.8377 11.9004 81.8377 12.7308V16.1196Z" fill="white"/>
<path d="M85.3057 16.1196H84.0493V7.86719H85.3057V16.1196Z" fill="white"/>
<path d="M92.7097 13.2445C92.7097 14.1145 92.4613 14.8273 91.9645 15.3865C91.4437 15.9613 90.7525 16.2481 89.8921 16.2481C89.0605 16.2481 88.3993 15.9733 87.9073 15.4213C87.4153 14.8705 87.1693 14.1757 87.1693 13.3381C87.1693 12.4621 87.4225 11.7433 87.9313 11.1853C88.4401 10.6273 89.1241 10.3477 89.9845 10.3477C90.8161 10.3477 91.4821 10.6225 91.9885 11.1733C92.4685 11.7085 92.7097 12.3997 92.7097 13.2445ZM91.4041 13.2853C91.4041 12.7633 91.2913 12.3157 91.0669 11.9425C90.8041 11.4913 90.4273 11.2657 89.9401 11.2657C89.4337 11.2657 89.0497 11.4913 88.7869 11.9425C88.5613 12.3157 88.4497 12.7705 88.4497 13.3081C88.4497 13.8301 88.5625 14.2777 88.7869 14.6509C89.0593 15.1021 89.4385 15.3277 89.9281 15.3277C90.4081 15.3277 90.7837 15.0985 91.0549 14.6389C91.2889 14.2585 91.4041 13.8073 91.4041 13.2853Z" fill="white"/>
<path d="M98.7961 16.1197H97.6669L97.5733 15.4681H97.5385C97.1521 15.9877 96.6013 16.2481 95.8861 16.2481C95.3521 16.2481 94.9201 16.0765 94.5949 15.7357C94.2997 15.4261 94.1521 15.0409 94.1521 14.5837C94.1521 13.8925 94.4401 13.3657 95.0197 13.0009C95.5981 12.6361 96.4117 12.4573 97.4593 12.4657V12.3601C97.4593 11.6149 97.0681 11.2429 96.2845 11.2429C95.7265 11.2429 95.2345 11.3833 94.8097 11.6617L94.5541 10.8361C95.0797 10.5109 95.7289 10.3477 96.4945 10.3477C97.9729 10.3477 98.7145 11.1277 98.7145 12.6877V14.7709C98.7145 15.3361 98.7421 15.7861 98.7961 16.1197ZM97.4905 14.1757V13.3033C96.1033 13.2793 95.4097 13.6597 95.4097 14.4433C95.4097 14.7385 95.4889 14.9593 95.6509 15.1069C95.8129 15.2545 96.0193 15.3277 96.2653 15.3277C96.5413 15.3277 96.7993 15.2401 97.0345 15.0661C97.2709 14.8909 97.4161 14.6689 97.4701 14.3965C97.4833 14.3353 97.4905 14.2609 97.4905 14.1757Z" fill="white"/>
<path d="M105.942 16.1196H104.826L104.767 15.2112H104.733C104.376 15.9024 103.769 16.248 102.916 16.248C102.234 16.248 101.667 15.9804 101.217 15.4452C100.767 14.91 100.542 14.2152 100.542 13.362C100.542 12.4464 100.786 11.7048 101.275 11.1384C101.749 10.6104 102.33 10.3464 103.021 10.3464C103.781 10.3464 104.313 10.602 104.615 11.1144H104.639V7.86719H105.898V14.5956C105.898 15.1464 105.912 15.654 105.942 16.1196ZM104.639 13.734V12.7908C104.639 12.6276 104.627 12.4956 104.604 12.3948C104.533 12.0924 104.381 11.838 104.149 11.6328C103.915 11.4276 103.633 11.3244 103.308 11.3244C102.839 11.3244 102.472 11.5104 102.202 11.8836C101.934 12.2568 101.799 12.7332 101.799 13.3152C101.799 13.8744 101.927 14.328 102.185 14.6772C102.457 15.0492 102.825 15.2352 103.284 15.2352C103.697 15.2352 104.027 15.0804 104.278 14.7696C104.52 14.4828 104.639 14.1372 104.639 13.734Z" fill="white"/>
<path d="M116.698 13.2445C116.698 14.1145 116.449 14.8273 115.952 15.3865C115.432 15.9613 114.743 16.2481 113.88 16.2481C113.051 16.2481 112.39 15.9733 111.895 15.4213C111.403 14.8705 111.157 14.1757 111.157 13.3381C111.157 12.4621 111.41 11.7433 111.919 11.1853C112.428 10.6273 113.112 10.3477 113.975 10.3477C114.804 10.3477 115.472 10.6225 115.976 11.1733C116.456 11.7085 116.698 12.3997 116.698 13.2445ZM115.394 13.2853C115.394 12.7633 115.282 12.3157 115.057 11.9425C114.792 11.4913 114.418 11.2657 113.928 11.2657C113.424 11.2657 113.04 11.4913 112.775 11.9425C112.549 12.3157 112.438 12.7705 112.438 13.3081C112.438 13.8301 112.55 14.2777 112.775 14.6509C113.047 15.1021 113.426 15.3277 113.916 15.3277C114.396 15.3277 114.774 15.0985 115.045 14.6389C115.277 14.2585 115.394 13.8073 115.394 13.2853Z" fill="white"/>
<path d="M123.46 16.1196H122.203V12.8796C122.203 11.8812 121.824 11.382 121.062 11.382C120.689 11.382 120.388 11.5188 120.155 11.7936C119.922 12.0684 119.806 12.3924 119.806 12.7632V16.1184H118.547V12.0792C118.547 11.5824 118.532 11.0436 118.502 10.4604H119.606L119.665 11.3448H119.7C119.848 11.07 120.066 10.8432 120.352 10.662C120.694 10.4508 121.074 10.344 121.493 10.344C122.02 10.344 122.459 10.5144 122.808 10.8564C123.244 11.2752 123.46 11.9004 123.46 12.7308V16.1196Z" fill="white"/>
<path d="M131.923 11.4048H130.538V14.1528C130.538 14.8512 130.784 15.2004 131.272 15.2004C131.497 15.2004 131.684 15.1812 131.832 15.1416L131.864 16.0956C131.616 16.1892 131.29 16.236 130.888 16.236C130.391 16.236 130.004 16.0848 129.725 15.7824C129.444 15.48 129.305 14.9712 129.305 14.2572V11.4048H128.478V10.4628H129.305V9.42596L130.537 9.05396V10.4616H131.922L131.923 11.4048Z" fill="white"/>
<path d="M138.581 16.1196H137.322V12.9036C137.322 11.8896 136.943 11.382 136.183 11.382C135.6 11.382 135.202 11.676 134.983 12.264C134.946 12.3876 134.924 12.5388 134.924 12.7164V16.1184H133.668V7.86719H134.924V11.2764H134.948C135.344 10.656 135.912 10.3464 136.648 10.3464C137.168 10.3464 137.599 10.5168 137.941 10.8588C138.367 11.2848 138.581 11.9184 138.581 12.756V16.1196Z" fill="white"/>
<path d="M145.448 13.0235C145.448 13.2491 145.432 13.4387 145.402 13.5935H141.63C141.647 14.1527 141.827 14.5787 142.176 14.8739C142.495 15.1379 142.907 15.2699 143.411 15.2699C143.969 15.2699 144.478 15.1811 144.936 15.0023L145.133 15.8759C144.596 16.1087 143.965 16.2251 143.234 16.2251C142.358 16.2251 141.668 15.9671 141.169 15.4511C140.668 14.9351 140.419 14.2427 140.419 13.3739C140.419 12.5207 140.651 11.8103 141.118 11.2439C141.605 10.6391 142.264 10.3367 143.095 10.3367C143.909 10.3367 144.527 10.6391 144.944 11.2439C145.282 11.7239 145.448 12.3179 145.448 13.0235ZM144.248 12.6983C144.258 12.3251 144.175 12.0035 144.005 11.7323C143.786 11.3831 143.454 11.2079 143.004 11.2079C142.594 11.2079 142.259 11.3783 142.003 11.7203C141.794 11.9927 141.671 12.3179 141.63 12.6983H144.248Z" fill="white"/>
</g>
<defs>
<clipPath id="clip0_349_268">
<rect width="162" height="48" fill="white"/>
</clipPath>
</defs>
</svg>
