<svg width="28" height="28" viewBox="0 0 28 28" fill="none" xmlns="http://www.w3.org/2000/svg">
<path d="M14.0001 25.7273C13.3456 25.7273 12.7019 25.5745 12.1783 25.28L7.01828 22.3018C4.8801 20.8618 4.73828 20.6 4.73828 18.3418V12.9309C4.73828 10.6727 4.8801 10.4109 6.97464 9.00363L12.1892 5.99272C13.2256 5.39272 14.7856 5.39272 15.8219 5.99272L20.9819 8.97091C23.1201 10.4109 23.2619 10.6727 23.2619 12.9309V18.3418C23.2619 20.6 23.1201 20.8618 21.0256 22.2691L15.811 25.28C15.2983 25.5855 14.6437 25.7273 14.0001 25.7273ZM14.0001 7.18182C13.6292 7.18182 13.2583 7.25818 12.9965 7.41091L7.83646 10.3891C6.37464 11.3818 6.37465 11.3818 6.37465 12.9309V18.3418C6.37465 19.8909 6.37465 19.8909 7.89101 20.9164L13.0074 23.8618C13.531 24.1673 14.4801 24.1673 15.0037 23.8618L20.1637 20.8836C21.6256 19.8909 21.6256 19.8909 21.6256 18.3418V12.9309C21.6256 11.3818 21.6256 11.3818 20.1092 10.3564L14.9928 7.41091C14.7419 7.25818 14.371 7.18182 14.0001 7.18182Z" fill="#869BB9"/>
<path d="M20.0018 10.0509C19.5545 10.0509 19.1836 9.67999 19.1836 9.23272L18.0017 7.99999C17.5017 6.99999 16.7253 6.99999 15.0017 6.99999H12.5017C10.7781 6.99999 11.0017 7.49999 10.5017 7.99999L8.81996 9.15636C8.81996 9.60363 8.44905 9.97454 8.00178 9.97454C7.5545 9.97454 7.18359 9.61454 7.18359 9.15636V6.36363C7.18359 3.72363 8.6345 2.27272 11.2745 2.27272H16.729C19.369 2.27272 20.82 3.72363 20.82 6.36363V9.23272C20.82 9.67999 20.449 10.0509 20.0018 10.0509Z" fill="#869BB9"/>
<path d="M15.7795 20.1418C15.5504 20.1418 15.3104 20.0982 15.0704 20L14.0013 19.5855L12.9322 20.0109C12.3541 20.24 11.765 20.1855 11.3286 19.8691C10.8922 19.5527 10.6631 19.0073 10.6959 18.3855L10.7613 17.24L10.0304 16.3564C9.63769 15.8655 9.50678 15.2982 9.68132 14.7745C9.84496 14.2618 10.2922 13.8691 10.8922 13.7164L12.005 13.4327L12.6268 12.4618C13.2922 11.4145 14.7213 11.4145 15.3868 12.4618L16.0086 13.4327L17.1213 13.7164C17.7213 13.8691 18.1686 14.2618 18.3322 14.7745C18.4959 15.2873 18.365 15.8655 17.9722 16.3455L17.2413 17.2291L17.3068 18.3745C17.3395 18.9964 17.1104 19.5309 16.6741 19.8582C16.4122 20.0436 16.1068 20.1418 15.7795 20.1418ZM11.2959 15.3091L12.0268 16.1927C12.2777 16.4873 12.4195 16.9564 12.3977 17.3382L12.3322 18.4836L13.4013 18.0582C13.7613 17.9164 14.2413 17.9164 14.6013 18.0582L15.6704 18.4836L15.605 17.3382C15.5831 16.9564 15.725 16.4982 15.9759 16.1927L16.7068 15.3091L15.5941 15.0255C15.2231 14.9273 14.8304 14.6436 14.6231 14.3273L14.0122 13.3673L13.3904 14.3273C13.1831 14.6545 12.7904 14.9382 12.4195 15.0364L11.2959 15.3091Z" fill="#869BB9"/>
</svg>
