<svg width="18" height="20" viewBox="0 0 18 20" fill="none" xmlns="http://www.w3.org/2000/svg">
<path fill-rule="evenodd" clip-rule="evenodd" d="M15.588 7.86766C14.7294 8.10158 13.8251 8.11237 12.9611 7.89901C12.0972 7.68565 11.3024 7.25523 10.6524 6.64876C10.0025 6.04229 9.51902 5.27995 9.24812 4.43437C8.97721 3.58878 8.92787 2.6881 9.10479 1.81812H9.00063C5.63713 1.81812 2.80697 4.40499 2.41739 7.83753L2.05802 11C1.97039 11.7822 1.65129 12.5207 1.14137 13.1214C0.0653407 14.3847 0.939286 16.3628 2.57364 16.3628H15.4276C17.063 16.3628 17.9359 14.3847 16.8588 13.1214C16.3493 12.5206 16.0306 11.7821 15.9432 11L15.588 7.86766Z" fill="#000F5B"/>
<path d="M9.00074 19.9999C10.4132 19.9999 11.6205 19.1688 12.0965 17.9948V17.9969C12.1218 17.9304 12.1305 17.8588 12.122 17.7882C12.1134 17.7176 12.0878 17.6502 12.0473 17.5916C12.0069 17.5331 11.9528 17.4852 11.8897 17.4521C11.8266 17.419 11.7564 17.4017 11.6851 17.4016H6.3164C6.24524 17.4018 6.17517 17.4191 6.11219 17.4521C6.04921 17.4852 5.9952 17.5329 5.95476 17.5914C5.91432 17.6498 5.88867 17.7171 5.87999 17.7875C5.87132 17.8579 5.87988 17.9294 5.90495 17.9959C6.38098 19.1688 7.58826 19.9999 9.00074 19.9999Z" fill="#869BB9"/>
<path d="M16.0098 4.6555C16.5226 4.14406 16.8107 3.4504 16.8107 2.72713C16.8107 2.00385 16.5226 1.31019 16.0098 0.798757C15.4971 0.287321 14.8016 0 14.0764 0C13.3512 0 12.6557 0.287321 12.1429 0.798757C11.6301 1.31019 11.342 2.00385 11.342 2.72713C11.342 3.4504 11.6301 4.14406 12.1429 4.6555C12.6557 5.16693 13.3512 5.45425 14.0764 5.45425C14.8016 5.45425 15.4971 5.16693 16.0098 4.6555Z" fill="#FB4646"/>
</svg>
