<svg width="32" height="32" viewBox="0 0 32 32"  fill="#3573F9" xmlns="http://www.w3.org/2000/svg"
    xmlns:xlink="http://www.w3.org/1999/xlink">
    <path
        d="M1.20797e-06 16C8.21708e-07 24.8366 7.16344 32 16 32C24.8366 32 32 24.8366 32 16C32 7.16344 24.8366 -3.13124e-07 16 -6.99382e-07C7.16344 -1.08564e-06 1.59422e-06 7.16344 1.20797e-06 16Z"
        fill="url(#pattern0_535_3355)" />
    <path
        d="M1.20797e-06 16C8.21708e-07 24.8366 7.16344 32 16 32C24.8366 32 32 24.8366 32 16C32 7.16344 24.8366 -3.13124e-07 16 -6.99382e-07C7.16344 -1.08564e-06 1.59422e-06 7.16344 1.20797e-06 16Z"
        />
    <path fill-rule="evenodd" clip-rule="evenodd"
        d="M22.4834 14.5457L8.72983 14.5457C8.32787 14.5457 8.00195 14.8938 8.00195 15.3094L8.00195 16.6794C8.00195 17.0949 8.32787 17.443 8.72983 17.443L22.4834 17.443C22.5813 17.4431 22.6782 17.4229 22.7686 17.3839C22.8589 17.3448 22.9409 17.2875 23.0096 17.2154C23.0783 17.1433 23.1325 17.0578 23.169 16.9639C23.2055 16.8699 23.2235 16.7694 23.2221 16.6682L23.2221 15.3206C23.2221 15.1181 23.1443 14.9238 23.0057 14.7806C22.8672 14.6374 22.6793 14.5457 22.4834 14.5457Z"
        fill="white" />
    <path fill-rule="evenodd" clip-rule="evenodd"
        d="M15.888 11.2778L21.8088 17.3981C21.9468 17.5374 22.132 17.6153 22.3248 17.6153C22.5177 17.6153 22.7029 17.5374 22.8408 17.3981L23.786 16.4211C23.924 16.278 24.0015 16.0842 24.0015 15.8821C24.0015 15.68 23.924 15.4862 23.786 15.3431L17.8652 9.22273C17.7268 9.08009 17.5393 9 17.3438 9C17.1483 9 16.9608 9.08009 16.8223 9.22273L15.8772 10.1997C15.5947 10.4917 15.5947 10.9858 15.8772 11.2666L15.888 11.2778Z"
        fill="white" />
    <path fill-rule="evenodd" clip-rule="evenodd"
        d="M15.8891 20.7109L21.799 14.6018C21.937 14.4626 22.1222 14.3846 22.3151 14.3846C22.5079 14.3846 22.6931 14.4626 22.8311 14.6018L23.7762 15.5788C23.9142 15.722 23.9917 15.9158 23.9917 16.1179C23.9917 16.32 23.9142 16.5138 23.7762 16.6569L17.8555 22.7772C17.717 22.9199 17.5295 23 17.334 23C17.1385 23 16.951 22.9199 16.8126 22.7772L15.8674 21.8002C15.7327 21.6576 15.6573 21.4662 15.6573 21.2668C15.6573 21.0675 15.7327 20.876 15.8674 20.7334L15.8891 20.7109Z"
        fill="white" />
    <defs>
        <pattern id="pattern0_535_3355" patternContentUnits="objectBoundingBox" width="1" height="1">
            <use xlink:href="#image0_535_3355" transform="translate(-0.510526) scale(0.00105263)" />
        </pattern>
    </defs>
</svg>