<svg width="24" height="20" viewBox="0 0 24 20" fill="none" xmlns="http://www.w3.org/2000/svg">
<path d="M21.8438 14.331H14.8125C13.6636 14.331 12.6417 14.8894 12 15.7511C11.3583 14.8894 10.3364 14.331 9.1875 14.331H2.15625C1.76813 14.331 1.45312 14.6484 1.45312 15.0396V15.7483H7.34953C8.99447 15.7483 10.6309 16.0767 12 16.9965C13.3687 16.0769 15.0049 15.7483 16.6505 15.7483H22.5469V15.0396C22.5469 14.6484 22.2319 14.331 21.8438 14.331ZM10.6803 19.5329C9.90108 18.9026 8.78034 18.583 7.3493 18.583H0.703125C0.314812 18.583 0 18.2657 0 17.8743C0 17.4829 0.314812 17.1656 0.703125 17.1656H7.3493C9.10847 17.1656 10.5254 17.5902 11.5605 18.4276C11.6852 18.5283 11.8402 18.5833 12 18.5833C12.1598 18.5833 12.3148 18.5283 12.4395 18.4276C13.4746 17.5902 14.8915 17.1656 16.6507 17.1656H23.2969C23.6852 17.1656 24 17.4829 24 17.8743C24 18.2657 23.6852 18.583 23.2969 18.583H16.6507C15.2197 18.583 14.0989 18.9026 13.3196 19.5329C12.5539 20.1524 11.4543 20.159 10.6803 19.5329Z" fill="#869BB9"/>
<path d="M16.9222 9.21269V7.17173L12.5797 8.42229C12.201 8.53127 11.7996 8.53127 11.4209 8.42229L7.07843 7.17173V9.21269C7.07844 9.34431 7.11479 9.47333 7.18342 9.5853C7.25205 9.69728 7.35025 9.78779 7.46703 9.84671L10.5767 11.4133C10.9204 11.5866 11.2364 11.8109 11.5142 12.0785C11.7861 12.3403 12.2145 12.3403 12.4864 12.0785C12.7642 11.8109 13.0802 11.5866 13.4239 11.4133L16.5336 9.84671C16.7717 9.72671 16.9222 9.48104 16.9222 9.21269Z" fill="#869BB9"/>
<path d="M19.7347 10.63V6.36196L18.3284 6.76684V10.63C18.3284 11.0212 18.6434 11.3387 19.0316 11.3387C19.4197 11.3387 19.7347 11.0212 19.7347 10.63Z" fill="#869BB9"/>
<path d="M1.96338 4.22476L11.8071 7.05943C11.9334 7.09576 12.0672 7.09576 12.1934 7.05943L22.0372 4.22476C22.7155 4.02941 22.7143 3.05693 22.0372 2.86195L12.1934 0.0272837C12.0672 -0.00909455 11.9334 -0.00909455 11.8071 0.0272837L1.96338 2.86195C1.28506 3.05731 1.28623 4.02978 1.96338 4.22476Z" fill="#869BB9"/>
</svg>
