<svg width="20" height="24" viewBox="0 0 20 24" fill="none" xmlns="http://www.w3.org/2000/svg">
<path d="M17.9167 3.2H15.8333V2C15.8333 1.46957 15.6138 0.960859 15.2232 0.585786C14.8324 0.210714 14.3025 0 13.75 0H5.83336C5.60836 0 5.40003 0.088 5.2417 0.232L0.241707 5.032C0.164098 5.10649 0.102749 5.19509 0.0612525 5.29262C0.019756 5.39015 -0.00105405 5.49465 4.10817e-05 5.6V18.8C4.10817e-05 19.3304 0.219534 19.8391 0.610234 20.2142C1.00093 20.5893 1.53084 20.8 2.08337 20.8H3.33337V22C3.33337 22.5304 3.55286 23.0391 3.94356 23.4142C4.33426 23.7893 4.86416 24 5.4167 24H17.9167C18.4692 24 18.9991 23.7893 19.3898 23.4142C19.7805 23.0391 20 22.5304 20 22V5.2C20 4.66957 19.7805 4.16086 19.3898 3.78579C18.9991 3.41071 18.4692 3.2 17.9167 3.2ZM5.00003 2.728V4.8H2.8417L5.00003 2.728ZM1.6667 18.8V6.4H5.83336C6.29169 6.4 6.66669 6.04 6.66669 5.6V1.6H13.75C13.9833 1.6 14.1667 1.776 14.1667 2V18.8C14.1667 19.024 13.9833 19.2 13.75 19.2H2.08337C1.85004 19.2 1.6667 19.024 1.6667 18.8Z" fill="#869BB9"/>
<path d="M11.6673 11.6H4.16732C3.70898 11.6 3.33398 11.96 3.33398 12.4C3.33398 12.84 3.70898 13.2 4.16732 13.2H11.6673C12.1256 13.2 12.5006 12.84 12.5006 12.4C12.5006 11.96 12.1256 11.6 11.6673 11.6ZM11.6673 8H7.50064C7.04231 8 6.66731 8.36 6.66731 8.8C6.66731 9.24 7.04231 9.6 7.50064 9.6H11.6673C12.1256 9.6 12.5006 9.24 12.5006 8.8C12.5006 8.36 12.1256 8 11.6673 8ZM11.6673 15.2H4.16732C3.70898 15.2 3.33398 15.56 3.33398 16C3.33398 16.44 3.70898 16.8 4.16732 16.8H11.6673C12.1256 16.8 12.5006 16.44 12.5006 16C12.5006 15.56 12.1256 15.2 11.6673 15.2Z" fill="#869BB9"/>
</svg>
