<svg width="24" height="24" viewBox="0 0 24 24" fill="none" xmlns="http://www.w3.org/2000/svg">
<g clip-path="url(#clip0_127_408)">
<mask id="mask0_127_408" style="mask-type:luminance" maskUnits="userSpaceOnUse" x="-4" y="-4" width="32" height="32">
<path d="M-3.27271 -3.27248H27.2727V27.2729H-3.27271V-3.27248Z" fill="white"/>
</mask>
<g mask="url(#mask0_127_408)">
<path d="M22.909 11.9999C22.909 5.97501 18.0248 1.09084 11.9999 1.09084C5.97499 1.09084 1.09082 5.97501 1.09082 11.9999C1.09082 17.1161 4.61293 21.4089 9.36454 22.5877V15.3336H7.11499V11.9999H9.36454V10.5635C9.36454 6.85035 11.0449 5.12933 14.6903 5.12933C15.3814 5.12933 16.5739 5.26482 17.0618 5.40036V8.42235C16.8043 8.39525 16.3571 8.38168 15.8015 8.38168C14.0127 8.38168 13.3215 9.05926 13.3215 10.821V11.9999H16.8848L16.2727 15.3336H13.3215V22.8291C18.7231 22.1767 22.909 17.5774 22.909 11.9999Z" fill="#0866FF"/>
<path d="M16.2727 15.3337L16.8849 12.0001H13.3216V10.8211C13.3216 9.0594 14.0127 8.38186 15.8015 8.38186C16.3571 8.38186 16.8043 8.39539 17.0618 8.42249V5.40054C16.5739 5.26501 15.3814 5.12947 14.6903 5.12947C11.0449 5.12947 9.36453 6.85053 9.36453 10.5636V12.0001H7.11499V15.3337H9.36453V22.5879C10.2086 22.7973 11.0911 22.9092 11.9999 22.9092C12.4474 22.9092 12.8883 22.8816 13.3216 22.8293V15.3337H16.2727Z" fill="white"/>
</g>
</g>
<defs>
<clipPath id="clip0_127_408">
<rect width="24" height="24" fill="white"/>
</clipPath>
</defs>
</svg>
