<svg width="24" height="24" viewBox="0 0 24 24" fill="none" xmlns="http://www.w3.org/2000/svg">
<g clip-path="url(#clip0_144_146)">
<path d="M12.0036 1C7.41119 1 6.06809 1.00474 5.80702 1.0264C4.86458 1.10476 4.27814 1.25319 3.63924 1.57137C3.14687 1.81593 2.75856 2.09942 2.37532 2.4968C1.67738 3.22151 1.25438 4.11309 1.10126 5.17291C1.02681 5.68741 1.00515 5.79234 1.00075 8.42038C0.99906 9.29639 1.00075 10.4493 1.00075 11.9957C1.00075 16.5856 1.00583 17.9277 1.02782 18.1884C1.10396 19.1057 1.24778 19.6828 1.55234 20.3141C2.13438 21.5225 3.24602 22.4296 4.55562 22.7681C5.00908 22.8849 5.5099 22.9492 6.15286 22.9797C6.42527 22.9915 9.20182 23 11.9801 23C14.7583 23 17.5366 22.9966 17.8022 22.9831C18.5467 22.948 18.979 22.89 19.457 22.7664C20.775 22.4263 21.8664 21.5326 22.4603 20.3073C22.7589 19.6913 22.9103 19.0921 22.9788 18.2227C22.9937 18.0332 23 15.011 23 11.9928C23 8.97415 22.9932 5.95753 22.9783 5.76797C22.909 4.88451 22.7575 4.29046 22.4493 3.66256C22.1963 3.14857 21.9154 2.76472 21.5077 2.37224C20.7799 1.67698 19.89 1.25387 18.8294 1.10087C18.3156 1.02657 18.2132 1.00457 15.5838 1H12.0036Z" fill="url(#paint0_radial_144_146)"/>
<path d="M12.0036 1C7.41119 1 6.06809 1.00474 5.80702 1.0264C4.86458 1.10476 4.27814 1.25319 3.63924 1.57137C3.14687 1.81593 2.75856 2.09942 2.37532 2.4968C1.67738 3.22151 1.25438 4.11309 1.10126 5.17291C1.02681 5.68741 1.00515 5.79234 1.00075 8.42038C0.99906 9.29639 1.00075 10.4493 1.00075 11.9957C1.00075 16.5856 1.00583 17.9277 1.02782 18.1884C1.10396 19.1057 1.24778 19.6828 1.55234 20.3141C2.13438 21.5225 3.24602 22.4296 4.55562 22.7681C5.00908 22.8849 5.5099 22.9492 6.15286 22.9797C6.42527 22.9915 9.20182 23 11.9801 23C14.7583 23 17.5366 22.9966 17.8022 22.9831C18.5467 22.948 18.979 22.89 19.457 22.7664C20.775 22.4263 21.8664 21.5326 22.4603 20.3073C22.7589 19.6913 22.9103 19.0921 22.9788 18.2227C22.9937 18.0332 23 15.011 23 11.9928C23 8.97415 22.9932 5.95753 22.9783 5.76797C22.909 4.88451 22.7575 4.29046 22.4493 3.66256C22.1963 3.14857 21.9154 2.76472 21.5077 2.37224C20.7799 1.67698 19.89 1.25387 18.8294 1.10087C18.3156 1.02657 18.2132 1.00457 15.5838 1H12.0036Z" fill="url(#paint1_radial_144_146)"/>
</g>
<path d="M12.0007 4C9.82806 4 9.55539 4.0095 8.70205 4.04833C7.85037 4.08733 7.26903 4.22217 6.76036 4.42C6.23419 4.62433 5.78785 4.89767 5.34318 5.3425C4.89818 5.78717 4.62484 6.2335 4.41984 6.7595C4.2215 7.26833 4.0865 7.84983 4.04817 8.70117C4.01 9.5545 4 9.82733 4 12C4 14.1727 4.00967 14.4445 4.04833 15.2978C4.0875 16.1495 4.22234 16.7308 4.42 17.2395C4.62451 17.7657 4.89784 18.212 5.34268 18.6567C5.78719 19.1017 6.23352 19.3757 6.75936 19.58C7.26837 19.7778 7.84987 19.9127 8.70138 19.9517C9.55472 19.9905 9.82723 20 11.9997 20C14.1726 20 14.4444 19.9905 15.2978 19.9517C16.1495 19.9127 16.7315 19.7778 17.2405 19.58C17.7665 19.3757 18.2121 19.1017 18.6567 18.6567C19.1017 18.212 19.375 17.7657 19.58 17.2397C19.7767 16.7308 19.9117 16.1493 19.9517 15.298C19.99 14.4447 20 14.1727 20 12C20 9.82733 19.99 9.55467 19.9517 8.70133C19.9117 7.84967 19.7767 7.26833 19.58 6.75967C19.375 6.2335 19.1017 5.78717 18.6567 5.3425C18.2116 4.8975 17.7666 4.62417 17.24 4.42C16.73 4.22217 16.1483 4.08733 15.2966 4.04833C14.4433 4.0095 14.1716 4 11.9982 4H12.0007ZM11.2831 5.44167C11.4961 5.44133 11.7337 5.44167 12.0007 5.44167C14.1368 5.44167 14.3899 5.44933 15.2334 5.48767C16.0135 5.52333 16.4368 5.65367 16.7188 5.76317C17.0921 5.90817 17.3583 6.0815 17.6381 6.3615C17.9181 6.6415 18.0915 6.90817 18.2368 7.2815C18.3463 7.56317 18.4768 7.9865 18.5123 8.7665C18.5506 9.60983 18.559 9.86317 18.559 11.9982C18.559 14.1332 18.5506 14.3865 18.5123 15.2298C18.4766 16.0098 18.3463 16.4332 18.2368 16.7148C18.0918 17.0882 17.9181 17.354 17.6381 17.6338C17.3581 17.9138 17.0923 18.0872 16.7188 18.2322C16.4371 18.3422 16.0135 18.4722 15.2334 18.5078C14.3901 18.5462 14.1368 18.5545 12.0007 18.5545C9.86456 18.5545 9.61139 18.5462 8.76805 18.5078C7.98804 18.4718 7.5647 18.3415 7.28253 18.232C6.9092 18.087 6.64253 17.9137 6.36252 17.6337C6.08252 17.3537 5.90919 17.0877 5.76385 16.7142C5.65435 16.4325 5.52385 16.0092 5.48835 15.2292C5.45001 14.3858 5.44235 14.1325 5.44235 11.9962C5.44235 9.85983 5.45001 9.60783 5.48835 8.7645C5.52402 7.9845 5.65435 7.56117 5.76385 7.27917C5.90885 6.90583 6.08252 6.63917 6.36252 6.35917C6.64253 6.07917 6.9092 5.90583 7.28253 5.7605C7.56454 5.6505 7.98804 5.5205 8.76805 5.48467C9.50606 5.45133 9.79206 5.44133 11.2831 5.43967V5.44167ZM16.2711 6.77C15.7411 6.77 15.3111 7.1995 15.3111 7.72967C15.3111 8.25967 15.7411 8.68967 16.2711 8.68967C16.8011 8.68967 17.2311 8.25967 17.2311 7.72967C17.2311 7.19967 16.8011 6.76967 16.2711 6.76967V6.77ZM12.0007 7.89167C9.73189 7.89167 7.89237 9.73117 7.89237 12C7.89237 14.2688 9.73189 16.1075 12.0007 16.1075C14.2696 16.1075 16.1085 14.2688 16.1085 12C16.1085 9.73117 14.2696 7.89167 12.0007 7.89167ZM12.0007 9.33333C13.4734 9.33333 14.6674 10.5272 14.6674 12C14.6674 13.4727 13.4734 14.6667 12.0007 14.6667C10.5279 14.6667 9.33406 13.4727 9.33406 12C9.33406 10.5272 10.5279 9.33333 12.0007 9.33333Z" fill="white"/>
<defs>
<radialGradient id="paint0_radial_144_146" cx="0" cy="0" r="1" gradientUnits="userSpaceOnUse" gradientTransform="translate(-2.68512 2.58484) rotate(78.6806) scale(9.74631 40.1747)">
<stop stop-color="#3771C8"/>
<stop offset="0.128" stop-color="#3771C8"/>
<stop offset="1" stop-color="#6600FF" stop-opacity="0"/>
</radialGradient>
<radialGradient id="paint1_radial_144_146" cx="0" cy="0" r="1" gradientUnits="userSpaceOnUse" gradientTransform="translate(6.84378 24.6945) rotate(-90) scale(21.8036 20.2791)">
<stop stop-color="#FFDD55"/>
<stop offset="0.1" stop-color="#FFDD55"/>
<stop offset="0.5" stop-color="#FF543E"/>
<stop offset="1" stop-color="#C837AB"/>
</radialGradient>
<clipPath id="clip0_144_146">
<rect x="1" y="1" width="22" height="22" rx="11" fill="white"/>
</clipPath>
</defs>
</svg>
