<svg width="40" height="40" viewBox="0 0 40 40" fill="none" xmlns="http://www.w3.org/2000/svg">
<rect width="40" height="40" rx="20" fill="#F4F7FF"/>
<path d="M19.9999 13.0769C19.8262 13.0769 19.6595 13.004 19.5366 12.8742C19.4138 12.7443 19.3447 12.5682 19.3447 12.3846V11.6923C19.3447 11.5087 19.4138 11.3326 19.5366 11.2028C19.6595 11.0729 19.8262 11 19.9999 11C20.1737 11 20.3404 11.0729 20.4632 11.2028C20.5861 11.3326 20.6551 11.5087 20.6551 11.6923V12.3846C20.6551 12.5682 20.5861 12.7443 20.4632 12.8742C20.3404 13.004 20.1737 13.0769 19.9999 13.0769Z" fill="#000F5B"/>
<path d="M25.7183 19.1191C25.5446 19.1191 25.3779 19.0461 25.255 18.9163C25.1322 18.7864 25.0631 18.6103 25.0631 18.4267C25.0631 15.6132 22.901 13.2157 20.2434 13.0828C17.5826 12.9529 15.2105 15.1182 14.9598 17.9155C14.9447 18.0854 14.9371 18.256 14.9372 18.4267C14.9372 18.6103 14.8682 18.7864 14.7453 18.9163C14.6225 19.0461 14.4558 19.1191 14.282 19.1191C14.1083 19.1191 13.9416 19.0461 13.8187 18.9163C13.6959 18.7864 13.6268 18.6103 13.6268 18.4267C13.6268 18.2107 13.6363 17.9947 13.6553 17.785C13.9708 14.2625 16.9576 11.5334 20.3054 11.6999C23.6515 11.8671 26.3736 14.8849 26.3736 18.4267C26.3736 18.6103 26.3045 18.7864 26.1816 18.9163C26.0588 19.0461 25.8921 19.1191 25.7183 19.1191ZM26.9465 23.841C26.779 23.841 26.6178 23.7733 26.4961 23.6516C26.0443 23.198 25.6843 22.6522 25.4379 22.0472C25.1915 21.4423 25.0639 20.7908 25.0628 20.1323C25.0628 19.9486 25.1318 19.7725 25.2547 19.6427C25.3776 19.5129 25.5442 19.4399 25.718 19.4399C25.8918 19.4399 26.0584 19.5129 26.1813 19.6427C26.3042 19.7725 26.3732 19.9486 26.3732 20.1323C26.374 20.6027 26.4651 21.068 26.6411 21.5001C26.8171 21.9322 27.0742 22.3221 27.397 22.646C27.492 22.7414 27.5578 22.8646 27.5859 22.9998C27.614 23.135 27.6031 23.276 27.5546 23.4046C27.5061 23.5332 27.4223 23.6436 27.3139 23.7213C27.2055 23.7991 27.0775 23.8408 26.9465 23.841ZM13.0535 23.841C12.9224 23.841 12.7944 23.7994 12.6859 23.7216C12.5774 23.6439 12.4935 23.5335 12.4449 23.4049C12.3964 23.2762 12.3856 23.1351 12.4138 22.9998C12.442 22.8645 12.5079 22.7413 12.6031 22.646C12.9259 22.3221 13.183 21.9322 13.359 21.5001C13.535 21.068 13.6261 20.6027 13.6268 20.1323C13.6268 19.9486 13.6959 19.7725 13.8187 19.6427C13.9416 19.5129 14.1083 19.4399 14.282 19.4399C14.4558 19.4399 14.6225 19.5129 14.7453 19.6427C14.8682 19.7725 14.9372 19.9486 14.9372 20.1323C14.9372 21.4584 14.4147 22.7412 13.504 23.6516C13.3822 23.7733 13.2211 23.841 13.0535 23.841ZM20.0004 29.0001C18.2247 29.0001 16.7243 27.4147 16.7243 25.5385C16.7243 25.3549 16.7933 25.1788 16.9162 25.049C17.0391 24.9192 17.2058 24.8462 17.3795 24.8462C17.5533 24.8462 17.7199 24.9192 17.8428 25.049C17.9657 25.1788 18.0347 25.3549 18.0347 25.5385C18.0347 26.6642 18.935 27.6155 20.0004 27.6155C21.0657 27.6155 21.966 26.6642 21.966 25.5385C21.966 25.3549 22.035 25.1788 22.1579 25.049C22.2808 24.9192 22.4474 24.8462 22.6212 24.8462C22.795 24.8462 22.9616 24.9192 23.0845 25.049C23.2074 25.1788 23.2764 25.3549 23.2764 25.5385C23.2764 27.4147 21.776 29.0001 20.0004 29.0001Z" fill="#000F5B"/>
<path d="M13.9538 26.2313C13.1555 26.2313 12.4452 25.7155 12.1442 24.9173C11.8428 24.118 12.0226 23.2267 12.6025 22.6465C12.7287 22.5202 12.8972 22.4521 13.0709 22.4571C13.2447 22.4621 13.4094 22.5398 13.5289 22.6731C13.6485 22.8065 13.7129 22.9845 13.7082 23.1681C13.7035 23.3517 13.6299 23.5258 13.5037 23.6521C13.2167 23.9394 13.3222 24.3011 13.3615 24.405C13.4005 24.5081 13.5588 24.8467 13.9538 24.8467C14.1276 24.8467 14.2943 24.9196 14.4172 25.0494C14.54 25.1793 14.6091 25.3554 14.6091 25.539C14.6091 25.7226 14.54 25.8987 14.4172 26.0285C14.2943 26.1584 14.1276 26.2313 13.9538 26.2313ZM26.0457 26.2313C25.8719 26.2313 25.7053 26.1584 25.5824 26.0285C25.4595 25.8987 25.3905 25.7226 25.3905 25.539C25.3905 25.3554 25.4595 25.1793 25.5824 25.0494C25.7053 24.9196 25.8719 24.8467 26.0457 24.8467C26.4411 24.8467 26.5997 24.5067 26.639 24.4025C26.678 24.299 26.7831 23.9387 26.4962 23.6517C26.3746 23.5244 26.305 23.3518 26.3022 23.1709C26.2995 22.99 26.3639 22.8152 26.4815 22.6837C26.5992 22.5523 26.7609 22.4748 26.932 22.4677C27.1031 22.4606 27.27 22.5245 27.3971 22.6458C27.9769 23.226 28.1571 24.1166 27.8564 24.9145C27.555 25.7145 26.8441 26.2313 26.0457 26.2313ZM14.2815 20.8247C14.1077 20.8247 13.941 20.7517 13.8182 20.6219C13.6953 20.4921 13.6262 20.316 13.6262 20.1323V18.4272C13.6262 18.2436 13.6953 18.0675 13.8182 17.9376C13.941 17.8078 14.1077 17.7349 14.2815 17.7349C14.4552 17.7349 14.6219 17.8078 14.7448 17.9376C14.8676 18.0675 14.9367 18.2436 14.9367 18.4272V20.1323C14.9367 20.316 14.8676 20.4921 14.7448 20.6219C14.6219 20.7517 14.4552 20.8247 14.2815 20.8247ZM25.7181 20.8247C25.5443 20.8247 25.3777 20.7517 25.2548 20.6219C25.1319 20.4921 25.0629 20.316 25.0629 20.1323V18.4272C25.0629 18.2436 25.1319 18.0675 25.2548 17.9376C25.3777 17.8078 25.5443 17.7349 25.7181 17.7349C25.8919 17.7349 26.0585 17.8078 26.1814 17.9376C26.3043 18.0675 26.3733 18.2436 26.3733 18.4272V20.1323C26.3733 20.316 26.3043 20.4921 26.1814 20.6219C26.0585 20.7517 25.8919 20.8247 25.7181 20.8247Z" fill="#000F5B"/>
<path d="M26.0459 26.2311H13.954C13.7803 26.2311 13.6136 26.1581 13.4907 26.0283C13.3679 25.8985 13.2988 25.7224 13.2988 25.5388C13.2988 25.3551 13.3679 25.179 13.4907 25.0492C13.6136 24.9194 13.7803 24.8464 13.954 24.8464H26.0456C26.2193 24.8464 26.386 24.9193 26.5089 25.0491C26.6318 25.1789 26.7009 25.355 26.7009 25.5386C26.701 25.7222 26.632 25.8983 26.5091 26.0282C26.3863 26.158 26.2197 26.231 26.0459 26.2311Z" fill="#000F5B"/>
</svg>
