<svg width="24" height="24" viewBox="0 0 24 24" fill="none" xmlns="http://www.w3.org/2000/svg">
<path d="M7.18276 11.2941C9.4922 11.2941 11.3711 9.4153 11.3711 7.10586C11.3711 4.79642 9.49224 2.91761 7.18276 2.91761C4.87332 2.91761 2.99451 4.79642 2.99451 7.10586C2.99451 9.4153 4.87332 11.2941 7.18276 11.2941ZM7.18276 4.4696C8.63639 4.4696 9.81898 5.65218 9.81898 7.10577C9.81898 8.55936 8.63639 9.74195 7.18276 9.74195C5.72912 9.74195 4.54658 8.55936 4.54658 7.10577C4.54658 5.65223 5.72912 4.4696 7.18276 4.4696ZM16.8171 11.2941C19.1266 11.2941 21.0054 9.4153 21.0054 7.10586C21.0054 4.79642 19.1266 2.91761 16.8171 2.91761C14.5077 2.91761 12.6288 4.79642 12.6288 7.10586C12.6289 9.41526 14.5077 11.2941 16.8171 11.2941ZM16.8171 4.4696C18.2708 4.4696 19.4533 5.65218 19.4533 7.10577C19.4533 8.55936 18.2707 9.74195 16.8171 9.74195C15.3635 9.74195 14.1809 8.55936 14.1809 7.10577C14.1809 5.65223 15.3635 4.4696 16.8171 4.4696Z" fill="#DA8D19"/>
<path d="M11.9998 14.3312C8.37593 9.81715 1 12.3759 1 18.2095V20.3064C1 20.7349 1.34745 21.0824 1.77602 21.0824H22.224C22.6526 21.0824 23 20.7349 23 20.3064V18.2095C23 12.374 15.619 9.82101 11.9998 14.3312ZM11.8133 19.5303H2.55207V18.2095C2.55207 15.6563 4.62944 13.5792 7.1829 13.5792C9.76051 13.5792 11.8132 15.6646 11.8132 18.2095V19.5303H11.8133ZM21.4479 19.5303H13.3653C13.3653 18.08 13.4576 17.1637 12.8711 15.7843C13.7115 14.4153 15.1919 13.5792 16.8171 13.5792C19.3705 13.5792 21.4479 15.6563 21.4479 18.2095V19.5303H21.4479Z" fill="#DA8D19"/>
</svg>
