<svg width="24" height="24" viewBox="0 0 24 24" fill="none" xmlns="http://www.w3.org/2000/svg">
<path d="M12.0013 6.0033H11.9764C10.9653 6.00974 10.0166 6.41064 9.30458 7.13165C8.59259 7.85267 8.20415 8.80657 8.21103 9.81806C8.21747 10.8291 8.61837 11.7779 9.33939 12.4898C10.0544 13.1958 10.9988 13.5838 12.0004 13.5838H12.0254C14.1154 13.5705 15.8045 11.8591 15.7911 9.76907C15.7778 7.68767 14.0801 6.0033 12.0013 6.0033ZM12.0146 11.9506H12.0004C11.4307 11.9506 10.8936 11.7297 10.4862 11.3275C10.0754 10.9219 9.84728 10.3822 9.84341 9.80731C9.83954 9.23239 10.0608 8.6897 10.4665 8.27892C10.8721 7.86814 11.4118 7.63997 11.9867 7.63611H12.0009C13.1838 7.63611 14.1502 8.59474 14.1579 9.77938C14.1656 10.9688 13.204 11.9429 12.0146 11.9506Z" fill="#343947"/>
<path d="M11.9432 1.00002C7.09459 1.03139 3.17585 5.0017 3.20722 9.85028C3.21925 11.7418 3.82253 13.54 4.95175 15.0512C5.9744 16.4202 7.34381 17.4454 8.92979 18.0354L10.2176 21.6869C10.4994 22.4861 11.2265 23 12.0725 23H12.0863C12.9379 22.9944 13.6645 22.4698 13.9374 21.6628L15.1779 17.995C16.7561 17.3848 18.1118 16.342 19.1168 14.9597C20.2263 13.4343 20.8059 11.6283 20.7939 9.73685C20.7788 7.38818 19.8498 5.18603 18.1784 3.5356C16.506 1.88518 14.291 0.985413 11.9432 1.00002ZM17.7959 13.9989C16.9104 15.2166 15.6918 16.1113 14.2717 16.5856C14.1521 16.6256 14.0434 16.6926 13.9541 16.7815C13.8648 16.8705 13.7973 16.9789 13.7569 17.0982L12.3905 21.139C12.3239 21.3358 12.1645 21.3659 12.0755 21.3668C11.9849 21.3663 11.8267 21.3388 11.7576 21.1433L10.3387 17.1206C10.2968 17.0017 10.2279 16.8942 10.1375 16.8064C10.0471 16.7185 9.93756 16.6528 9.81752 16.6144C8.39139 16.1581 7.1612 15.2798 6.25971 14.0737C5.34104 12.8439 4.84991 11.38 4.84003 9.83954C4.81468 5.89115 8.00596 2.65818 11.9539 2.63283C13.8669 2.6208 15.6694 3.35385 17.0307 4.69748C18.3919 6.04111 19.1482 7.83462 19.1606 9.74716C19.1705 11.2876 18.6987 12.7575 17.7959 13.9993V13.9989Z" fill="#343947"/>
</svg>
