<svg width="162" height="48" viewBox="0 0 162 48" fill="none" xmlns="http://www.w3.org/2000/svg">
<g clip-path="url(#clip0_349_250)">
<path d="M156 0H6C2.68629 0 0 2.68629 0 6V42C0 45.3137 2.68629 48 6 48H156C159.314 48 162 45.3137 162 42V6C162 2.68629 159.314 0 156 0Z" fill="black"/>
<path d="M156 0.96C158.784 0.96 161.04 3.216 161.04 6V42C161.04 44.784 158.784 47.04 156 47.04H6C3.216 47.04 0.96 44.784 0.96 42V6C0.96 3.216 3.216 0.96 6 0.96H156ZM156 0H6C2.7 0 0 2.7 0 6V42C0 45.3 2.7 48 6 48H156C159.3 48 162 45.3 162 42V6C162 2.7 159.3 0 156 0Z" fill="#A6A6A6"/>
<path d="M56.9041 12.2881C56.9041 13.2961 56.6041 14.1001 56.0041 14.6881C55.3321 15.3961 54.4441 15.7561 53.3641 15.7561C52.2841 15.7561 51.4441 15.3961 50.7121 14.6761C49.9801 13.9561 49.6201 13.0561 49.6201 12.0001C49.6201 10.9441 49.9801 10.0441 50.7121 9.32414C51.4441 8.60414 52.3201 8.24414 53.3641 8.24414C53.8801 8.24414 54.3721 8.34014 54.8401 8.54414C55.3081 8.74814 55.6801 9.01214 55.9681 9.34814L55.3321 9.98414C54.8521 9.42014 54.2041 9.13214 53.3641 9.13214C52.6081 9.13214 51.9481 9.39614 51.3961 9.93614C50.8441 10.4641 50.5681 11.1601 50.5681 12.0121C50.5681 12.8641 50.8441 13.5601 51.3961 14.0881C51.9481 14.6161 52.6081 14.8921 53.3641 14.8921C54.1681 14.8921 54.8401 14.6281 55.3801 14.0881C55.7281 13.7401 55.9321 13.2481 55.9801 12.6241H53.3641V11.7601H56.8561C56.8921 11.9521 56.9041 12.1321 56.9041 12.3001V12.2881Z" fill="white" stroke="white" stroke-width="0.2" stroke-miterlimit="10"/>
<path d="M62.4361 9.2879H59.1601V11.5679H62.1121V12.4319H59.1601V14.7119H62.4361V15.5999H58.2361V8.3999H62.4361V9.2879Z" fill="white" stroke="white" stroke-width="0.2" stroke-miterlimit="10"/>
<path d="M66.3361 15.5999H65.4121V9.2879H63.3961V8.3999H68.3401V9.2879H66.3241V15.5999H66.3361Z" fill="white" stroke="white" stroke-width="0.2" stroke-miterlimit="10"/>
<path d="M71.9282 15.5999V8.3999H72.8522V15.5999H71.9282Z" fill="white" stroke="white" stroke-width="0.2" stroke-miterlimit="10"/>
<path d="M76.9562 15.5999H76.0322V9.2879H74.0162V8.3999H78.9602V9.2879H76.9442V15.5999H76.9562Z" fill="white" stroke="white" stroke-width="0.2" stroke-miterlimit="10"/>
<path d="M88.3321 14.6641C87.6241 15.3961 86.7481 15.7561 85.6921 15.7561C84.6361 15.7561 83.7601 15.3961 83.0521 14.6641C82.3441 13.9321 81.9961 13.0441 81.9961 12.0001C81.9961 10.9561 82.3441 10.0561 83.0521 9.33614C83.7601 8.60414 84.6361 8.24414 85.6921 8.24414C86.7481 8.24414 87.6121 8.60414 88.3321 9.33614C89.0401 10.0681 89.4001 10.9561 89.4001 12.0001C89.4001 13.0441 89.0401 13.9441 88.3441 14.6641H88.3321ZM83.7361 14.0641C84.2641 14.6041 84.9241 14.8681 85.6921 14.8681C86.4601 14.8681 87.1201 14.6041 87.6481 14.0641C88.1761 13.5241 88.4521 12.8401 88.4521 12.0001C88.4521 11.1601 88.1881 10.4761 87.6481 9.93614C87.1201 9.39614 86.4601 9.13214 85.6921 9.13214C84.9241 9.13214 84.2641 9.39614 83.7361 9.93614C83.2081 10.4761 82.9321 11.1601 82.9321 12.0001C82.9321 12.8401 83.1961 13.5241 83.7361 14.0641Z" fill="white" stroke="white" stroke-width="0.2" stroke-miterlimit="10"/>
<path d="M90.696 15.5999V8.3999H91.824L95.328 14.0039H95.364L95.328 12.6119V8.3999H96.252V15.5999H95.292L91.632 9.7319H91.596L91.632 11.1239V15.6119H90.708L90.696 15.5999Z" fill="white" stroke="white" stroke-width="0.2" stroke-miterlimit="10"/>
<path d="M81.768 26.1002C78.948 26.1002 76.644 28.2482 76.644 31.2002C76.644 34.1522 78.948 36.3002 81.768 36.3002C84.588 36.3002 86.892 34.1402 86.892 31.2002C86.892 28.2602 84.588 26.1002 81.768 26.1002ZM81.768 34.2962C80.22 34.2962 78.888 33.0242 78.888 31.2002C78.888 29.3762 80.22 28.1042 81.768 28.1042C83.316 28.1042 84.648 29.3642 84.648 31.2002C84.648 33.0362 83.316 34.2962 81.768 34.2962ZM70.596 26.1002C67.776 26.1002 65.472 28.2482 65.472 31.2002C65.472 34.1522 67.776 36.3002 70.596 36.3002C73.416 36.3002 75.72 34.1402 75.72 31.2002C75.72 28.2602 73.416 26.1002 70.596 26.1002ZM70.596 34.2962C69.048 34.2962 67.716 33.0242 67.716 31.2002C67.716 29.3762 69.048 28.1042 70.596 28.1042C72.144 28.1042 73.476 29.3642 73.476 31.2002C73.476 33.0362 72.144 34.2962 70.596 34.2962ZM57.3 27.6602V29.8202H62.484C62.328 31.0442 61.92 31.9322 61.308 32.5442C60.552 33.3002 59.376 34.1282 57.312 34.1282C54.12 34.1282 51.624 31.5602 51.624 28.3682C51.624 25.1762 54.12 22.6082 57.312 22.6082C59.028 22.6082 60.288 23.2802 61.212 24.1562L62.736 22.6322C61.44 21.3962 59.724 20.4482 57.3 20.4482C52.932 20.4482 49.26 24.0002 49.26 28.3802C49.26 32.7602 52.932 36.3122 57.3 36.3122C59.664 36.3122 61.44 35.5442 62.832 34.0922C64.26 32.6642 64.704 30.6482 64.704 29.0282C64.704 28.5242 64.668 28.0562 64.584 27.6722H57.3V27.6602ZM111.672 29.3402C111.252 28.2002 109.956 26.0882 107.304 26.0882C104.652 26.0882 102.492 28.1522 102.492 31.1882C102.492 34.0442 104.652 36.2882 107.556 36.2882C109.896 36.2882 111.252 34.8602 111.804 34.0322L110.064 32.8682C109.488 33.7202 108.696 34.2842 107.556 34.2842C106.416 34.2842 105.6 33.7562 105.084 32.7362L111.912 29.9162L111.684 29.3402H111.672ZM104.712 31.0442C104.652 29.0762 106.236 28.0682 107.376 28.0682C108.264 28.0682 109.02 28.5122 109.272 29.1482L104.712 31.0442ZM99.168 35.9882H101.412V20.9882H99.168V35.9882ZM95.496 27.2282H95.424C94.92 26.6282 93.96 26.0882 92.736 26.0882C90.18 26.0882 87.84 28.3322 87.84 31.2122C87.84 34.0922 90.18 36.3002 92.736 36.3002C93.96 36.3002 94.92 35.7602 95.424 35.1362H95.496V35.8682C95.496 37.8242 94.452 38.8682 92.772 38.8682C91.404 38.8682 90.552 37.8842 90.204 37.0562L88.248 37.8722C88.812 39.2282 90.3 40.8842 92.772 40.8842C95.4 40.8842 97.62 39.3362 97.62 35.5682V26.4002H95.496V27.2282ZM92.928 34.2842C91.38 34.2842 90.084 32.9882 90.084 31.2122C90.084 29.4362 91.38 28.1042 92.928 28.1042C94.476 28.1042 95.652 29.4242 95.652 31.2122C95.652 33.0002 94.452 34.2842 92.928 34.2842ZM122.184 20.9882H116.82V35.9882H119.064V30.3002H122.196C124.68 30.3002 127.116 28.5002 127.116 25.6442C127.116 22.7882 124.68 20.9882 122.196 20.9882H122.184ZM122.244 28.2242H119.064V23.0762H122.244C123.924 23.0762 124.872 24.4682 124.872 25.6442C124.872 26.8202 123.924 28.2122 122.244 28.2122V28.2242ZM136.08 26.0642C134.46 26.0642 132.78 26.7842 132.084 28.3562L134.076 29.1842C134.496 28.3562 135.288 28.0802 136.116 28.0802C137.268 28.0802 138.456 28.7762 138.468 30.0122V30.1682C138.06 29.9402 137.196 29.5922 136.128 29.5922C133.98 29.5922 131.808 30.7682 131.808 32.9642C131.808 34.9682 133.56 36.2642 135.528 36.2642C137.028 36.2642 137.868 35.5922 138.384 34.8002H138.456V35.9642H140.616V30.2162C140.616 27.5522 138.624 26.0642 136.056 26.0642H136.08ZM135.804 34.2842C135.072 34.2842 134.052 33.9122 134.052 33.0122C134.052 31.8602 135.324 31.4162 136.428 31.4162C137.412 31.4162 137.88 31.6322 138.468 31.9202C138.3 33.3122 137.1 34.2962 135.804 34.2962V34.2842ZM148.5 26.3882L145.932 32.8922H145.86L143.196 26.3882H140.784L144.78 35.4842L142.5 40.5362H144.84L150.996 26.3882H148.512H148.5ZM128.328 35.9882H130.572V20.9882H128.328V35.9882Z" fill="white"/>
<path d="M24.8641 23.304L12.0841 36.864C12.4801 38.34 13.8241 39.42 15.4201 39.42C16.0561 39.42 16.6561 39.252 17.1721 38.94L17.2081 38.916L31.5841 30.624L24.8521 23.292L24.8641 23.304Z" fill="#EA4335"/>
<path d="M37.7881 21.0002H37.7761L31.5721 17.3882L24.576 23.6162L31.5961 30.6362L37.7761 27.0722C38.8561 26.4842 39.5881 25.3442 39.5881 24.0362C39.5881 22.7282 38.8681 21.5882 37.7881 21.0122V21.0002Z" fill="#FBBC04"/>
<path d="M12.084 11.1362C12.012 11.4242 11.964 11.7122 11.964 12.0242V35.9882C11.964 36.3002 12 36.5882 12.084 36.8762L25.296 23.6642L12.084 11.1362Z" fill="#4285F4"/>
<path d="M24.9601 24.0001L31.5721 17.3881L17.2081 9.06012C16.6921 8.74812 16.0801 8.56812 15.4201 8.56812C13.8241 8.56812 12.4801 9.66012 12.0841 11.1241L24.9601 23.9881V24.0001Z" fill="#34A853"/>
</g>
<defs>
<clipPath id="clip0_349_250">
<rect width="162" height="48" fill="white"/>
</clipPath>
</defs>
</svg>
