<svg width="24" height="22" viewBox="0 0 24 22" fill="none" xmlns="http://www.w3.org/2000/svg">
<path fill-rule="evenodd" clip-rule="evenodd" d="M0 0.757812H9.30605C10.4032 0.757812 11.3789 1.27797 12 2.08514C12.6211 1.27797 13.5968 0.757812 14.694 0.757812H24V21.2422H0V0.757812ZM11.1768 19.8359C10.8873 19.0167 10.1059 18.4297 9.1875 18.4297H1.40625V19.8359H11.1768ZM12.8232 19.8359H22.5938V18.4297H14.8125C13.8941 18.4297 13.1127 19.0167 12.8232 19.8359ZM22.5938 17.0234V2.16406H14.694C13.5945 2.16406 12.7031 3.0554 12.7031 4.15489V17.7263C13.2907 17.285 14.0211 17.0234 14.8125 17.0234H22.5938Z" fill="#869BB9"/>
<path fill-rule="evenodd" clip-rule="evenodd" d="M6.99254 5.6011L9.82967 13.1189L8.51399 13.6154L8.02189 12.3115H4.67094L4.17354 13.6174L2.85938 13.1169L5.72134 5.60249L6.99254 5.6011ZM5.20652 10.9052H7.49119L6.35409 7.89214L5.20652 10.9052Z" fill="white"/>
<path fill-rule="evenodd" clip-rule="evenodd" d="M17.6719 8.58594C16.7399 8.58594 15.9844 9.34146 15.9844 10.2734C15.9844 11.2054 16.7399 11.9609 17.6719 11.9609C18.6039 11.9609 19.3594 11.2054 19.3594 10.2734C19.3594 9.34146 18.6039 8.58594 17.6719 8.58594ZM14.5781 10.2734C14.5781 8.56481 15.9632 7.17969 17.6719 7.17969C19.3805 7.17969 20.7656 8.56481 20.7656 10.2734C20.7656 11.9821 19.3805 13.3672 17.6719 13.3672C15.9632 13.3672 14.5781 11.9821 14.5781 10.2734Z" fill="#869BB9"/>
<path fill-rule="evenodd" clip-rule="evenodd" d="M19.3594 13.3672V7.17969H20.7656V13.3672H19.3594Z" fill="#869BB9"/>
</svg>
