<svg width="24" height="24" viewBox="0 0 24 24" fill="none" xmlns="http://www.w3.org/2000/svg">
<path d="M17.6465 24H6.35237C5.96253 24 5.64648 23.684 5.64648 23.2941V9.6C5.64648 9.21017 5.96253 8.89412 6.35237 8.89412C6.7422 8.89412 7.05825 9.21017 7.05825 9.6V22.5882H16.9406V9.6C16.9406 9.21017 17.2566 8.89412 17.6465 8.89412C18.0363 8.89412 18.3524 9.21017 18.3524 9.6V23.2941C18.3524 23.684 18.0363 24 17.6465 24Z" fill="#869BB9"/>
<path d="M19.0574 11.2942C18.9175 11.2942 18.7764 11.2528 18.6532 11.1665L11.9991 6.50871L5.34512 11.1665C5.02569 11.3901 4.58564 11.3124 4.36202 10.993C4.13849 10.6736 4.21614 10.2335 4.53552 10.0099L11.5943 5.06875C11.713 4.98571 11.8543 4.94116 11.9991 4.94116C12.144 4.94116 12.2853 4.98571 12.4039 5.06875L19.4628 10.0099C19.7822 10.2335 19.8599 10.6736 19.6363 10.993C19.4989 11.1892 19.2799 11.2942 19.0574 11.2942ZM14.1168 24H9.8815C9.49166 24 9.17562 23.684 9.17562 23.2941V19.0353C9.17562 17.4913 10.4317 16.2353 11.9756 16.2353H12.0227C13.5666 16.2353 14.8227 17.4913 14.8227 19.0353V23.2941C14.8227 23.684 14.5066 24 14.1168 24ZM10.5874 22.5882H13.4109V19.0353C13.4109 18.2698 12.7882 17.6471 12.0227 17.6471H11.9756C11.2101 17.6471 10.5874 18.2698 10.5874 19.0353V22.5882Z" fill="#869BB9"/>
<path d="M12 13.4118C10.8323 13.4118 9.88235 12.4618 9.88235 11.2941C9.88235 10.1264 10.8323 9.17647 12 9.17647C13.1677 9.17647 14.1176 10.1264 14.1176 11.2941C14.1176 12.4618 13.1677 13.4118 12 13.4118ZM12 10.5882C11.6108 10.5882 11.2941 10.9049 11.2941 11.2941C11.2941 11.6833 11.6108 12 12 12C12.3892 12 12.7059 11.6833 12.7059 11.2941C12.7059 10.9049 12.3892 10.5882 12 10.5882ZM6.35294 24H0.705882C0.316047 24 0 23.684 0 23.2941V15.5294C0 15.2352 0.182494 14.9718 0.458024 14.8685L6.10508 12.7508C6.21188 12.7108 6.32678 12.6972 6.43996 12.7113C6.55314 12.7254 6.66123 12.7667 6.75497 12.8316C6.84871 12.8966 6.92532 12.9833 6.97823 13.0843C7.03115 13.1854 7.0588 13.2977 7.05882 13.4118V23.2941C7.05882 23.684 6.74278 24 6.35294 24ZM23.2941 24H17.6471C17.2572 24 16.9412 23.684 16.9412 23.2941V13.4118C16.9412 13.2977 16.9688 13.1853 17.0217 13.0843C17.0746 12.9833 17.1512 12.8965 17.245 12.8316C17.3387 12.7666 17.4468 12.7253 17.56 12.7113C17.6732 12.6972 17.7881 12.7108 17.8949 12.7508L23.542 14.8685C23.6765 14.9189 23.7925 15.0092 23.8743 15.1273C23.9562 15.2454 24 15.3857 24 15.5294V23.2941C24 23.684 23.684 24 23.2941 24ZM12 6.35294C11.6102 6.35294 11.2941 6.03689 11.2941 5.64705V4.24818C11.294 4.24001 11.294 4.23184 11.2941 4.22367V0.705878C11.2941 0.590523 11.3224 0.476926 11.3765 0.375027C11.4305 0.273127 11.5087 0.186032 11.6043 0.121361C11.6998 0.0566906 11.8097 0.0164156 11.9244 0.00406056C12.0391 -0.00829449 12.1551 0.00764692 12.2622 0.0504899L15.7916 1.46225C15.9136 1.51109 16.0196 1.59304 16.0976 1.69888C16.1756 1.80472 16.2225 1.93023 16.233 2.06128C16.2435 2.19233 16.2172 2.32371 16.1571 2.44061C16.0969 2.55752 16.0053 2.65531 15.8926 2.72296L12.7059 4.63496V5.64705C12.7059 6.03689 12.3898 6.35294 12 6.35294Z" fill="#869BB9"/>
</svg>
