<svg width="24" height="24" viewBox="0 0 24 24" fill="none" xmlns="http://www.w3.org/2000/svg">
<path fill-rule="evenodd" clip-rule="evenodd" d="M3 5.25C3.19891 5.25 3.38968 5.32902 3.53033 5.46967C3.67098 5.61032 3.75 5.80109 3.75 6V13.5C3.75 13.6989 3.67098 13.8897 3.53033 14.0303C3.38968 14.171 3.19891 14.25 3 14.25C2.80109 14.25 2.61032 14.171 2.46967 14.0303C2.32902 13.8897 2.25 13.6989 2.25 13.5V6C2.25 5.80109 2.32902 5.61032 2.46967 5.46967C2.61032 5.32902 2.80109 5.25 3 5.25ZM12 17.2515C10.7508 17.2515 9.5213 17.5632 8.42293 18.1582C7.32456 18.7533 6.392 19.613 5.70975 20.6595C5.60114 20.8262 5.43077 20.9429 5.23611 20.984C5.04144 21.025 4.83844 20.9871 4.67175 20.8785C4.50506 20.7699 4.38834 20.5995 4.34727 20.4049C4.3062 20.2102 4.34414 20.0072 4.45275 19.8405C5.27125 18.5848 6.39012 17.5532 7.70799 16.8391C9.02587 16.125 10.5011 15.751 12 15.751C13.4989 15.751 14.9741 16.125 16.292 16.8391C17.6099 17.5532 18.7288 18.5848 19.5472 19.8405C19.6559 20.0072 19.6938 20.2102 19.6527 20.4049C19.6117 20.5995 19.4949 20.7699 19.3283 20.8785C19.1616 20.9871 18.9586 21.025 18.7639 20.984C18.5692 20.9429 18.3989 20.8262 18.2902 20.6595C17.608 19.613 16.6754 18.7533 15.5771 18.1582C14.4787 17.5632 13.2492 17.2515 12 17.2515Z" fill="#439368"/>
<path fill-rule="evenodd" clip-rule="evenodd" d="M11.7631 2.28825C11.9169 2.23701 12.0832 2.23701 12.2371 2.28825L21.2371 5.28825C21.3866 5.33792 21.5166 5.43341 21.6088 5.56116C21.701 5.68892 21.7506 5.84246 21.7506 6C21.7506 6.15754 21.701 6.31108 21.6088 6.43884C21.5166 6.5666 21.3866 6.66208 21.2371 6.71175L12.2371 9.71175C12.0832 9.76299 11.9169 9.76299 11.7631 9.71175L2.76305 6.71175C2.61355 6.66208 2.48348 6.5666 2.3913 6.43884C2.29912 6.31108 2.24951 6.15754 2.24951 6C2.24951 5.84246 2.29912 5.68892 2.3913 5.56116C2.48348 5.43341 2.61355 5.33792 2.76305 5.28825L11.7631 2.28825ZM5.37155 6L12.0001 8.2095L18.6286 6L12.0001 3.7905L5.37155 6Z" fill="#439368"/>
<path fill-rule="evenodd" clip-rule="evenodd" d="M8.63475 7.15275C8.7074 7.21928 8.76623 7.29946 8.80788 7.38873C8.84954 7.47799 8.8732 7.57459 8.87752 7.673C8.88183 7.77141 8.86673 7.8697 8.83305 7.96227C8.79937 8.05484 8.74779 8.13987 8.68125 8.2125C8.09156 8.85647 7.70195 9.65809 7.55993 10.5196C7.4179 11.3812 7.5296 12.2654 7.8814 13.0646C8.2332 13.8638 8.80991 14.5433 9.54121 15.0204C10.2725 15.4975 11.1268 15.7516 12 15.7516C12.8732 15.7516 13.7275 15.4975 14.4588 15.0204C15.1901 14.5433 15.7668 13.8638 16.1186 13.0646C16.4704 12.2654 16.5821 11.3812 16.4401 10.5196C16.2981 9.65809 15.9084 8.85647 15.3188 8.2125C15.2498 8.14032 15.1959 8.05508 15.1602 7.96179C15.1246 7.8685 15.108 7.76904 15.1113 7.66923C15.1147 7.56943 15.1379 7.4713 15.1797 7.3806C15.2214 7.28989 15.2809 7.20844 15.3545 7.14102C15.4282 7.0736 15.5146 7.02157 15.6086 6.98798C15.7027 6.95439 15.8025 6.93992 15.9022 6.94541C16.0019 6.9509 16.0995 6.97625 16.1893 7.01997C16.279 7.06369 16.3592 7.1249 16.425 7.2C17.2113 8.05862 17.7307 9.12745 17.9201 10.2762C18.1095 11.4249 17.9605 12.6039 17.4915 13.6695C17.0224 14.735 16.2535 15.6411 15.2784 16.2772C14.3033 16.9134 13.1642 17.2521 12 17.2521C10.8358 17.2521 9.69669 16.9134 8.72161 16.2772C7.74654 15.6411 6.9776 14.735 6.50853 13.6695C6.03947 12.6039 5.89054 11.4249 6.0799 10.2762C6.26927 9.12745 6.78874 8.05862 7.575 7.2C7.64148 7.1273 7.72162 7.06841 7.81086 7.02669C7.9001 6.98497 7.99668 6.96124 8.09509 6.95685C8.1935 6.95247 8.29181 6.96751 8.38441 7.00112C8.47701 7.03473 8.56207 7.08626 8.63475 7.15275Z" fill="#439368"/>
</svg>
