<svg width="16" height="16" viewBox="0 0 16 16" fill="none" xmlns="http://www.w3.org/2000/svg"
    xmlns:xlink="http://www.w3.org/1999/xlink">
    <path
        d="M2.18067 7.27272C2.0126 7.27262 1.84975 7.21431 1.71982 7.10771C1.58988 7.00111 1.50088 6.8528 1.46794 6.68799L0.740665 3.05163C0.705887 2.86373 0.746455 2.6697 0.853598 2.51148C0.960742 2.35325 1.12585 2.24355 1.31323 2.2061C1.50061 2.16864 1.6952 2.20644 1.85494 2.31131C2.01468 2.41618 2.12672 2.57971 2.16685 2.76654L2.75157 5.69017L5.67521 5.10545C5.86311 5.07067 6.05714 5.11123 6.21536 5.21838C6.37359 5.32552 6.48328 5.49063 6.52074 5.67801C6.5582 5.86539 6.5204 6.05998 6.41553 6.21972C6.31066 6.37946 6.14713 6.4915 5.9603 6.53163L2.32394 7.2589C2.277 7.26826 2.22852 7.27289 2.18067 7.27272Z"
        fill="url(#pattern0_1728_4047)" />
    <path
        d="M2.18067 7.27272C2.0126 7.27262 1.84975 7.21431 1.71982 7.10771C1.58988 7.00111 1.50088 6.8528 1.46794 6.68799L0.740665 3.05163C0.705887 2.86373 0.746455 2.6697 0.853598 2.51148C0.960742 2.35325 1.12585 2.24355 1.31323 2.2061C1.50061 2.16864 1.6952 2.20644 1.85494 2.31131C2.01468 2.41618 2.12672 2.57971 2.16685 2.76654L2.75157 5.69017L5.67521 5.10545C5.86311 5.07067 6.05714 5.11123 6.21536 5.21838C6.37359 5.32552 6.48328 5.49063 6.52074 5.67801C6.5582 5.86539 6.5204 6.05998 6.41553 6.21972C6.31066 6.37946 6.14713 6.4915 5.9603 6.53163L2.32394 7.2589C2.277 7.26826 2.22852 7.27289 2.18067 7.27272Z"
        fill="#3573F9" />
    <path
        d="M13.3953 6.54544C13.2505 6.5455 13.109 6.50234 12.9889 6.42149C12.8688 6.34064 12.7755 6.22578 12.7211 6.09162C12.3403 5.15123 11.6875 4.34594 10.8462 3.77892C10.0049 3.2119 9.01344 2.90899 7.99889 2.90899C6.98435 2.90899 5.99291 3.2119 5.15161 3.77892C4.3103 4.34594 3.65745 5.15123 3.27671 6.09162C3.20419 6.27043 3.0636 6.4131 2.88589 6.48825C2.70817 6.5634 2.50788 6.56487 2.32907 6.49235C2.15027 6.41983 2.0076 6.27924 1.93245 6.10153C1.8573 5.92381 1.85582 5.72352 1.92835 5.54471C2.41803 4.33603 3.25737 3.30105 4.33887 2.57231C5.42037 1.84358 6.69479 1.45428 7.99889 1.45428C9.303 1.45428 10.5774 1.84358 11.6589 2.57231C12.7404 3.30105 13.5798 4.33603 14.0694 5.54471C14.1143 5.65515 14.1312 5.7749 14.1189 5.89344C14.1066 6.01198 14.0653 6.12567 13.9987 6.22451C13.9321 6.32336 13.8423 6.40432 13.737 6.46028C13.6318 6.51624 13.5144 6.54549 13.3953 6.54544ZM14.5436 13.8182C14.3756 13.8181 14.2127 13.7598 14.0828 13.6532C13.9528 13.5466 13.8638 13.3982 13.8309 13.2334L13.2469 10.3098L10.3233 10.8945C10.1344 10.9318 9.93839 10.8927 9.77829 10.7858C9.61819 10.6788 9.50704 10.5127 9.46921 10.324C9.43137 10.1352 9.46994 9.93909 9.57646 9.7787C9.68298 9.61831 9.84876 9.5067 10.0374 9.46835L13.6738 8.74108C13.7675 8.72171 13.8641 8.72113 13.958 8.73938C14.0519 8.75762 14.1413 8.79433 14.2209 8.84737C14.3005 8.9004 14.3688 8.96872 14.4219 9.04835C14.4749 9.12798 14.5116 9.21734 14.5298 9.31126L15.2571 12.9476C15.295 13.1367 15.2562 13.3332 15.1493 13.4937C15.0423 13.6542 14.876 13.7657 14.6869 13.8036C14.6397 13.8133 14.5917 13.8181 14.5436 13.8182Z"
        fill="url(#pattern1_1728_4047)" />
    <path
        d="M13.3953 6.54544C13.2505 6.5455 13.109 6.50234 12.9889 6.42149C12.8688 6.34064 12.7755 6.22578 12.7211 6.09162C12.3403 5.15123 11.6875 4.34594 10.8462 3.77892C10.0049 3.2119 9.01344 2.90899 7.99889 2.90899C6.98435 2.90899 5.99291 3.2119 5.15161 3.77892C4.3103 4.34594 3.65745 5.15123 3.27671 6.09162C3.20419 6.27043 3.0636 6.4131 2.88589 6.48825C2.70817 6.5634 2.50788 6.56487 2.32907 6.49235C2.15027 6.41983 2.0076 6.27924 1.93245 6.10153C1.8573 5.92381 1.85582 5.72352 1.92835 5.54471C2.41803 4.33603 3.25737 3.30105 4.33887 2.57231C5.42037 1.84358 6.69479 1.45428 7.99889 1.45428C9.303 1.45428 10.5774 1.84358 11.6589 2.57231C12.7404 3.30105 13.5798 4.33603 14.0694 5.54471C14.1143 5.65515 14.1312 5.7749 14.1189 5.89344C14.1066 6.01198 14.0653 6.12567 13.9987 6.22451C13.9321 6.32336 13.8423 6.40432 13.737 6.46028C13.6318 6.51624 13.5144 6.54549 13.3953 6.54544ZM14.5436 13.8182C14.3756 13.8181 14.2127 13.7598 14.0828 13.6532C13.9528 13.5466 13.8638 13.3982 13.8309 13.2334L13.2469 10.3098L10.3233 10.8945C10.1344 10.9318 9.93839 10.8927 9.77829 10.7858C9.61819 10.6788 9.50704 10.5127 9.46921 10.324C9.43137 10.1352 9.46994 9.93909 9.57646 9.7787C9.68298 9.61831 9.84876 9.5067 10.0374 9.46835L13.6738 8.74108C13.7675 8.72171 13.8641 8.72113 13.958 8.73938C14.0519 8.75762 14.1413 8.79433 14.2209 8.84737C14.3005 8.9004 14.3688 8.96872 14.4219 9.04835C14.4749 9.12798 14.5116 9.21734 14.5298 9.31126L15.2571 12.9476C15.295 13.1367 15.2562 13.3332 15.1493 13.4937C15.0423 13.6542 14.876 13.7657 14.6869 13.8036C14.6397 13.8133 14.5917 13.8181 14.5436 13.8182Z"
        fill="#3573F9" />
    <path
        d="M7.99889 14.5455C6.6941 14.5486 5.41832 14.1606 4.33623 13.4315C3.25414 12.7024 2.41542 11.6657 1.92835 10.4553C1.89244 10.3667 1.87432 10.272 1.87502 10.1765C1.87572 10.0809 1.89524 9.98645 1.93245 9.89846C2.0076 9.72074 2.15027 9.58016 2.32907 9.50763C2.50788 9.43511 2.70817 9.43658 2.88589 9.51173C2.97388 9.54894 3.05369 9.60312 3.12075 9.67118C3.1878 9.73923 3.2408 9.81982 3.27671 9.90836C3.65745 10.8487 4.3103 11.654 5.15161 12.2211C5.99291 12.7881 6.98435 13.091 7.99889 13.091C9.01344 13.091 10.0049 12.7881 10.8462 12.2211C11.6875 11.654 12.3403 10.8487 12.7211 9.90836C12.7936 9.72955 12.9342 9.58688 13.1119 9.51173C13.2896 9.43658 13.4899 9.43511 13.6687 9.50763C13.8475 9.58016 13.9902 9.72074 14.0653 9.89846C14.1405 10.0762 14.142 10.2765 14.0694 10.4553C13.5824 11.6657 12.7436 12.7024 11.6616 13.4315C10.5795 14.1606 9.30368 14.5486 7.99889 14.5455Z"
        fill="url(#pattern2_1728_4047)" />
    <path
        d="M7.99889 14.5455C6.6941 14.5486 5.41832 14.1606 4.33623 13.4315C3.25414 12.7024 2.41542 11.6657 1.92835 10.4553C1.89244 10.3667 1.87432 10.272 1.87502 10.1765C1.87572 10.0809 1.89524 9.98645 1.93245 9.89846C2.0076 9.72074 2.15027 9.58016 2.32907 9.50763C2.50788 9.43511 2.70817 9.43658 2.88589 9.51173C2.97388 9.54894 3.05369 9.60312 3.12075 9.67118C3.1878 9.73923 3.2408 9.81982 3.27671 9.90836C3.65745 10.8487 4.3103 11.654 5.15161 12.2211C5.99291 12.7881 6.98435 13.091 7.99889 13.091C9.01344 13.091 10.0049 12.7881 10.8462 12.2211C11.6875 11.654 12.3403 10.8487 12.7211 9.90836C12.7936 9.72955 12.9342 9.58688 13.1119 9.51173C13.2896 9.43658 13.4899 9.43511 13.6687 9.50763C13.8475 9.58016 13.9902 9.72074 14.0653 9.89846C14.1405 10.0762 14.142 10.2765 14.0694 10.4553C13.5824 11.6657 12.7436 12.7024 11.6616 13.4315C10.5795 14.1606 9.30368 14.5486 7.99889 14.5455Z"
        fill="#3573F9" />
    <defs>
        <pattern id="pattern0_1728_4047" patternContentUnits="objectBoundingBox" width="1"
            height="1">
            <use xlink:href="#image0_1728_4047"
                transform="matrix(0.000921087 0 0 0.00105263 -0.384244 0)" />
        </pattern>
        <pattern id="pattern1_1728_4047" patternContentUnits="objectBoundingBox" width="1"
            height="1">
            <use xlink:href="#image0_1728_4047"
                transform="matrix(0.000971511 0 0 0.00105263 -0.432651 0)" />
        </pattern>
        <pattern id="pattern2_1728_4047" patternContentUnits="objectBoundingBox" width="1"
            height="1">
            <use xlink:href="#image0_1728_4047"
                transform="matrix(0.000520833 0 0 0.00125296 0 -0.0951564)" />
        </pattern>
    </defs>
</svg>