<svg width="64" height="64" viewBox="0 0 64 64" fill="none" xmlns="http://www.w3.org/2000/svg">
<g filter="url(#filter0_d_286_808)">
<g clip-path="url(#clip0_286_808)">
<mask id="mask0_286_808" style="mask-type:luminance" maskUnits="userSpaceOnUse" x="8" y="4" width="48" height="48">
<path d="M56 4H8V52H56V4Z" fill="white"/>
</mask>
<g mask="url(#mask0_286_808)">
<path d="M32 52C45.255 52 56 41.255 56 28C56 14.745 45.255 4 32 4C18.745 4 8 14.745 8 28C8 41.255 18.745 52 32 52Z" fill="#343947"/>
</g>
<g clip-path="url(#clip1_286_808)">
<path d="M37.4431 16H27.9873C23.8789 16 21.4307 18.4834 21.4307 22.6509V26.8442C21.9446 26.4049 22.5124 26.0295 23.1238 25.7286V22.6524C23.1238 19.4242 24.8049 17.719 27.9873 17.719H37.4431C40.6256 17.719 42.3067 19.4242 42.3067 22.6524V28.1467L42.1598 28.0205C41.2803 27.253 39.8584 27.253 38.9774 28.0205L34.7537 31.697C34.8421 32.1864 34.8915 32.691 34.8915 33.2063C34.8915 35.407 34.0465 37.4071 32.6695 38.8935H37.4446C41.5515 38.8935 44.0013 36.4101 44.0013 32.2427V22.6509C44.0013 18.485 41.553 16 37.4446 16H37.4431Z" fill="white"/>
<path d="M30.5297 25.5933C32.013 25.5933 33.2147 24.3729 33.2147 22.8697C33.2147 21.3666 32.0115 20.1462 30.5297 20.1462C29.0479 20.1462 27.8447 21.3666 27.8447 22.8697C27.8447 24.3729 29.0479 25.5933 30.5297 25.5933Z" fill="white"/>
<path d="M26.699 26.4095C23.0146 26.4095 20 29.4674 20 33.2047C20 36.9421 23.0146 40 26.699 40C30.3833 40 33.3979 36.9421 33.3979 33.2047C33.3979 29.4674 30.3833 26.4095 26.699 26.4095ZM29.7975 33.8841C29.6297 34.0543 29.4619 34.1394 29.2116 34.1394C28.9614 34.1394 28.7936 34.0543 28.6258 33.8841L27.5365 32.7792V36.6016C27.5365 37.1108 27.2009 37.4512 26.699 37.4512C26.197 37.4512 25.8614 37.1108 25.8614 36.6016V32.7792L24.7721 33.8841C24.4365 34.2246 23.9346 34.2246 23.6004 33.8841C23.2663 33.5437 23.2648 33.0345 23.6004 32.6956L26.1131 30.0632C26.2809 29.893 26.4487 29.8079 26.699 29.8079C26.9492 29.8079 27.117 29.893 27.2848 30.0632L29.7975 32.6956C30.1331 33.036 30.1331 33.5452 29.7975 33.8841Z" fill="white"/>
</g>
</g>
</g>
<defs>
<filter id="filter0_d_286_808" x="0" y="0" width="64" height="64" filterUnits="userSpaceOnUse" color-interpolation-filters="sRGB">
<feFlood flood-opacity="0" result="BackgroundImageFix"/>
<feColorMatrix in="SourceAlpha" type="matrix" values="0 0 0 0 0 0 0 0 0 0 0 0 0 0 0 0 0 0 127 0" result="hardAlpha"/>
<feOffset dy="4"/>
<feGaussianBlur stdDeviation="4"/>
<feComposite in2="hardAlpha" operator="out"/>
<feColorMatrix type="matrix" values="0 0 0 0 0 0 0 0 0 0 0 0 0 0 0 0 0 0 0.2 0"/>
<feBlend mode="normal" in2="BackgroundImageFix" result="effect1_dropShadow_286_808"/>
<feBlend mode="normal" in="SourceGraphic" in2="effect1_dropShadow_286_808" result="shape"/>
</filter>
<clipPath id="clip0_286_808">
<rect x="8" y="4" width="48" height="48" rx="24" fill="white"/>
</clipPath>
<clipPath id="clip1_286_808">
<rect width="24" height="24" fill="white" transform="translate(20 16)"/>
</clipPath>
</defs>
</svg>
