<svg width="24" height="24" viewBox="0 0 24 24" fill="none" xmlns="http://www.w3.org/2000/svg">
<g clip-path="url(#clip0_485_8373)">
<path d="M23.9987 19.8549C23.9987 18.145 22.7182 16.7425 21.1071 16.6385C21.856 16.2451 22.3715 15.4347 22.3715 14.5003C22.3715 13.6722 21.9666 12.9412 21.353 12.5117V3.73558C21.353 3.32929 21.0382 2.99998 20.6499 2.99998H3.35016C2.9618 2.99998 2.64703 3.32929 2.64703 3.73558V12.5117C2.03344 12.9412 1.62858 13.6722 1.62858 14.5003C1.62858 15.4345 2.14383 16.2449 2.89275 16.6383C1.281 16.742 0 18.1446 0 19.8554L0.000375 20.2651C0.000540872 20.4603 0.0747599 20.6473 0.206719 20.7852C0.338638 20.9228 0.517272 21 0.7035 21H0.704437L7.13123 20.9908C7.22368 20.9906 7.31519 20.9714 7.40053 20.9342C7.48587 20.8971 7.56337 20.8426 7.62858 20.7741C7.69379 20.7055 7.74543 20.6242 7.78056 20.5347C7.81568 20.4453 7.8336 20.3494 7.83328 20.2527L7.83197 19.8548C7.83197 18.145 6.55153 16.7425 4.94039 16.6385C5.45362 16.3688 5.8568 15.9037 6.06005 15.3369H9.85654C10.0598 15.9037 10.4632 16.3688 10.9761 16.6384C9.36436 16.742 8.0834 18.1446 8.0834 19.8554L8.08373 20.2651C8.08389 20.4601 8.15805 20.647 8.28989 20.7848C8.42174 20.9226 8.60049 21 8.78686 21H8.78761L15.2144 20.9908C15.3069 20.9907 15.3984 20.9715 15.4837 20.9343C15.5691 20.8971 15.6466 20.8427 15.7118 20.7741C15.7771 20.7056 15.8287 20.6242 15.8639 20.5348C15.899 20.4453 15.9169 20.3494 15.9166 20.2527L15.9153 19.8548C15.9153 18.145 14.6349 16.7425 13.0237 16.6385C13.5368 16.3688 13.9402 15.9037 14.1434 15.3369H17.9399C18.1432 15.9037 18.5464 16.3688 19.0595 16.6384C17.4478 16.742 16.1668 18.1446 16.1668 19.8554L16.1671 20.2651C16.1673 20.4601 16.2414 20.647 16.3733 20.7848C16.5051 20.9226 16.6838 21 16.8702 21H16.8712L23.2979 20.9908C23.3904 20.9906 23.4819 20.9714 23.5673 20.9342C23.6526 20.897 23.7301 20.8426 23.7953 20.774C23.8606 20.7055 23.9122 20.6241 23.9473 20.5346C23.9824 20.4451 24.0003 20.3493 24 20.2526L23.9987 19.8549ZM19.2506 18.1026H20.9149C21.73 18.1026 22.4112 18.7129 22.5615 19.5205L17.6023 19.5278C17.7493 18.7175 18.4325 18.1026 19.2506 18.1026ZM19.2015 14.5003C19.2015 13.9926 19.597 13.5798 20.0834 13.5798C20.5697 13.5798 20.9652 13.9926 20.9652 14.5003C20.9652 15.0079 20.5697 15.4209 20.0834 15.4209C19.597 15.4209 19.2015 15.0079 19.2015 14.5003ZM14.2057 13.8657C13.9391 12.854 13.0516 12.1085 12 12.1085C10.9484 12.1085 10.0611 12.854 9.7943 13.8657H6.12234C5.8673 12.8981 5.0444 12.1746 4.05328 12.1131V4.47117H19.9467V12.1133C18.9556 12.1746 18.1327 12.8981 17.8777 13.8657H14.2057ZM12 15.421C11.5137 15.421 11.1181 15.0079 11.1181 14.5003C11.1181 13.9927 11.5137 13.5799 12 13.5799C12.4863 13.5799 12.8818 13.9927 12.8818 14.5003C12.8818 15.0079 12.4863 15.421 12 15.421ZM3.91664 15.421C3.43031 15.421 3.03478 15.0079 3.03478 14.5003C3.03478 13.9927 3.43031 13.5799 3.91664 13.5799C4.40297 13.5799 4.79845 13.9927 4.79845 14.5003C4.79845 15.0079 4.40297 15.421 3.91664 15.421ZM1.43555 19.5278C1.58259 18.7175 2.2657 18.1026 3.08386 18.1026H4.74811C5.56326 18.1026 6.24445 18.7129 6.39478 19.5206L1.43555 19.5278ZM9.5189 19.5278C9.66595 18.7175 10.3491 18.1026 11.1672 18.1026H12.8315C13.6466 18.1026 14.3278 18.7129 14.4782 19.5206L9.5189 19.5278Z" fill="#343947"/>
<path d="M9.95526 8.42856H14.0446C14.4124 8.42856 14.7105 8.10865 14.7105 7.71427C14.7105 7.31975 14.4124 6.99998 14.0446 6.99998H9.95526C9.58744 6.99998 9.28932 7.31975 9.28932 7.71427C9.28932 8.10865 9.58744 8.42856 9.95526 8.42856ZM17.3339 9.57141H6.66594C6.29812 9.57141 6 9.89118 6 10.2857C6 10.6801 6.29812 11 6.66594 11H17.3341C17.7017 11 18 10.6801 18 10.2857C18 9.89118 17.7017 9.57141 17.3339 9.57141Z" fill="#343947"/>
</g>
<defs>
<clipPath id="clip0_485_8373">
<rect width="24" height="24" fill="white"/>
</clipPath>
</defs>
</svg>
