<svg width="24" height="24" viewBox="0 0 24 24" fill="none" xmlns="http://www.w3.org/2000/svg">
<g clip-path="url(#clip0_1465_211)">
<path d="M21.75 5.685C21.7488 4.7465 21.3755 3.84678 20.7118 3.18316C20.0482 2.51954 19.1485 2.14619 18.21 2.145H17.571V1.5C17.571 1.30109 17.492 1.11032 17.3513 0.96967C17.2107 0.829018 17.0199 0.75 16.821 0.75C16.6221 0.75 16.4313 0.829018 16.2907 0.96967C16.15 1.11032 16.071 1.30109 16.071 1.5V2.145H6.429V1.5C6.429 1.30109 6.34998 1.11032 6.20933 0.96967C6.06868 0.829018 5.87791 0.75 5.679 0.75C5.48009 0.75 5.28932 0.829018 5.14867 0.96967C5.00802 1.11032 4.929 1.30109 4.929 1.5V2.145H4.29C3.3515 2.14619 2.45178 2.51954 1.78816 3.18316C1.12454 3.84678 0.751191 4.7465 0.75 5.685V18.21C0.751191 19.1485 1.12454 20.0482 1.78816 20.7118C2.45178 21.3755 3.3515 21.7488 4.29 21.75H12.309C13.4935 22.7143 14.9726 23.2437 16.5 23.25C18.2896 23.248 20.0053 22.5362 21.2708 21.2708C22.5362 20.0053 23.248 18.2896 23.25 16.5C23.2433 14.9731 22.7139 13.4946 21.75 12.3105V5.685ZM4.29 3.645H4.929V4.2855C4.929 4.48441 5.00802 4.67518 5.14867 4.81583C5.28932 4.95648 5.48009 5.0355 5.679 5.0355C5.87791 5.0355 6.06868 4.95648 6.20933 4.81583C6.34998 4.67518 6.429 4.48441 6.429 4.2855V3.645H16.071V4.2855C16.071 4.48441 16.15 4.67518 16.2907 4.81583C16.4313 4.95648 16.6221 5.0355 16.821 5.0355C17.0199 5.0355 17.2107 4.95648 17.3513 4.81583C17.492 4.67518 17.571 4.48441 17.571 4.2855V3.645H18.21C18.7508 3.64579 19.2692 3.86098 19.6516 4.24338C20.034 4.62578 20.2492 5.1442 20.25 5.685V6.321H2.25V5.685C2.25079 5.1442 2.46598 4.62578 2.84838 4.24338C3.23078 3.86098 3.7492 3.64579 4.29 3.645ZM2.25 18.21V7.821H20.25V10.893C18.9525 10.0232 17.3934 9.63081 15.8388 9.78273C14.2842 9.93466 12.8305 10.6215 11.726 11.726C10.6215 12.8305 9.93466 14.2842 9.78273 15.8388C9.63081 17.3934 10.0232 18.9525 10.893 20.25H4.29C3.7492 20.2492 3.23078 20.034 2.84838 19.6516C2.46598 19.2692 2.25079 18.7508 2.25 18.21ZM16.5 21.75C15.4616 21.75 14.4466 21.4421 13.5833 20.8652C12.7199 20.2883 12.047 19.4684 11.6496 18.5091C11.2523 17.5498 11.1483 16.4942 11.3509 15.4758C11.5534 14.4574 12.0535 13.5219 12.7877 12.7877C13.5219 12.0535 14.4574 11.5534 15.4758 11.3509C16.4942 11.1483 17.5498 11.2523 18.5091 11.6496C19.4684 12.047 20.2883 12.7199 20.8652 13.5833C21.4421 14.4466 21.75 15.4616 21.75 16.5C21.7484 17.8919 21.1948 19.2263 20.2106 20.2106C19.2263 21.1948 17.8919 21.7484 16.5 21.75ZM18.5295 17.4705C18.6056 17.5385 18.667 17.6213 18.7099 17.7138C18.7529 17.8064 18.7765 17.9067 18.7794 18.0087C18.7822 18.1107 18.7642 18.2122 18.7265 18.307C18.6888 18.4017 18.6321 18.4878 18.56 18.56C18.4878 18.6321 18.4017 18.6888 18.307 18.7265C18.2122 18.7642 18.1107 18.7822 18.0087 18.7794C17.9067 18.7765 17.8064 18.7529 17.7138 18.7099C17.6213 18.667 17.5385 18.6056 17.4705 18.5295L15.9705 17.0295C15.8297 16.8892 15.7504 16.6987 15.75 16.5V13.5C15.75 13.3011 15.829 13.1103 15.9697 12.9697C16.1103 12.829 16.3011 12.75 16.5 12.75C16.6989 12.75 16.8897 12.829 17.0303 12.9697C17.171 13.1103 17.25 13.3011 17.25 13.5V16.1895L18.5295 17.4705Z" fill="#343947"/>
<circle cx="6" cy="11" r="1" fill="#343947"/>
<circle cx="11" cy="11" r="1" fill="#343947"/>
<circle cx="6" cy="16" r="1" fill="#343947"/>
</g>
<defs>
<clipPath id="clip0_1465_211">
<rect width="24" height="24" fill="white"/>
</clipPath>
</defs>
</svg>
