<svg width="24" height="24" viewBox="0 0 24 24" fill="none" xmlns="http://www.w3.org/2000/svg">
<path d="M21.2496 19.9831H17.0696C16.8707 19.9831 16.6799 19.9041 16.5393 19.7636C16.3986 19.6231 16.3196 19.4325 16.3196 19.2337C16.3196 19.035 16.3986 18.8444 16.5393 18.7038C16.6799 18.5633 16.8707 18.4843 17.0696 18.4843H20.7236L22.1786 14.4877H1.81962L3.27462 18.4843H6.92962C7.12853 18.4843 7.3193 18.5633 7.45995 18.7038C7.6006 18.8444 7.67962 19.035 7.67962 19.2337C7.67962 19.4325 7.6006 19.6231 7.45995 19.7636C7.3193 19.9041 7.12853 19.9831 6.92962 19.9831H2.74962C2.5956 19.9831 2.44532 19.9357 2.31919 19.8474C2.19305 19.7591 2.09719 19.6341 2.04462 19.4895L0.0446183 13.9941C0.0037204 13.881 -0.00932799 13.7596 0.00657405 13.6403C0.0224761 13.521 0.066862 13.4073 0.135987 13.3087C0.205112 13.2102 0.296947 13.1297 0.403746 13.074C0.510544 13.0184 0.629171 12.9892 0.749618 12.989H23.2496C23.3703 12.9889 23.4892 13.018 23.5962 13.0736C23.7032 13.1292 23.7952 13.2098 23.8644 13.3086C23.9336 13.4073 23.9779 13.5213 23.9936 13.6408C24.0094 13.7604 23.996 13.8819 23.9546 13.9951L21.9546 19.4905C21.9019 19.6349 21.806 19.7597 21.6798 19.8478C21.5537 19.9359 21.4035 19.9832 21.2496 19.9831Z" fill="#343947"/>
<path d="M16.2507 23.9797C16.1426 23.9795 16.0359 23.9559 15.9377 23.9108C15.8395 23.8656 15.7523 23.7998 15.6818 23.7178C15.6114 23.6359 15.5595 23.5398 15.5296 23.436C15.4997 23.3322 15.4926 23.2232 15.5087 23.1164L16.3757 17.4852H7.62371L8.49072 23.1164C8.50867 23.2149 8.50667 23.3161 8.48485 23.4138C8.46303 23.5115 8.42183 23.6039 8.36367 23.6855C8.30552 23.767 8.23159 23.8361 8.14627 23.8886C8.06094 23.9412 7.96594 23.9761 7.86689 23.9913C7.76783 24.0065 7.66672 24.0017 7.56954 23.9773C7.47236 23.9528 7.38107 23.9091 7.30107 23.8488C7.22107 23.7885 7.15398 23.7127 7.10377 23.6261C7.05355 23.5394 7.02123 23.4436 7.00871 23.3442L6.00871 16.8497C5.99228 16.743 5.99914 16.6339 6.02883 16.5301C6.05851 16.4262 6.11032 16.33 6.1807 16.248C6.25108 16.166 6.33836 16.1002 6.43658 16.055C6.53479 16.0099 6.64161 15.9865 6.74971 15.9865H17.2497C17.3579 15.9865 17.4648 16.0099 17.5631 16.0551C17.6614 16.1003 17.7488 16.1662 17.8192 16.2483C17.8896 16.3304 17.9413 16.4268 17.971 16.5308C18.0006 16.6347 18.0073 16.7439 17.9907 16.8507L16.9907 23.3452C16.9635 23.5218 16.8739 23.6829 16.7382 23.7993C16.6025 23.9156 16.4296 23.9796 16.2507 23.9797ZM22.4997 14.2379C22.3008 14.2379 22.11 14.159 21.9694 14.0185C21.8287 13.8779 21.7497 13.6873 21.7497 13.4886C21.7443 12.5067 21.4879 11.5426 21.0046 10.6876C20.5214 9.83266 19.8275 9.11532 18.9887 8.60371C18.8188 8.50023 18.6971 8.33357 18.6502 8.14038C18.6033 7.9472 18.6351 7.74331 18.7387 7.57359C18.8423 7.40386 19.0091 7.28219 19.2024 7.23534C19.3958 7.1885 19.5998 7.22032 19.7697 7.3238C21.9157 8.63069 23.2487 10.9927 23.2487 13.4886C23.2488 13.5869 23.2296 13.6844 23.192 13.7753C23.1544 13.8662 23.0993 13.9488 23.0297 14.0184C22.9601 14.088 22.8775 14.1432 22.7866 14.1809C22.6956 14.2186 22.5982 14.2379 22.4997 14.2379Z" fill="#343947"/>
<path d="M18.5 8.99238C19.3284 8.99238 20 8.32138 20 7.49365C20 6.66592 19.3284 5.99492 18.5 5.99492C17.6716 5.99492 17 6.66592 17 7.49365C17 8.32138 17.6716 8.99238 18.5 8.99238Z" fill="#343947"/>
<path d="M12 7.99323C9.794 7.99323 8 6.20075 8 3.99661C8 1.79248 9.794 0 12 0C14.206 0 16 1.79248 16 3.99661C16 6.20075 14.206 7.99323 12 7.99323ZM12 1.49873C10.621 1.49873 9.5 2.61978 9.5 3.99661C9.5 5.37345 10.621 6.4945 12 6.4945C13.379 6.4945 14.5 5.37345 14.5 3.99661C14.5 2.61978 13.379 1.49873 12 1.49873ZM19.5 14.4877C19.3011 14.4877 19.1103 14.4088 18.9697 14.2682C18.829 14.1277 18.75 13.9371 18.75 13.7384C18.7489 12.8775 18.4062 12.0521 17.7969 11.4434C17.1877 10.8346 16.3616 10.4922 15.5 10.4911H8.5C7.63837 10.4922 6.81234 10.8346 6.20307 11.4434C5.59381 12.0521 5.25106 12.8775 5.25 13.7384C5.25 13.9371 5.17098 14.1277 5.03033 14.2682C4.88968 14.4088 4.69891 14.4877 4.5 14.4877C4.30109 14.4877 4.11032 14.4088 3.96967 14.2682C3.82902 14.1277 3.75 13.9371 3.75 13.7384C3.75159 12.4801 4.25254 11.2739 5.143 10.3842C6.03345 9.4945 7.24071 8.99397 8.5 8.99238H15.5C16.7593 8.99397 17.9665 9.4945 18.857 10.3842C19.7475 11.2739 20.2484 12.4801 20.25 13.7384C20.25 13.9371 20.171 14.1277 20.0303 14.2682C19.8897 14.4088 19.6989 14.4877 19.5 14.4877Z" fill="#343947"/>
</svg>
