<svg width="22" height="24" viewBox="0 0 22 24" fill="none" xmlns="http://www.w3.org/2000/svg">
<g clip-path="url(#clip0_10_262)">
<path d="M6.60149 0V5.09404C2.55011 8.75778 0 14.0897 0 20.0227V0H6.60149Z" fill="url(#paint0_linear_10_262)"/>
<path d="M22 24H14.0208L7.19788 14.3414C8.07826 12.3431 9.41105 10.5938 11.0645 9.22537L22 24Z" fill="#548CFF"/>
<path style="mix-blend-mode:multiply" d="M12.29 10.884C10.7738 12.2111 9.54829 13.8683 8.72225 15.7442C8.65296 15.901 8.58639 16.0591 8.52254 16.2187L7.19653 14.3414C8.07691 12.3431 9.40971 10.5938 11.0631 9.22537L12.29 10.884Z" fill="url(#paint1_linear_10_262)"/>
<path d="M18.9486 0.0178833C16.9242 0.103151 14.9773 0.495105 13.1554 1.15249C10.714 2.02992 8.49268 3.37907 6.60149 5.09404C2.55011 8.75778 0 14.0897 0 20.0227V24H6.57432C6.20478 22.7402 6.0037 21.4062 6.0037 20.0227C6.0037 18.6392 6.21293 17.2378 6.60149 15.9491C6.76724 15.3963 6.96696 14.8599 7.19792 14.34C8.0783 12.3418 9.4111 10.5924 11.0645 9.224C12.2465 8.2448 13.5929 7.45952 15.0561 6.91903C15.6186 6.70999 16.1974 6.53946 16.7924 6.40606C17.4935 6.24927 18.2135 6.14613 18.9486 6.10212V0.0178833Z" fill="url(#paint2_linear_10_262)"/>
</g>
<defs>
<linearGradient id="paint0_linear_10_262" x1="-3.57315" y1="2.33385" x2="3.08792" y2="9.59426" gradientUnits="userSpaceOnUse">
<stop stop-color="#548CFF"/>
<stop offset="1" stop-color="#316CE7"/>
</linearGradient>
<linearGradient id="paint1_linear_10_262" x1="10.7167" y1="13.6056" x2="8.86421" y2="11.8747" gradientUnits="userSpaceOnUse">
<stop offset="0.34" stop-color="#4CC1FF" stop-opacity="0"/>
<stop offset="1" stop-color="#6E89FF"/>
</linearGradient>
<linearGradient id="paint2_linear_10_262" x1="4.497" y1="29.6662" x2="12.7655" y2="0.504844" gradientUnits="userSpaceOnUse">
<stop stop-color="#548CFF"/>
<stop offset="1" stop-color="#548CFF"/>
</linearGradient>
<clipPath id="clip0_10_262">
<rect width="22" height="24" fill="white"/>
</clipPath>
</defs>
</svg>
