<svg width="40" height="40" viewBox="0 0 40 40" fill="none" xmlns="http://www.w3.org/2000/svg">
<g clip-path="url(#clip0_650_4636)">
<path d="M0.779297 33.59V36.71C0.780022 37.0392 0.845788 37.365 0.972778 37.6688C1.09977 37.9725 1.28547 38.2482 1.51929 38.48C1.7497 38.7121 2.02398 38.8962 2.32611 39.0215C2.62824 39.1468 2.95221 39.2109 3.2793 39.21H36.7193C37.3826 39.2101 38.0189 38.9476 38.4893 38.48C38.7218 38.2477 38.906 37.9717 39.0312 37.6679C39.1565 37.3642 39.2204 37.0386 39.2193 36.71V33.59H0.779297Z" fill="#F4F7FF"/>
<path d="M0.779297 14.17V33.55C0.78295 34.2145 1.0489 34.8506 1.51929 35.32C1.7497 35.5521 2.02398 35.7362 2.32611 35.8615C2.62824 35.9868 2.95221 36.0509 3.2793 36.05H36.7193C37.3826 36.0501 38.0189 35.7876 38.4893 35.32C38.957 34.8496 39.2194 34.2133 39.2193 33.55V14.17" fill="#F4F7FF"/>
<path d="M36.8793 4.83997H3.12933C2.50664 4.84196 1.90993 5.08998 1.4693 5.52997C1.03141 5.96384 0.7833 6.55355 0.779297 7.16997V14.17H39.2193V7.16997C39.2186 6.86305 39.1574 6.55929 39.0389 6.27614C38.9205 5.99298 38.7473 5.736 38.5293 5.51997C38.3124 5.30376 38.0551 5.13242 37.772 5.01574C37.4889 4.89906 37.1856 4.83933 36.8793 4.83997Z" fill="#F4F7FF"/>
<path d="M6.72007 8.58998C6.49382 8.59097 6.26962 8.54732 6.06028 8.46152C5.85093 8.37572 5.66057 8.24946 5.5001 8.08998C5.17984 7.76465 5.00027 7.32649 5.0001 6.86998V2.48998C4.99765 2.26339 5.04191 2.03872 5.1301 1.82998C5.21637 1.62131 5.34198 1.43118 5.5001 1.26998C5.66057 1.11049 5.85093 0.984239 6.06028 0.898441C6.26962 0.812642 6.49382 0.768984 6.72007 0.769977C6.94341 0.767755 7.16479 0.812032 7.37009 0.899982C7.57876 0.98625 7.76889 1.11186 7.93009 1.26998C8.09139 1.42858 8.21746 1.61939 8.30008 1.82998C8.39144 2.03808 8.4391 2.26271 8.4401 2.48998V6.86998C8.43619 7.32769 8.2531 7.76566 7.93009 8.08998C7.60844 8.40963 7.17354 8.58933 6.72007 8.58998Z" fill="#F4F7FF"/>
<path d="M33.2904 8.58999C33.0641 8.59099 32.8399 8.54734 32.6306 8.46154C32.4212 8.37574 32.2309 8.24948 32.0704 8.08999C31.7502 7.76466 31.5706 7.3265 31.5704 6.86999V2.48999C31.568 2.2634 31.6122 2.03874 31.7004 1.83C31.783 1.61941 31.9091 1.42859 32.0704 1.26999C32.2316 1.11188 32.4217 0.986267 32.6304 0.899999C32.8391 0.811804 33.0638 0.767546 33.2904 0.769994C33.5137 0.767772 33.7351 0.812048 33.9404 0.899999C34.1491 0.986267 34.3392 1.11188 34.5004 1.26999C34.6617 1.42859 34.7878 1.61941 34.8704 1.83C34.9586 2.03874 35.0028 2.2634 35.0004 2.48999V6.86999C35.0028 7.09659 34.9586 7.32126 34.8704 7.53C34.7878 7.74058 34.6617 7.93139 34.5004 8.08999C34.3392 8.24811 34.1491 8.37373 33.9404 8.46C33.7351 8.54795 33.5137 8.59222 33.2904 8.58999Z" fill="#F4F7FF"/>
<path d="M20.0108 8.59003C19.5573 8.58939 19.1224 8.40969 18.8008 8.09003C18.4805 7.7647 18.301 7.32654 18.3008 6.87003V2.49003C18.301 2.03352 18.4805 1.59536 18.8008 1.27003C19.1224 0.950372 19.5573 0.770672 20.0108 0.77003C20.2355 0.769259 20.4581 0.813052 20.6658 0.898875C20.8735 0.984698 21.0621 1.11085 21.2208 1.27003C21.3825 1.42935 21.5109 1.61928 21.5984 1.82874C21.686 2.0382 21.731 2.263 21.7308 2.49003V6.87003C21.731 7.09706 21.686 7.32186 21.5984 7.53132C21.5109 7.74078 21.3825 7.93071 21.2208 8.09003C21.0621 8.24921 20.8735 8.37536 20.6658 8.46118C20.4581 8.54701 20.2355 8.5908 20.0108 8.59003Z" fill="#F4F7FF"/>
<path d="M20.9101 19L22.4301 22.08L25.8401 22.57C26.025 22.5984 26.1982 22.6781 26.3401 22.8C26.4807 22.9246 26.5874 23.0829 26.6501 23.26C26.695 23.444 26.695 23.6361 26.6501 23.82C26.604 24.0033 26.5069 24.1697 26.3701 24.3L23.9101 26.7L24.4901 30.09C24.5222 30.2753 24.5015 30.466 24.4301 30.64C24.3591 30.8122 24.2413 30.9611 24.0901 31.07C23.9381 31.181 23.7579 31.2469 23.5701 31.26C23.3831 31.28 23.1944 31.2416 23.0301 31.15L19.9801 29.55L16.9801 31.15C16.811 31.2384 16.6202 31.2766 16.4301 31.26C16.2424 31.2469 16.0621 31.181 15.9101 31.07C15.7589 30.9611 15.6412 30.8122 15.5701 30.64C15.4988 30.466 15.478 30.2753 15.5101 30.09L16.0901 26.7L13.6301 24.3C13.4933 24.1697 13.3962 24.0033 13.3501 23.82C13.3052 23.6361 13.3052 23.444 13.3501 23.26C13.408 23.0805 13.5155 22.921 13.6601 22.8C13.807 22.6799 13.9829 22.6006 14.1701 22.57L17.5701 22.08L19.0901 19C19.1752 18.83 19.307 18.6878 19.4701 18.59C19.6292 18.4914 19.8129 18.4394 20.0001 18.44C20.1874 18.4394 20.371 18.4914 20.5301 18.59C20.6909 18.6906 20.822 18.8321 20.9101 19Z" fill="#F4F7FF"/>
<path d="M39.0908 5.02019C38.8019 4.73098 38.4585 4.50177 38.0806 4.34575C37.7027 4.18973 37.2977 4.10999 36.8888 4.1111H35.7373V2.32323C35.7382 1.70654 35.4949 1.11459 35.0606 0.676766C34.8456 0.462017 34.5905 0.291722 34.3097 0.175601C34.0289 0.0594798 33.7281 -0.000190263 33.4242 2.22955e-06C32.8075 -0.00084968 32.2156 0.242465 31.7778 0.676766C31.563 0.891706 31.3927 1.14686 31.2766 1.42763C31.1605 1.7084 31.1008 2.00929 31.101 2.31313V4.101H22.3334V2.32323C22.3342 1.70654 22.0909 1.11459 21.6566 0.676766C21.2188 0.242465 20.6269 -0.00084968 20.0102 2.22955e-06C19.7063 -0.000190263 19.4054 0.0594798 19.1246 0.175601C18.8439 0.291722 18.5887 0.462017 18.3738 0.676766C18.159 0.891706 17.9887 1.14686 17.8726 1.42763C17.7565 1.7084 17.6968 2.00929 17.697 2.31313V4.101H8.90918V2.32323C8.91108 2.01674 8.8513 1.71299 8.73329 1.43012C8.61528 1.14725 8.44148 0.891038 8.22232 0.676766C8.00738 0.462017 7.75224 0.291722 7.47147 0.175601C7.1907 0.0594798 6.88981 -0.000190263 6.58597 2.22955e-06C5.96929 -0.00084968 5.37733 0.242465 4.93951 0.676766C4.72476 0.891706 4.55447 1.14686 4.43835 1.42763C4.32223 1.7084 4.26257 2.00929 4.26276 2.31313V4.101H3.11124C2.70352 4.09727 2.29924 4.17586 1.9226 4.33207C1.54597 4.48827 1.20475 4.71888 0.919351 5.01009C0.625088 5.29581 0.391911 5.6383 0.233911 6.01681C0.0759111 6.39531 -0.00365687 6.80196 0.000129023 7.2121V36.8787C-0.00365687 37.2888 0.0759111 37.6954 0.233911 38.074C0.391911 38.4525 0.625088 38.795 0.919351 39.0807C1.20597 39.371 1.54721 39.6016 1.9234 39.7594C2.2996 39.9171 2.7033 39.9989 3.11124 39.9999H36.8888C37.299 40.0037 37.7056 39.9241 38.0841 39.7661C38.4626 39.6081 38.8051 39.3749 39.0908 39.0807C39.381 38.7924 39.6108 38.4492 39.7668 38.0711C39.9229 37.693 40.0022 37.2877 40 36.8787V7.2121C39.9951 6.39071 39.6688 5.60387 39.0908 5.02019ZM32.2727 2.33332C32.2728 2.02755 32.3924 1.73393 32.606 1.51515C32.8248 1.30154 33.1185 1.18191 33.4242 1.18181C33.7267 1.18347 34.0166 1.30306 34.2323 1.51515C34.4459 1.73393 34.5655 2.02755 34.5656 2.33332V6.75756C34.5651 7.06026 34.4453 7.35055 34.2323 7.56563C34.0182 7.78142 33.7281 7.90472 33.4242 7.90907C33.2718 7.90934 33.1209 7.8791 32.9804 7.82011C32.8399 7.76113 32.7126 7.6746 32.606 7.56563C32.393 7.35055 32.2733 7.06026 32.2727 6.75756V2.33332ZM18.8688 2.33332C18.8689 2.02755 18.9884 1.73393 19.2021 1.51515C19.4171 1.30215 19.7075 1.1824 20.0102 1.18181C20.3129 1.1824 20.6032 1.30215 20.8182 1.51515C20.9272 1.62169 21.0137 1.74898 21.0727 1.8895C21.1317 2.03002 21.1619 2.18093 21.1616 2.33332V6.75756C21.1623 6.90852 21.1322 7.05802 21.0732 7.19695C21.0141 7.33589 20.9274 7.46133 20.8182 7.56563C20.6042 7.78142 20.3141 7.90472 20.0102 7.90907C19.7063 7.90472 19.4161 7.78142 19.2021 7.56563C18.9891 7.35055 18.8694 7.06026 18.8688 6.75756V2.33332ZM5.43445 2.33332C5.43455 2.02755 5.55419 1.73393 5.7678 1.51515C5.98735 1.30698 6.27837 1.19095 6.58092 1.19095C6.88347 1.19095 7.17448 1.30698 7.39404 1.51515C7.60765 1.73393 7.72729 2.02755 7.72739 2.33332V6.75756C7.72994 6.90787 7.70167 7.05711 7.64434 7.19609C7.58701 7.33507 7.50182 7.46083 7.39404 7.56563C7.28974 7.67477 7.1643 7.76151 7.02536 7.82056C6.88643 7.87961 6.73693 7.90972 6.58597 7.90907C6.43358 7.90934 6.28267 7.8791 6.14214 7.82011C6.00162 7.76113 5.87434 7.6746 5.7678 7.56563C5.5548 7.35055 5.43503 7.06026 5.43445 6.75756V2.33332ZM38.8282 36.8888C38.821 37.4019 38.6187 37.8931 38.2626 38.2625C38.082 38.4424 37.8678 38.585 37.632 38.6821C37.3963 38.7791 37.1438 38.8288 36.8888 38.8282H3.11124C2.85786 38.8286 2.60689 38.7788 2.37284 38.6817C2.1388 38.5846 1.92634 38.4421 1.74764 38.2625C1.38145 37.8988 1.1744 37.4048 1.17187 36.8888V36.1817L1.485 36.3736C1.97093 36.6833 2.53505 36.8479 3.11124 36.8484H36.8888C37.465 36.8479 38.0292 36.6833 38.5151 36.3736L38.8282 36.1918V36.8888ZM38.8282 13.5757H23.5152C23.4382 13.5752 23.3618 13.5901 23.2907 13.6196C23.2196 13.6491 23.1551 13.6926 23.1011 13.7474C22.9912 13.8572 22.9294 14.0062 22.9293 14.1616C22.9286 14.2401 22.9434 14.318 22.9728 14.3908C23.0023 14.4636 23.0459 14.5299 23.1011 14.5858C23.2115 14.6948 23.3601 14.7564 23.5152 14.7575H38.7878V33.7373C38.7806 34.2504 38.5784 34.7416 38.2222 35.111C37.8527 35.4672 37.3616 35.6694 36.8485 35.6766H3.11124C2.85786 35.677 2.60689 35.6273 2.37284 35.5302C2.1388 35.4331 1.92634 35.2906 1.74764 35.111C1.38145 34.7473 1.1744 34.2533 1.17187 33.7373V14.7474H16.4445C16.5179 14.7614 16.5933 14.7614 16.6667 14.7474C16.7363 14.7168 16.801 14.6759 16.8586 14.6262C16.9083 14.5686 16.9492 14.5039 16.9799 14.4343C17.0122 14.361 17.0293 14.282 17.0304 14.202C17.0303 14.0466 16.9685 13.8977 16.8586 13.7878C16.7488 13.6779 16.5999 13.6162 16.4445 13.6161H1.16176V7.2121C1.16191 6.95639 1.21286 6.70326 1.3117 6.46743C1.41054 6.23159 1.55531 6.01776 1.73753 5.83836C1.91623 5.65873 2.12875 5.51626 2.36279 5.41917C2.59684 5.32209 2.84775 5.27231 3.10113 5.27271H4.25265V6.74745C4.25246 7.05129 4.31212 7.35219 4.42824 7.63296C4.54436 7.91373 4.71465 8.16887 4.9294 8.38381C5.36722 8.81812 5.95917 9.06143 6.57586 9.06058C6.8797 9.06077 7.18059 9.0011 7.46136 8.88498C7.74213 8.76886 7.99727 8.59856 8.21221 8.38381C8.64502 7.94828 8.89141 7.36142 8.89913 6.74745V5.27271H17.6869V6.74745C17.6876 7.36086 17.931 7.9491 18.3637 8.38381C18.8015 8.81203 19.3877 9.0545 20.0001 9.06058C20.3039 9.06077 20.6048 9.0011 20.8856 8.88498C21.1663 8.76886 21.4215 8.59856 21.6364 8.38381C21.8548 8.17108 22.0282 7.91657 22.1462 7.63545C22.2642 7.35433 22.3244 7.05233 22.3233 6.74745V5.27271H31.0909V6.74745C31.0907 7.05129 31.1504 7.35219 31.2665 7.63296C31.3826 7.91373 31.5529 8.16887 31.7677 8.38381C32.2055 8.81812 32.7974 9.06143 33.4141 9.06058C34.0275 9.05986 34.6157 8.81658 35.0505 8.38381C35.2652 8.16887 35.4355 7.91373 35.5516 7.63296C35.6677 7.35219 35.7275 7.05129 35.7273 6.74745V5.27271H36.8787C37.3919 5.27994 37.8831 5.48217 38.2525 5.83836C38.4348 6.01819 38.576 6.23526 38.6666 6.47473C38.7672 6.70753 38.8188 6.95852 38.8182 7.2121L38.8282 13.5757Z" fill="#3573F9"/>
<path d="M20.5791 14.17C20.584 14.2098 20.584 14.2502 20.5791 14.29V14.4C20.5809 14.4333 20.5809 14.4667 20.5791 14.5L20.5092 14.59L20.4192 14.66L20.3092 14.72H20.2091H20.1092H19.9792C19.9432 14.7303 19.9051 14.7303 19.8692 14.72H19.7691L19.6792 14.64C19.6508 14.6182 19.627 14.591 19.6092 14.56C19.6056 14.5268 19.6056 14.4932 19.6092 14.46C19.605 14.4234 19.605 14.3865 19.6092 14.35C19.6042 14.3101 19.6042 14.2698 19.6092 14.23C19.6042 14.1901 19.6042 14.1498 19.6092 14.11C19.6065 14.0734 19.6065 14.0366 19.6092 14C19.6074 13.9667 19.6074 13.9333 19.6092 13.9L19.6692 13.82L19.7691 13.75H19.8692H19.9792H20.2091H20.3092L20.4091 13.81C20.4448 13.825 20.4758 13.8492 20.4992 13.88L20.5791 13.97V14.07V14.18C20.5791 14.1767 20.5791 14.1733 20.5791 14.17Z" fill="#3573F9"/>
<path d="M27.2096 23.08C27.1184 22.7981 26.9484 22.5483 26.7196 22.36C26.4985 22.1632 26.2232 22.0377 25.9296 22L22.8296 21.55L21.4396 18.73C21.3038 18.4677 21.1 18.2467 20.8496 18.09C20.5984 17.9311 20.3068 17.8478 20.0096 17.85C19.7126 17.8489 19.4213 17.9322 19.1696 18.09C18.9199 18.2445 18.7188 18.4663 18.5896 18.73L17.1996 21.55L14.0996 22C13.8037 22.0399 13.5257 22.165 13.2996 22.36C13.0737 22.5488 12.907 22.7988 12.8196 23.08C12.7346 23.3672 12.7346 23.6728 12.8196 23.96C12.8894 24.2507 13.0423 24.5148 13.2596 24.72L15.4996 26.9L14.9696 29.99C14.9193 30.2828 14.9504 30.5838 15.0596 30.86C15.1774 31.1325 15.3634 31.3702 15.5996 31.55C15.8443 31.7226 16.131 31.8263 16.4296 31.85C16.7242 31.8706 17.0186 31.8083 17.2796 31.67L20.0596 30.21L22.8296 31.67C23.058 31.7891 23.312 31.8509 23.5696 31.85C23.904 31.8536 24.2304 31.7483 24.4996 31.55C24.7415 31.3735 24.9314 31.1352 25.0496 30.86C25.1588 30.5838 25.1899 30.2828 25.1396 29.99L24.6096 26.9L26.8496 24.71C27.0685 24.5101 27.2219 24.2487 27.2896 23.96C27.3434 23.6649 27.3158 23.3606 27.2096 23.08ZM25.9896 23.89L23.5296 26.28C23.4615 26.3472 23.4101 26.4294 23.3796 26.52C23.3643 26.6127 23.3643 26.7073 23.3796 26.8L23.9696 30.19C23.9886 30.2655 23.9886 30.3445 23.9696 30.42C23.9404 30.4973 23.888 30.5637 23.8196 30.61C23.7532 30.6528 23.678 30.6801 23.5996 30.69C23.5303 30.7038 23.4589 30.7038 23.3896 30.69L20.3896 29.09C20.3054 29.0483 20.2135 29.0244 20.1196 29.02C20.0257 29.0244 19.9338 29.0483 19.8496 29.09L16.8496 30.69C16.775 30.7152 16.6942 30.7152 16.6196 30.69C16.5366 30.6797 16.4575 30.6488 16.3896 30.6C16.3279 30.5534 16.2797 30.4913 16.2496 30.42C16.225 30.3419 16.225 30.2581 16.2496 30.18L16.8296 26.79C16.8494 26.7011 16.8494 26.6089 16.8296 26.52C16.8014 26.4283 16.7497 26.3456 16.6796 26.28L14.2196 23.88C14.1591 23.828 14.117 23.7579 14.0996 23.68C14.0744 23.602 14.0744 23.518 14.0996 23.44C14.121 23.3614 14.1664 23.2915 14.2296 23.24C14.293 23.1899 14.3692 23.1588 14.4496 23.15L17.8496 22.66C17.9432 22.6425 18.0319 22.605 18.1096 22.55C18.1849 22.4947 18.2465 22.4229 18.2896 22.34L19.8096 19.26C19.84 19.183 19.8966 19.1192 19.9696 19.08C20.0357 19.0312 20.118 19.0097 20.1996 19.02C20.24 19.0138 20.2812 19.0159 20.3208 19.0263C20.3603 19.0366 20.3974 19.0549 20.4296 19.08C20.498 19.1247 20.5532 19.1869 20.5896 19.26L22.0996 22.34C22.1459 22.4207 22.2069 22.4919 22.2796 22.55C22.3573 22.605 22.446 22.6425 22.5396 22.66L25.9396 23.15C26.0221 23.1578 26.0995 23.193 26.1596 23.25C26.2227 23.3015 26.2682 23.3714 26.2896 23.45C26.3147 23.5246 26.3147 23.6054 26.2896 23.68C26.2571 23.7341 26.2136 23.7807 26.1619 23.8169C26.1102 23.8531 26.0515 23.878 25.9896 23.89Z" fill="#3573F9"/>
</g>
<defs>
<clipPath id="clip0_650_4636">
<rect width="40" height="40" fill="white"/>
</clipPath>
</defs>
</svg>
