<svg width="24" height="24" viewBox="0 0 24 24" fill="none" xmlns="http://www.w3.org/2000/svg">
<path fill-rule="evenodd" clip-rule="evenodd" d="M15.75 4.509C13.9447 4.509 12.426 5.8035 12.0765 7.509H2.25C2.05109 7.509 1.86032 7.58802 1.71967 7.72867C1.57902 7.86932 1.5 8.06009 1.5 8.259C1.5 8.45792 1.57902 8.64868 1.71967 8.78933C1.86032 8.92998 2.05109 9.009 2.25 9.009H12.0765C12.426 10.7153 13.944 12.009 15.75 12.009C17.556 12.009 19.074 10.7153 19.4235 9.009H21.75C21.9489 9.009 22.1397 8.92998 22.2803 8.78933C22.421 8.64868 22.5 8.45792 22.5 8.259C22.5 8.06009 22.421 7.86932 22.2803 7.72867C22.1397 7.58802 21.9489 7.509 21.75 7.509H19.4235C19.074 5.8035 17.556 4.509 15.75 4.509ZM15.75 6.009C17.0017 6.009 18 7.00725 18 8.259C18 9.51075 17.0017 10.509 15.75 10.509C14.4983 10.509 13.5 9.51075 13.5 8.259C13.5 7.00725 14.4983 6.009 15.75 6.009ZM8.25 12.009C6.44475 12.009 4.926 13.3035 4.5765 15.009H2.25C2.05109 15.009 1.86032 15.088 1.71967 15.2287C1.57902 15.3693 1.5 15.5601 1.5 15.759C1.5 15.9579 1.57902 16.1487 1.71967 16.2893C1.86032 16.43 2.05109 16.509 2.25 16.509H4.5765C4.926 18.2153 6.444 19.509 8.25 19.509C10.056 19.509 11.574 18.2153 11.9235 16.509H21.75C21.9489 16.509 22.1397 16.43 22.2803 16.2893C22.421 16.1487 22.5 15.9579 22.5 15.759C22.5 15.5601 22.421 15.3693 22.2803 15.2287C22.1397 15.088 21.9489 15.009 21.75 15.009H11.9235C11.574 13.3035 10.056 12.009 8.25 12.009ZM8.25 13.509C9.50175 13.509 10.5 14.5073 10.5 15.759C10.5 17.0108 9.50175 18.009 8.25 18.009C6.99825 18.009 6 17.0108 6 15.759C6 14.5073 6.99825 13.509 8.25 13.509Z" fill="#343947"/>
</svg>
